{"glyphs":{"0":{"ha":1056,"x_min":0,"x_max":0,"o":"m 528 -28 b 56 507 236 -28 56 175 b 528 1042 56 839 236 1042 b 1000 507 819 1042 1000 839 b 528 -28 1000 175 819 -28 m 528 0 b 708 507 643 0 708 190 b 528 1014 708 828 644 1014 b 347 507 410 1014 347 829 b 528 0 347 190 413 0 "},"1":{"ha":653,"x_min":0,"x_max":0,"o":"m 69 28 l 181 28 l 208 56 l 208 917 l 181 944 l 56 944 l 56 972 b 486 1042 218 972 381 999 l 486 56 l 514 28 l 625 28 l 625 0 l 69 0 "},"2":{"ha":1000,"x_min":0,"x_max":0,"o":"m 917 431 l 875 0 l 56 0 l 56 56 b 611 822 431 307 611 557 b 499 1014 611 944 576 1014 b 374 776 411 1014 374 928 l 374 597 l 82 569 l 93 765 b 496 1042 103 940 238 1042 b 903 782 757 1042 903 949 b 306 194 903 571 718 381 l 306 181 l 792 181 l 893 436 "},"3":{"ha":978,"x_min":0,"x_max":0,"o":"m 567 528 b 908 254 806 508 908 408 b 479 -28 908 79 757 -28 b 79 235 238 -28 90 67 l 69 375 l 361 347 l 361 238 b 485 0 361 86 410 0 b 603 257 564 0 603 93 b 429 519 603 426 558 513 l 374 522 l 374 547 l 426 550 b 579 786 542 556 579 633 b 478 1014 579 932 539 1014 b 379 776 411 1014 379 928 l 379 694 l 88 667 l 96 765 b 472 1042 111 942 243 1042 b 871 788 724 1042 871 947 b 567 542 871 653 782 561 l 567 528 "},"4":{"ha":917,"x_min":0,"x_max":0,"o":"m 181 28 l 403 28 l 431 56 l 431 278 l 28 278 l 28 306 l 514 1014 l 708 1014 l 708 306 l 875 306 l 875 278 l 708 278 l 708 56 l 736 28 l 875 28 l 875 0 l 181 0 m 431 306 l 431 818 l 417 818 l 65 306 "},"5":{"ha":917,"x_min":0,"x_max":0,"o":"m 449 -28 b 61 235 208 -28 68 67 l 56 361 l 347 333 l 347 238 b 454 0 347 86 388 0 b 569 307 531 0 569 111 b 408 619 569 507 517 619 b 160 458 321 619 226 561 l 132 458 l 196 1014 l 819 1014 l 819 835 l 211 835 l 172 535 l 186 535 b 463 660 257 611 351 660 b 861 338 718 660 861 543 b 449 -28 861 104 713 -28 "},"6":{"ha":972,"x_min":0,"x_max":0,"o":"m 493 -28 b 56 458 217 -28 56 146 b 488 1042 56 810 168 1042 b 899 779 744 1042 885 915 l 906 708 l 614 736 l 614 804 b 481 1014 614 939 564 1014 b 333 556 360 1014 332 858 l 347 556 b 590 660 396 629 471 660 b 917 342 789 660 917 536 b 493 -28 917 117 746 -28 m 333 319 b 488 0 333 107 393 0 b 639 303 582 0 639 104 b 482 604 639 492 579 604 b 333 468 417 604 358 553 "},"7":{"ha":810,"x_min":0,"x_max":0,"o":"m 157 0 b 658 792 256 306 450 590 l 157 792 l 47 551 l 28 556 l 88 1014 l 796 1014 l 796 988 b 532 0 638 715 533 364 l 157 0 "},"8":{"ha":944,"x_min":0,"x_max":0,"o":"m 443 -28 b 56 200 207 -28 56 60 b 351 451 56 321 168 418 l 351 465 b 83 783 231 535 83 626 b 483 1042 83 943 236 1042 b 847 843 706 1042 847 963 b 604 639 847 747 758 672 l 604 625 b 889 279 733 561 889 460 b 443 -28 889 92 719 -28 m 569 639 b 611 790 596 664 611 721 b 446 1014 611 931 550 1014 b 319 893 369 1014 319 968 b 569 639 319 794 404 714 m 488 0 b 639 174 582 0 639 74 b 389 444 639 288 564 375 b 306 249 338 422 306 347 b 488 0 306 103 375 0 "},"9":{"ha":986,"x_min":0,"x_max":0,"o":"m 479 1042 b 917 556 756 1042 917 868 b 485 -28 917 204 804 -28 b 74 235 228 -28 88 99 l 67 306 l 358 278 l 358 210 b 492 0 358 75 408 0 b 639 458 613 0 640 156 l 625 458 b 382 354 576 385 501 354 b 56 672 183 354 56 478 b 479 1042 56 897 226 1042 m 639 694 b 485 1014 639 907 579 1014 b 333 711 390 1014 333 910 b 490 410 333 522 393 410 b 639 546 556 410 614 461 "}," ":{"ha":375,"x_min":0,"x_max":0,"o":""},"A":{"ha":1194,"x_min":0,"x_max":0,"o":"m 21 28 l 174 28 l 489 958 l 461 986 l 278 986 l 278 1014 l 715 1014 l 1058 28 l 1174 28 l 1174 0 l 21 0 m 642 403 l 493 833 l 479 833 l 333 403 m 729 28 l 757 56 l 651 375 l 324 375 l 215 56 l 243 28 "},"Á":{"ha":1194,"x_min":0,"x_max":0,"o":"m 444 1111 l 660 1417 l 840 1417 l 840 1236 l 458 1093 m 21 28 l 174 28 l 489 958 l 461 986 l 278 986 l 278 1014 l 715 1014 l 1058 28 l 1174 28 l 1174 0 l 21 0 m 642 403 l 493 833 l 479 833 l 333 403 m 729 28 l 757 56 l 651 375 l 324 375 l 215 56 l 243 28 "},"Ă":{"ha":1194,"x_min":0,"x_max":0,"o":"m 347 1417 b 542 1263 347 1301 388 1263 b 736 1417 696 1263 736 1301 l 764 1417 b 542 1096 764 1215 696 1096 b 319 1417 388 1096 319 1215 l 347 1417 m 21 28 l 174 28 l 489 958 l 461 986 l 278 986 l 278 1014 l 715 1014 l 1058 28 l 1174 28 l 1174 0 l 21 0 m 642 403 l 493 833 l 479 833 l 333 403 m 729 28 l 757 56 l 651 375 l 324 375 l 215 56 l 243 28 "},"Â":{"ha":1194,"x_min":0,"x_max":0,"o":"m 819 1097 l 542 1263 l 264 1097 l 250 1111 l 451 1417 l 632 1417 l 833 1111 m 21 28 l 174 28 l 489 958 l 461 986 l 278 986 l 278 1014 l 715 1014 l 1058 28 l 1174 28 l 1174 0 l 21 0 m 642 403 l 493 833 l 479 833 l 333 403 m 729 28 l 757 56 l 651 375 l 324 375 l 215 56 l 243 28 "},"Ä":{"ha":1194,"x_min":0,"x_max":0,"o":"m 236 1375 l 486 1375 l 486 1111 l 236 1111 m 597 1375 l 847 1375 l 847 1111 l 597 1111 m 21 28 l 174 28 l 489 958 l 461 986 l 278 986 l 278 1014 l 715 1014 l 1058 28 l 1174 28 l 1174 0 l 21 0 m 642 403 l 493 833 l 479 833 l 333 403 m 729 28 l 757 56 l 651 375 l 324 375 l 215 56 l 243 28 "},"À":{"ha":1194,"x_min":0,"x_max":0,"o":"m 243 1236 l 243 1417 l 424 1417 l 639 1111 l 625 1093 m 21 28 l 174 28 l 489 958 l 461 986 l 278 986 l 278 1014 l 715 1014 l 1058 28 l 1174 28 l 1174 0 l 21 0 m 642 403 l 493 833 l 479 833 l 333 403 m 729 28 l 757 56 l 651 375 l 324 375 l 215 56 l 243 28 "},"Ā":{"ha":1194,"x_min":0,"x_max":0,"o":"m 319 1292 l 764 1292 l 764 1125 l 319 1125 m 21 28 l 174 28 l 489 958 l 461 986 l 278 986 l 278 1014 l 715 1014 l 1058 28 l 1174 28 l 1174 0 l 21 0 m 642 403 l 493 833 l 479 833 l 333 403 m 729 28 l 757 56 l 651 375 l 324 375 l 215 56 l 243 28 "},"Ą":{"ha":1194,"x_min":0,"x_max":0,"o":"m 974 0 b 918 -132 938 -37 918 -60 b 1004 -236 918 -201 964 -236 b 1097 -181 1047 -236 1079 -212 l 1111 -194 b 900 -361 1089 -286 993 -361 b 738 -126 771 -361 706 -260 l 946 0 l 21 0 l 21 28 l 174 28 l 489 958 l 461 986 l 278 986 l 278 1014 l 715 1014 l 1058 28 l 1174 28 l 1174 0 m 333 403 l 642 403 l 493 833 l 479 833 m 757 56 l 651 375 l 324 375 l 215 56 l 243 28 l 729 28 "},"Å":{"ha":1194,"x_min":0,"x_max":0,"o":"m 542 1083 b 375 1251 449 1083 375 1157 b 542 1417 375 1343 449 1417 b 708 1251 635 1417 708 1343 b 542 1083 708 1157 635 1083 m 542 1110 b 682 1251 621 1110 682 1169 b 542 1390 682 1328 621 1390 b 401 1251 463 1390 401 1328 b 542 1110 401 1169 463 1110 m 21 28 l 174 28 l 489 958 l 461 986 l 278 986 l 278 1014 l 715 1014 l 1058 28 l 1174 28 l 1174 0 l 21 0 m 642 403 l 493 833 l 479 833 l 333 403 m 729 28 l 757 56 l 651 375 l 324 375 l 215 56 l 243 28 "},"Ǻ":{"ha":1194,"x_min":0,"x_max":0,"o":"m 444 1299 l 671 1431 l 782 1431 l 782 1306 l 449 1278 m 549 1056 b 396 1154 450 1056 396 1090 b 549 1250 396 1215 450 1250 b 701 1154 647 1250 701 1215 b 549 1056 701 1090 647 1056 m 549 1083 b 674 1154 629 1083 674 1108 b 549 1222 674 1197 629 1222 b 424 1154 468 1222 424 1197 b 549 1083 424 1108 468 1083 m 21 28 l 174 28 l 489 958 l 461 986 l 278 986 l 278 1014 l 715 1014 l 1058 28 l 1174 28 l 1174 0 l 21 0 m 642 403 l 493 833 l 479 833 l 333 403 m 729 28 l 757 56 l 651 375 l 324 375 l 215 56 l 243 28 "},"Ã":{"ha":1194,"x_min":0,"x_max":0,"o":"m 640 1124 b 514 1163 593 1124 557 1135 l 443 1207 b 344 1236 410 1228 381 1236 l 278 1131 l 264 1138 b 442 1361 286 1231 344 1361 b 560 1325 481 1361 515 1350 l 622 1288 b 738 1249 668 1260 701 1249 l 804 1354 l 818 1347 b 640 1124 796 1254 738 1124 m 21 28 l 174 28 l 489 958 l 461 986 l 278 986 l 278 1014 l 715 1014 l 1058 28 l 1174 28 l 1174 0 l 21 0 m 642 403 l 493 833 l 479 833 l 333 403 m 729 28 l 757 56 l 651 375 l 324 375 l 215 56 l 243 28 "},"Æ":{"ha":1583,"x_min":0,"x_max":0,"o":"m 163 28 l 681 958 l 653 986 l 474 986 l 474 1014 l 1472 1014 l 1514 625 l 1493 619 l 1306 986 l 1069 986 l 1042 958 l 1042 549 l 1181 549 l 1271 778 l 1292 778 l 1292 292 l 1271 292 l 1181 521 l 1042 521 l 1042 56 l 1069 28 l 1347 28 l 1535 408 l 1556 403 l 1514 0 l 14 0 l 14 28 m 750 961 l 719 961 l 492 549 l 750 549 m 722 28 l 750 56 l 750 521 l 476 521 l 218 56 l 246 28 "},"Ǽ":{"ha":1583,"x_min":0,"x_max":0,"o":"m 799 1111 l 1014 1417 l 1194 1417 l 1194 1236 l 813 1093 m 163 28 l 681 958 l 653 986 l 474 986 l 474 1014 l 1472 1014 l 1514 625 l 1493 619 l 1306 986 l 1069 986 l 1042 958 l 1042 549 l 1181 549 l 1271 778 l 1292 778 l 1292 292 l 1271 292 l 1181 521 l 1042 521 l 1042 56 l 1069 28 l 1347 28 l 1535 408 l 1556 403 l 1514 0 l 14 0 l 14 28 m 750 961 l 719 961 l 492 549 l 750 549 m 722 28 l 750 56 l 750 521 l 476 521 l 218 56 l 246 28 "},"B":{"ha":1167,"x_min":0,"x_max":0,"o":"m 56 28 l 167 28 l 194 56 l 194 958 l 167 986 l 56 986 l 56 1014 l 611 1014 b 1028 774 871 1014 1028 924 b 694 556 1028 647 915 574 l 694 542 b 1125 275 972 542 1125 440 b 708 0 1125 106 967 0 l 56 0 m 556 549 b 722 767 663 549 722 628 b 556 986 722 907 663 986 l 500 986 l 472 958 l 472 549 m 583 28 b 819 278 735 28 819 118 b 583 521 819 433 735 521 l 472 521 l 472 56 l 500 28 "},"C":{"ha":1101,"x_min":0,"x_max":0,"o":"m 618 -28 b 56 507 265 -28 56 164 b 569 1042 56 839 246 1042 b 944 1014 689 1042 800 1014 l 972 1014 l 1014 625 l 985 624 b 671 1007 922 879 826 1007 b 361 507 481 1007 361 817 b 669 36 361 196 481 36 b 1015 428 874 36 974 167 l 1046 424 b 618 -28 1004 133 874 -28 "},"Ć":{"ha":1101,"x_min":0,"x_max":0,"o":"m 506 1111 l 721 1417 l 901 1417 l 901 1236 l 519 1093 m 618 -28 b 56 507 265 -28 56 164 b 569 1042 56 839 246 1042 b 944 1014 689 1042 800 1014 l 972 1014 l 1014 625 l 985 624 b 671 1007 922 879 826 1007 b 361 507 481 1007 361 817 b 669 36 361 196 481 36 b 1015 428 874 36 974 167 l 1046 424 b 618 -28 1004 133 874 -28 "},"Č":{"ha":1101,"x_min":0,"x_max":0,"o":"m 693 1097 l 513 1097 l 311 1403 l 325 1417 l 603 1251 l 881 1417 l 894 1403 m 618 -28 b 56 507 265 -28 56 164 b 569 1042 56 839 246 1042 b 944 1014 689 1042 800 1014 l 972 1014 l 1014 625 l 985 624 b 671 1007 922 879 826 1007 b 361 507 481 1007 361 817 b 669 36 361 196 481 36 b 1015 428 874 36 974 167 l 1046 424 b 618 -28 1004 133 874 -28 "},"Ç":{"ha":1101,"x_min":0,"x_max":0,"o":"m 618 -28 b 572 -26 603 -28 588 -28 l 549 -87 l 560 -101 b 804 -204 703 -83 804 -119 b 526 -319 804 -287 708 -319 l 428 -319 l 442 -236 l 633 -236 b 665 -172 654 -219 665 -199 b 540 -125 665 -128 633 -111 l 517 -97 l 544 -25 b 56 507 236 0 56 189 b 569 1042 56 839 246 1042 b 944 1014 689 1042 800 1014 l 972 1014 l 1014 625 l 985 624 b 671 1007 922 879 826 1007 b 361 507 481 1007 361 817 b 669 36 361 196 481 36 b 1015 428 874 36 974 167 l 1046 424 b 618 -28 1004 133 874 -28 "},"Ċ":{"ha":1101,"x_min":0,"x_max":0,"o":"m 464 1375 l 742 1375 l 742 1111 l 464 1111 m 618 -28 b 56 507 265 -28 56 164 b 569 1042 56 839 246 1042 b 944 1014 689 1042 800 1014 l 972 1014 l 1014 625 l 985 624 b 671 1007 922 879 826 1007 b 361 507 481 1007 361 817 b 669 36 361 196 481 36 b 1015 428 874 36 974 167 l 1046 424 b 618 -28 1004 133 874 -28 "},"D":{"ha":1208,"x_min":0,"x_max":0,"o":"m 56 28 l 167 28 l 194 56 l 194 958 l 167 986 l 56 986 l 56 1014 l 569 1014 b 1153 507 931 1014 1153 821 b 569 0 1153 193 931 0 l 56 0 m 583 28 b 847 507 756 28 847 204 b 583 986 847 810 756 986 l 500 986 l 472 958 l 472 56 l 500 28 "},"Ð":{"ha":1208,"x_min":0,"x_max":0,"o":"m 569 1014 b 1153 507 931 1014 1153 821 b 569 0 1153 193 931 0 l 56 0 l 56 28 l 167 28 l 194 56 l 194 542 l 63 542 l 63 569 l 194 569 l 194 958 l 167 986 l 56 986 l 56 1014 l 569 1014 m 583 28 b 847 507 756 28 847 204 b 583 986 847 810 756 986 l 500 986 l 472 958 l 472 569 l 729 569 l 729 542 l 472 542 l 472 56 l 500 28 l 583 28 "},"Ď":{"ha":1208,"x_min":0,"x_max":0,"o":"m 694 1097 l 514 1097 l 313 1403 l 326 1417 l 604 1251 l 882 1417 l 896 1403 m 56 28 l 167 28 l 194 56 l 194 958 l 167 986 l 56 986 l 56 1014 l 569 1014 b 1153 507 931 1014 1153 821 b 569 0 1153 193 931 0 l 56 0 m 583 28 b 847 507 756 28 847 204 b 583 986 847 810 756 986 l 500 986 l 472 958 l 472 56 l 500 28 "},"Đ":{"ha":1208,"x_min":0,"x_max":0,"o":"m 569 1014 b 1153 507 931 1014 1153 821 b 569 0 1153 193 931 0 l 56 0 l 56 28 l 167 28 l 194 56 l 194 542 l 63 542 l 63 569 l 194 569 l 194 958 l 167 986 l 56 986 l 56 1014 l 569 1014 m 583 28 b 847 507 756 28 847 204 b 583 986 847 810 756 986 l 500 986 l 472 958 l 472 569 l 729 569 l 729 542 l 472 542 l 472 56 l 500 28 l 583 28 "},"E":{"ha":1014,"x_min":0,"x_max":0,"o":"m 56 28 l 139 28 l 167 56 l 167 958 l 139 986 l 56 986 l 56 1014 l 903 1014 l 944 625 l 921 619 l 736 986 l 472 986 l 444 958 l 444 535 l 611 535 l 701 764 l 722 764 l 722 278 l 701 278 l 611 507 l 444 507 l 444 56 l 472 28 l 778 28 l 963 408 l 986 403 l 944 0 l 56 0 "},"É":{"ha":1014,"x_min":0,"x_max":0,"o":"m 432 1111 l 647 1417 l 828 1417 l 828 1236 l 446 1093 m 56 28 l 139 28 l 167 56 l 167 958 l 139 986 l 56 986 l 56 1014 l 903 1014 l 944 625 l 921 619 l 736 986 l 472 986 l 444 958 l 444 535 l 611 535 l 701 764 l 722 764 l 722 278 l 701 278 l 611 507 l 444 507 l 444 56 l 472 28 l 778 28 l 963 408 l 986 403 l 944 0 l 56 0 "},"Ě":{"ha":1014,"x_min":0,"x_max":0,"o":"m 619 1097 l 439 1097 l 238 1403 l 251 1417 l 529 1251 l 807 1417 l 821 1403 m 56 28 l 139 28 l 167 56 l 167 958 l 139 986 l 56 986 l 56 1014 l 903 1014 l 944 625 l 921 619 l 736 986 l 472 986 l 444 958 l 444 535 l 611 535 l 701 764 l 722 764 l 722 278 l 701 278 l 611 507 l 444 507 l 444 56 l 472 28 l 778 28 l 963 408 l 986 403 l 944 0 l 56 0 "},"Ê":{"ha":1014,"x_min":0,"x_max":0,"o":"m 807 1097 l 529 1263 l 251 1097 l 238 1111 l 439 1417 l 619 1417 l 821 1111 m 56 28 l 139 28 l 167 56 l 167 958 l 139 986 l 56 986 l 56 1014 l 903 1014 l 944 625 l 921 619 l 736 986 l 472 986 l 444 958 l 444 535 l 611 535 l 701 764 l 722 764 l 722 278 l 701 278 l 611 507 l 444 507 l 444 56 l 472 28 l 778 28 l 963 408 l 986 403 l 944 0 l 56 0 "},"Ë":{"ha":1014,"x_min":0,"x_max":0,"o":"m 224 1375 l 474 1375 l 474 1111 l 224 1111 m 585 1375 l 835 1375 l 835 1111 l 585 1111 m 56 28 l 139 28 l 167 56 l 167 958 l 139 986 l 56 986 l 56 1014 l 903 1014 l 944 625 l 921 619 l 736 986 l 472 986 l 444 958 l 444 535 l 611 535 l 701 764 l 722 764 l 722 278 l 701 278 l 611 507 l 444 507 l 444 56 l 472 28 l 778 28 l 963 408 l 986 403 l 944 0 l 56 0 "},"Ė":{"ha":1014,"x_min":0,"x_max":0,"o":"m 390 1375 l 668 1375 l 668 1111 l 390 1111 m 56 28 l 139 28 l 167 56 l 167 958 l 139 986 l 56 986 l 56 1014 l 903 1014 l 944 625 l 921 619 l 736 986 l 472 986 l 444 958 l 444 535 l 611 535 l 701 764 l 722 764 l 722 278 l 701 278 l 611 507 l 444 507 l 444 56 l 472 28 l 778 28 l 963 408 l 986 403 l 944 0 l 56 0 "},"È":{"ha":1014,"x_min":0,"x_max":0,"o":"m 231 1236 l 231 1417 l 411 1417 l 626 1111 l 613 1093 m 56 28 l 139 28 l 167 56 l 167 958 l 139 986 l 56 986 l 56 1014 l 903 1014 l 944 625 l 921 619 l 736 986 l 472 986 l 444 958 l 444 535 l 611 535 l 701 764 l 722 764 l 722 278 l 701 278 l 611 507 l 444 507 l 444 56 l 472 28 l 778 28 l 963 408 l 986 403 l 944 0 l 56 0 "},"Ē":{"ha":1014,"x_min":0,"x_max":0,"o":"m 307 1292 l 751 1292 l 751 1125 l 307 1125 m 56 28 l 139 28 l 167 56 l 167 958 l 139 986 l 56 986 l 56 1014 l 903 1014 l 944 625 l 921 619 l 736 986 l 472 986 l 444 958 l 444 535 l 611 535 l 701 764 l 722 764 l 722 278 l 701 278 l 611 507 l 444 507 l 444 56 l 472 28 l 778 28 l 963 408 l 986 403 l 944 0 l 56 0 "},"Ę":{"ha":1014,"x_min":0,"x_max":0,"o":"m 789 0 b 733 -132 753 -37 733 -60 b 819 -236 733 -201 779 -236 b 913 -181 863 -236 894 -212 l 926 -194 b 715 -361 904 -286 808 -361 b 553 -126 586 -361 521 -260 l 761 0 l 56 0 l 56 28 l 139 28 l 167 56 l 167 958 l 139 986 l 56 986 l 56 1014 l 903 1014 l 944 625 l 921 619 l 736 986 l 472 986 l 444 958 l 444 535 l 611 535 l 701 764 l 722 764 l 722 278 l 701 278 l 611 507 l 444 507 l 444 56 l 472 28 l 778 28 l 963 408 l 986 403 l 944 0 "},"F":{"ha":965,"x_min":0,"x_max":0,"o":"m 56 28 l 139 28 l 167 56 l 167 958 l 139 986 l 56 986 l 56 1014 l 903 1014 l 944 625 l 921 619 l 736 986 l 472 986 l 444 958 l 444 521 l 625 521 l 715 750 l 736 750 l 736 264 l 715 264 l 625 493 l 444 493 l 444 56 l 472 28 l 681 28 l 681 0 l 56 0 "},"G":{"ha":1208,"x_min":0,"x_max":0,"o":"m 538 -28 b 56 514 242 -28 56 178 b 569 1042 56 842 251 1042 b 944 1014 689 1042 800 1014 l 972 1014 l 1019 628 l 990 625 b 653 1008 931 863 811 1008 b 361 514 474 1008 361 821 b 613 6 361 206 450 6 b 792 225 717 6 792 89 l 792 472 l 764 500 l 472 500 l 472 528 l 1181 528 l 1181 500 l 1097 500 l 1069 472 l 1069 83 b 838 32 1015 83 929 68 b 538 -28 749 -3 640 -28 "},"Ğ":{"ha":1208,"x_min":0,"x_max":0,"o":"m 408 1417 b 603 1263 408 1301 449 1263 b 797 1417 757 1263 797 1301 l 825 1417 b 603 1096 825 1215 757 1096 b 381 1417 449 1096 381 1215 l 408 1417 m 538 -28 b 56 514 242 -28 56 178 b 569 1042 56 842 251 1042 b 944 1014 689 1042 800 1014 l 972 1014 l 1019 628 l 990 625 b 653 1008 931 863 811 1008 b 361 514 474 1008 361 821 b 613 6 361 206 450 6 b 792 225 717 6 792 89 l 792 472 l 764 500 l 472 500 l 472 528 l 1181 528 l 1181 500 l 1097 500 l 1069 472 l 1069 83 b 838 32 1015 83 929 68 b 538 -28 749 -3 640 -28 "},"Ģ":{"ha":1208,"x_min":0,"x_max":0,"o":"m 538 -28 b 56 514 242 -28 56 178 b 569 1042 56 842 251 1042 b 944 1014 689 1042 800 1014 l 972 1014 l 1019 628 l 990 625 b 653 1008 931 863 811 1008 b 361 514 474 1008 361 821 b 613 6 361 206 450 6 b 792 225 717 6 792 89 l 792 472 l 764 500 l 472 500 l 472 528 l 1181 528 l 1181 500 l 1097 500 l 1069 472 l 1069 83 b 838 32 1015 83 929 68 b 538 -28 749 -3 640 -28 m 485 -375 b 672 -250 615 -364 672 -317 l 485 -250 l 485 -83 l 721 -83 l 721 -194 b 490 -403 721 -337 640 -390 "},"Ġ":{"ha":1208,"x_min":0,"x_max":0,"o":"m 464 1375 l 742 1375 l 742 1111 l 464 1111 m 538 -28 b 56 514 242 -28 56 178 b 569 1042 56 842 251 1042 b 944 1014 689 1042 800 1014 l 972 1014 l 1019 628 l 990 625 b 653 1008 931 863 811 1008 b 361 514 474 1008 361 821 b 613 6 361 206 450 6 b 792 225 717 6 792 89 l 792 472 l 764 500 l 472 500 l 472 528 l 1181 528 l 1181 500 l 1097 500 l 1069 472 l 1069 83 b 838 32 1015 83 929 68 b 538 -28 749 -3 640 -28 "},"H":{"ha":1319,"x_min":0,"x_max":0,"o":"m 56 28 l 167 28 l 194 56 l 194 958 l 167 986 l 56 986 l 56 1014 l 1264 1014 l 1264 986 l 1153 986 l 1125 958 l 1125 56 l 1153 28 l 1264 28 l 1264 0 l 56 0 m 847 542 l 847 958 l 819 986 l 500 986 l 472 958 l 472 542 m 819 28 l 847 56 l 847 514 l 472 514 l 472 56 l 500 28 "},"Ħ":{"ha":1321,"x_min":0,"x_max":0,"o":"m 1125 958 l 1125 778 l 1264 778 l 1264 750 l 1125 750 l 1125 56 l 1153 28 l 1264 28 l 1264 0 l 56 0 l 56 28 l 167 28 l 194 56 l 194 750 l 56 750 l 56 778 l 194 778 l 194 958 l 167 986 l 56 986 l 56 1014 l 1264 1014 l 1264 986 l 1153 986 m 847 778 l 847 958 l 819 986 l 500 986 l 472 958 l 472 778 m 847 750 l 472 750 l 472 542 l 847 542 m 847 514 l 472 514 l 472 56 l 500 28 l 819 28 l 847 56 "},"I":{"ha":667,"x_min":0,"x_max":0,"o":"m 56 28 l 167 28 l 194 56 l 194 958 l 167 986 l 56 986 l 56 1014 l 611 1014 l 611 986 l 500 986 l 472 958 l 472 56 l 500 28 l 611 28 l 611 0 l 56 0 "},"Ĳ":{"ha":1278,"x_min":0,"x_max":0,"o":"m 1222 986 l 1139 986 l 1111 958 l 1111 42 l 833 -250 b 694 -319 804 -282 751 -308 l 556 -347 l 583 -111 l 806 -111 l 833 -83 l 833 958 l 806 986 l 500 986 l 472 958 l 472 56 l 500 28 l 611 28 l 611 0 l 56 0 l 56 28 l 167 28 l 194 56 l 194 958 l 167 986 l 56 986 l 56 1014 l 1222 1014 "},"Í":{"ha":667,"x_min":0,"x_max":0,"o":"m 236 1111 l 451 1417 l 632 1417 l 632 1236 l 250 1093 m 56 28 l 167 28 l 194 56 l 194 958 l 167 986 l 56 986 l 56 1014 l 611 1014 l 611 986 l 500 986 l 472 958 l 472 56 l 500 28 l 611 28 l 611 0 l 56 0 "},"Î":{"ha":667,"x_min":0,"x_max":0,"o":"m 611 1097 l 333 1263 l 56 1097 l 42 1111 l 243 1417 l 424 1417 l 625 1111 m 56 28 l 167 28 l 194 56 l 194 958 l 167 986 l 56 986 l 56 1014 l 611 1014 l 611 986 l 500 986 l 472 958 l 472 56 l 500 28 l 611 28 l 611 0 l 56 0 "},"Ï":{"ha":667,"x_min":0,"x_max":0,"o":"m 28 1375 l 278 1375 l 278 1111 l 28 1111 m 389 1375 l 639 1375 l 639 1111 l 389 1111 m 56 28 l 167 28 l 194 56 l 194 958 l 167 986 l 56 986 l 56 1014 l 611 1014 l 611 986 l 500 986 l 472 958 l 472 56 l 500 28 l 611 28 l 611 0 l 56 0 "},"İ":{"ha":667,"x_min":0,"x_max":0,"o":"m 194 1375 l 472 1375 l 472 1111 l 194 1111 m 56 28 l 167 28 l 194 56 l 194 958 l 167 986 l 56 986 l 56 1014 l 611 1014 l 611 986 l 500 986 l 472 958 l 472 56 l 500 28 l 611 28 l 611 0 l 56 0 "},"Ì":{"ha":701,"x_min":0,"x_max":0,"o":"m 54 1236 l 54 1417 l 235 1417 l 450 1111 l 436 1093 m 90 28 l 201 28 l 229 56 l 229 958 l 201 986 l 90 986 l 90 1014 l 646 1014 l 646 986 l 535 986 l 507 958 l 507 56 l 535 28 l 646 28 l 646 0 l 90 0 "},"Ī":{"ha":667,"x_min":0,"x_max":0,"o":"m 111 1292 l 556 1292 l 556 1125 l 111 1125 m 56 28 l 167 28 l 194 56 l 194 958 l 167 986 l 56 986 l 56 1014 l 611 1014 l 611 986 l 500 986 l 472 958 l 472 56 l 500 28 l 611 28 l 611 0 l 56 0 "},"Į":{"ha":667,"x_min":0,"x_max":0,"o":"m 472 958 l 472 56 l 500 28 l 611 28 l 611 0 l 388 0 b 332 -132 351 -37 332 -60 b 418 -236 332 -201 378 -236 b 511 -181 461 -236 493 -212 l 525 -194 b 314 -361 503 -286 407 -361 b 151 -126 185 -361 119 -260 l 360 0 l 56 0 l 56 28 l 167 28 l 194 56 l 194 958 l 167 986 l 56 986 l 56 1014 l 611 1014 l 611 986 l 500 986 "},"Ĩ":{"ha":667,"x_min":0,"x_max":0,"o":"m 432 1124 b 306 1163 385 1124 349 1135 l 235 1207 b 136 1236 201 1228 172 1236 l 69 1131 l 56 1138 b 233 1361 78 1231 136 1361 b 351 1325 272 1361 307 1350 l 414 1288 b 529 1249 460 1260 493 1249 l 596 1354 l 610 1347 b 432 1124 588 1254 529 1124 m 56 28 l 167 28 l 194 56 l 194 958 l 167 986 l 56 986 l 56 1014 l 611 1014 l 611 986 l 500 986 l 472 958 l 472 56 l 500 28 l 611 28 l 611 0 l 56 0 "},"J":{"ha":611,"x_min":0,"x_max":0,"o":"m -83 -111 l 139 -111 l 167 -83 l 167 958 l 139 986 l 56 986 l 56 1014 l 556 1014 l 556 986 l 472 986 l 444 958 l 444 42 l 167 -250 b 28 -319 138 -282 85 -308 l -111 -347 "},"K":{"ha":1243,"x_min":0,"x_max":0,"o":"m 56 28 l 167 28 l 194 56 l 194 958 l 167 986 l 56 986 l 56 1014 l 1167 1014 l 1167 986 l 1025 986 l 772 765 l 1097 56 l 1139 28 l 1222 28 l 1222 0 l 56 0 m 951 958 l 938 986 l 500 986 l 472 958 l 472 540 m 778 28 l 792 56 l 571 589 l 472 504 l 472 56 l 500 28 "},"Ķ":{"ha":1243,"x_min":0,"x_max":0,"o":"m 56 28 l 167 28 l 194 56 l 194 958 l 167 986 l 56 986 l 56 1014 l 1167 1014 l 1167 986 l 1025 986 l 772 765 l 1097 56 l 1139 28 l 1222 28 l 1222 0 l 56 0 m 951 958 l 938 986 l 500 986 l 472 958 l 472 540 m 778 28 l 792 56 l 571 589 l 472 504 l 472 56 l 500 28 m 504 -375 b 692 -250 635 -364 692 -317 l 504 -250 l 504 -83 l 740 -83 l 740 -194 b 510 -403 740 -337 660 -390 "},"L":{"ha":924,"x_min":0,"x_max":0,"o":"m 56 28 l 167 28 l 194 56 l 194 958 l 167 986 l 56 986 l 56 1014 l 681 1014 l 681 986 l 500 986 l 472 958 l 472 56 l 500 28 l 667 28 l 879 407 l 903 403 l 861 0 l 56 0 "},"Ĺ":{"ha":924,"x_min":0,"x_max":0,"o":"m 268 1111 l 483 1417 l 664 1417 l 664 1236 l 282 1093 m 56 28 l 167 28 l 194 56 l 194 958 l 167 986 l 56 986 l 56 1014 l 681 1014 l 681 986 l 500 986 l 472 958 l 472 56 l 500 28 l 667 28 l 879 407 l 903 403 l 861 0 l 56 0 "},"Ľ":{"ha":997,"x_min":0,"x_max":0,"o":"m 56 28 l 167 28 l 194 56 l 194 958 l 167 986 l 56 986 l 56 1014 l 681 1014 l 681 986 l 500 986 l 472 958 l 472 56 l 500 28 l 667 28 l 879 407 l 903 403 l 861 0 l 56 0 m 710 542 b 907 792 838 586 913 694 l 719 792 l 719 1014 l 956 1014 l 956 833 b 719 514 956 676 865 554 "},"Ļ":{"ha":924,"x_min":0,"x_max":0,"o":"m 56 28 l 167 28 l 194 56 l 194 958 l 167 986 l 56 986 l 56 1014 l 681 1014 l 681 986 l 500 986 l 472 958 l 472 56 l 500 28 l 667 28 l 879 407 l 903 403 l 861 0 l 56 0 m 358 -375 b 546 -250 489 -364 546 -317 l 358 -250 l 358 -83 l 594 -83 l 594 -194 b 364 -403 594 -337 514 -390 "},"Ł":{"ha":924,"x_min":0,"x_max":0,"o":"m 903 403 l 861 0 l 56 0 l 56 28 l 167 28 l 194 56 l 194 460 l 67 393 l 56 418 l 194 490 l 194 958 l 167 986 l 56 986 l 56 1014 l 681 1014 l 681 986 l 500 986 l 472 958 l 472 633 l 753 779 l 764 754 l 472 603 l 472 56 l 500 28 l 667 28 l 879 407 "},"M":{"ha":1431,"x_min":0,"x_max":0,"o":"m 1236 958 l 1236 56 l 1264 28 l 1375 28 l 1375 0 l 76 0 l 76 28 l 201 28 l 229 56 l 229 958 l 201 986 l 76 986 l 76 1014 l 486 1014 l 701 306 l 715 306 l 956 1014 l 1375 1014 l 1375 986 l 1264 986 m 958 875 l 944 875 l 657 28 l 931 28 l 958 56 m 278 861 l 264 861 l 264 56 l 292 28 l 553 28 "},"N":{"ha":1215,"x_min":0,"x_max":0,"o":"m 56 28 l 181 28 l 208 56 l 208 958 l 181 986 l 56 986 l 56 1014 l 321 1014 l 965 419 l 979 419 l 979 958 l 951 986 l 639 986 l 639 1014 l 1167 1014 l 1167 986 l 1042 986 l 1014 958 l 1014 -14 l 1000 -14 l 257 667 l 243 667 l 243 56 l 271 28 l 583 28 l 583 0 l 56 0 "},"Ń":{"ha":1215,"x_min":0,"x_max":0,"o":"m 514 1111 l 729 1417 l 910 1417 l 910 1236 l 528 1093 m 56 28 l 181 28 l 208 56 l 208 958 l 181 986 l 56 986 l 56 1014 l 321 1014 l 965 419 l 979 419 l 979 958 l 951 986 l 639 986 l 639 1014 l 1167 1014 l 1167 986 l 1042 986 l 1014 958 l 1014 -14 l 1000 -14 l 257 667 l 243 667 l 243 56 l 271 28 l 583 28 l 583 0 l 56 0 "},"Ň":{"ha":1215,"x_min":0,"x_max":0,"o":"m 701 1097 l 521 1097 l 319 1403 l 333 1417 l 611 1251 l 889 1417 l 903 1403 m 56 28 l 181 28 l 208 56 l 208 958 l 181 986 l 56 986 l 56 1014 l 321 1014 l 965 419 l 979 419 l 979 958 l 951 986 l 639 986 l 639 1014 l 1167 1014 l 1167 986 l 1042 986 l 1014 958 l 1014 -14 l 1000 -14 l 257 667 l 243 667 l 243 56 l 271 28 l 583 28 l 583 0 l 56 0 "},"Ņ":{"ha":1215,"x_min":0,"x_max":0,"o":"m 56 28 l 181 28 l 208 56 l 208 958 l 181 986 l 56 986 l 56 1014 l 321 1014 l 965 419 l 979 419 l 979 958 l 951 986 l 639 986 l 639 1014 l 1167 1014 l 1167 986 l 1042 986 l 1014 958 l 1014 -14 l 1000 -14 l 257 667 l 243 667 l 243 56 l 271 28 l 583 28 l 583 0 l 56 0 m 493 -375 b 681 -250 624 -364 681 -317 l 493 -250 l 493 -83 l 729 -83 l 729 -194 b 499 -403 729 -337 649 -390 "},"Ŋ":{"ha":1222,"x_min":0,"x_max":0,"o":"m 675 -111 l 890 -111 b 985 0 967 -111 985 -94 l 257 667 l 243 667 l 243 56 l 271 28 l 583 28 l 583 0 l 56 0 l 56 28 l 181 28 l 208 56 l 208 958 l 181 986 l 56 986 l 56 1014 l 321 1014 l 965 419 l 979 419 l 979 958 l 951 986 l 639 986 l 639 1014 l 1167 1014 l 1167 986 l 1042 986 l 1014 958 l 1014 -14 b 758 -340 1014 -283 901 -332 l 647 -347 "},"Ñ":{"ha":1215,"x_min":0,"x_max":0,"o":"m 710 1124 b 583 1163 663 1124 626 1135 l 513 1207 b 414 1236 479 1228 450 1236 l 347 1131 l 333 1138 b 511 1361 356 1231 414 1361 b 629 1325 550 1361 585 1350 l 692 1288 b 807 1249 738 1260 771 1249 l 874 1354 l 888 1347 b 710 1124 865 1254 807 1124 m 56 28 l 181 28 l 208 56 l 208 958 l 181 986 l 56 986 l 56 1014 l 321 1014 l 965 419 l 979 419 l 979 958 l 951 986 l 639 986 l 639 1014 l 1167 1014 l 1167 986 l 1042 986 l 1014 958 l 1014 -14 l 1000 -14 l 257 667 l 243 667 l 243 56 l 271 28 l 583 28 l 583 0 l 56 0 "},"O":{"ha":1292,"x_min":0,"x_max":0,"o":"m 646 -28 b 56 507 292 -28 56 186 b 646 1042 56 828 292 1042 b 1236 507 1000 1042 1236 828 b 646 -28 1236 186 1000 -28 m 646 0 b 931 507 817 0 931 203 b 646 1014 931 811 817 1014 b 361 507 475 1014 361 811 b 646 0 361 203 475 0 "},"Ó":{"ha":1292,"x_min":0,"x_max":0,"o":"m 549 1111 l 764 1417 l 944 1417 l 944 1236 l 563 1093 m 646 -28 b 56 507 292 -28 56 186 b 646 1042 56 828 292 1042 b 1236 507 1000 1042 1236 828 b 646 -28 1236 186 1000 -28 m 646 0 b 931 507 817 0 931 203 b 646 1014 931 811 817 1014 b 361 507 475 1014 361 811 b 646 0 361 203 475 0 "},"Ô":{"ha":1292,"x_min":0,"x_max":0,"o":"m 924 1097 l 646 1263 l 368 1097 l 354 1111 l 556 1417 l 736 1417 l 938 1111 m 646 -28 b 56 507 292 -28 56 186 b 646 1042 56 828 292 1042 b 1236 507 1000 1042 1236 828 b 646 -28 1236 186 1000 -28 m 646 0 b 931 507 817 0 931 203 b 646 1014 931 811 817 1014 b 361 507 475 1014 361 811 b 646 0 361 203 475 0 "},"Ö":{"ha":1292,"x_min":0,"x_max":0,"o":"m 340 1375 l 590 1375 l 590 1111 l 340 1111 m 701 1375 l 951 1375 l 951 1111 l 701 1111 m 646 -28 b 56 507 292 -28 56 186 b 646 1042 56 828 292 1042 b 1236 507 1000 1042 1236 828 b 646 -28 1236 186 1000 -28 m 646 0 b 931 507 817 0 931 203 b 646 1014 931 811 817 1014 b 361 507 475 1014 361 811 b 646 0 361 203 475 0 "},"Ò":{"ha":1292,"x_min":0,"x_max":0,"o":"m 347 1236 l 347 1417 l 528 1417 l 743 1111 l 729 1093 m 646 -28 b 56 507 292 -28 56 186 b 646 1042 56 828 292 1042 b 1236 507 1000 1042 1236 828 b 646 -28 1236 186 1000 -28 m 646 0 b 931 507 817 0 931 203 b 646 1014 931 811 817 1014 b 361 507 475 1014 361 811 b 646 0 361 203 475 0 "},"Ő":{"ha":1292,"x_min":0,"x_max":0,"o":"m 419 1107 l 531 1417 l 711 1417 l 711 1236 l 433 1097 m 746 1107 l 857 1417 l 1038 1417 l 1038 1236 l 760 1097 m 646 -28 b 56 507 292 -28 56 186 b 646 1042 56 828 292 1042 b 1236 507 1000 1042 1236 828 b 646 -28 1236 186 1000 -28 m 646 0 b 931 507 817 0 931 203 b 646 1014 931 811 817 1014 b 361 507 475 1014 361 811 b 646 0 361 203 475 0 "},"Ō":{"ha":1292,"x_min":0,"x_max":0,"o":"m 424 1292 l 868 1292 l 868 1125 l 424 1125 m 646 -28 b 56 507 292 -28 56 186 b 646 1042 56 828 292 1042 b 1236 507 1000 1042 1236 828 b 646 -28 1236 186 1000 -28 m 646 0 b 931 507 817 0 931 203 b 646 1014 931 811 817 1014 b 361 507 475 1014 361 811 b 646 0 361 203 475 0 "},"Ø":{"ha":1292,"x_min":0,"x_max":0,"o":"m 1044 919 b 1236 507 1165 825 1236 682 b 646 -28 1236 186 1000 -28 b 253 90 488 -28 353 15 l 165 0 l 147 19 l 232 107 b 56 507 119 201 56 340 b 646 1042 56 828 292 1042 b 1024 935 796 1042 925 1003 l 1100 1014 l 1118 996 l 1044 919 m 361 507 b 389 271 361 419 371 339 l 889 793 b 646 1014 840 932 754 1014 b 361 507 475 1014 361 811 m 646 0 b 931 507 817 0 931 203 b 897 765 931 604 919 692 l 397 242 b 646 0 443 90 532 0 "},"Ǿ":{"ha":1292,"x_min":0,"x_max":0,"o":"m 563 1093 l 549 1111 l 764 1417 l 944 1417 l 944 1236 m 1044 919 b 1236 507 1165 825 1236 682 b 646 -28 1236 186 1000 -28 b 253 90 488 -28 353 15 l 165 0 l 147 19 l 232 107 b 56 507 119 201 56 340 b 646 1042 56 828 292 1042 b 1024 935 796 1042 925 1003 l 1100 1014 l 1118 996 l 1044 919 m 361 507 b 389 271 361 419 371 339 l 889 793 b 646 1014 840 932 754 1014 b 361 507 475 1014 361 811 m 646 0 b 931 507 817 0 931 203 b 897 765 931 604 919 692 l 397 242 b 646 0 443 90 532 0 "},"Õ":{"ha":1292,"x_min":0,"x_max":0,"o":"m 744 1124 b 618 1163 697 1124 661 1135 l 547 1207 b 449 1236 514 1228 485 1236 l 382 1131 l 368 1138 b 546 1361 390 1231 449 1361 b 664 1325 585 1361 619 1350 l 726 1288 b 842 1249 772 1260 806 1249 l 908 1354 l 922 1347 b 744 1124 900 1254 842 1124 m 646 -28 b 56 507 292 -28 56 186 b 646 1042 56 828 292 1042 b 1236 507 1000 1042 1236 828 b 646 -28 1236 186 1000 -28 m 646 0 b 931 507 817 0 931 203 b 646 1014 931 811 817 1014 b 361 507 475 1014 361 811 b 646 0 361 203 475 0 "},"Œ":{"ha":1792,"x_min":0,"x_max":0,"o":"m 1764 403 l 1722 0 l 931 0 l 931 263 b 563 -28 881 75 761 -28 b 56 507 243 -28 56 165 b 563 1042 56 849 243 1042 b 931 751 761 1042 881 939 l 931 1014 l 1681 1014 l 1722 625 l 1699 619 l 1514 986 l 1250 986 l 1222 958 l 1222 549 l 1389 549 l 1479 778 l 1500 778 l 1500 292 l 1479 292 l 1389 521 l 1222 521 l 1222 56 l 1250 28 l 1556 28 l 1740 408 m 646 25 b 931 507 828 25 931 196 b 646 989 931 818 828 989 b 361 507 464 989 361 818 b 646 25 361 196 464 25 "},"P":{"ha":1083,"x_min":0,"x_max":0,"o":"m 56 28 l 167 28 l 194 56 l 194 958 l 167 986 l 56 986 l 56 1014 l 653 1014 b 1042 736 894 1014 1042 908 b 653 458 1042 564 894 458 l 472 458 l 472 56 l 500 28 l 778 28 l 778 0 l 56 0 m 542 486 b 736 738 678 486 736 583 b 542 986 736 890 678 986 l 500 986 l 472 958 l 472 486 "},"Þ":{"ha":1083,"x_min":0,"x_max":0,"o":"m 56 28 l 167 28 l 194 56 l 194 958 l 167 986 l 56 986 l 56 1014 l 746 1014 l 746 986 l 500 985 l 472 957 l 472 792 l 653 792 b 1042 514 894 792 1042 686 b 653 236 1042 342 894 236 l 472 236 l 472 56 l 500 28 l 778 28 l 778 0 l 56 0 m 542 264 b 736 515 678 264 736 361 b 542 764 736 668 678 764 l 472 764 l 472 264 "},"Q":{"ha":1292,"x_min":0,"x_max":0,"o":"m 1236 507 b 661 -28 1236 190 1007 -22 b 728 -83 669 -65 692 -83 l 1033 -83 l 1061 -319 l 867 -312 b 639 -97 731 -308 656 -239 l 632 -28 b 56 507 286 -22 56 190 b 646 1042 56 828 292 1042 b 1236 507 1000 1042 1236 828 m 646 0 b 931 507 817 0 931 203 b 646 1014 931 811 817 1014 b 361 507 475 1014 361 811 b 646 0 361 203 475 0 "},"R":{"ha":1229,"x_min":0,"x_max":0,"o":"m 56 28 l 167 28 l 194 56 l 194 958 l 167 986 l 56 986 l 56 1014 l 681 1014 b 1056 758 906 1014 1056 911 b 806 514 1056 642 956 544 l 1097 28 l 1208 28 l 1208 0 l 56 0 m 569 528 b 750 756 678 528 750 619 b 569 986 750 894 678 986 l 500 986 l 472 958 l 472 528 m 789 28 l 556 500 l 472 500 l 472 56 l 500 28 "},"Ŕ":{"ha":1229,"x_min":0,"x_max":0,"o":"m 476 1111 l 692 1417 l 872 1417 l 872 1236 l 490 1093 m 56 28 l 167 28 l 194 56 l 194 958 l 167 986 l 56 986 l 56 1014 l 681 1014 b 1056 758 906 1014 1056 911 b 806 514 1056 642 956 544 l 1097 28 l 1208 28 l 1208 0 l 56 0 m 569 528 b 750 756 678 528 750 619 b 569 986 750 894 678 986 l 500 986 l 472 958 l 472 528 m 789 28 l 556 500 l 472 500 l 472 56 l 500 28 "},"Ř":{"ha":1229,"x_min":0,"x_max":0,"o":"m 664 1097 l 483 1097 l 282 1403 l 296 1417 l 574 1251 l 851 1417 l 865 1403 m 56 28 l 167 28 l 194 56 l 194 958 l 167 986 l 56 986 l 56 1014 l 681 1014 b 1056 758 906 1014 1056 911 b 806 514 1056 642 956 544 l 1097 28 l 1208 28 l 1208 0 l 56 0 m 569 528 b 750 756 678 528 750 619 b 569 986 750 894 678 986 l 500 986 l 472 958 l 472 528 m 789 28 l 556 500 l 472 500 l 472 56 l 500 28 "},"Ŗ":{"ha":1229,"x_min":0,"x_max":0,"o":"m 56 28 l 167 28 l 194 56 l 194 958 l 167 986 l 56 986 l 56 1014 l 681 1014 b 1056 758 906 1014 1056 911 b 806 514 1056 642 956 544 l 1097 28 l 1208 28 l 1208 0 l 56 0 m 569 528 b 750 756 678 528 750 619 b 569 986 750 894 678 986 l 500 986 l 472 958 l 472 528 m 789 28 l 556 500 l 472 500 l 472 56 l 500 28 m 497 -375 b 685 -250 628 -364 685 -317 l 497 -250 l 497 -83 l 733 -83 l 733 -194 b 503 -403 733 -337 653 -390 "},"S":{"ha":1040,"x_min":0,"x_max":0,"o":"m 504 -28 b 167 0 371 -28 286 0 l 125 0 l 83 442 l 111 444 b 478 0 164 169 293 0 b 667 171 593 0 667 67 b 500 375 667 263 618 322 l 311 460 b 83 764 150 532 83 621 b 472 1042 83 936 242 1042 b 806 1014 590 1042 671 1014 l 847 1014 l 889 643 l 861 639 b 514 1013 794 872 667 1013 b 347 864 413 1013 347 951 b 519 671 347 781 397 724 l 700 592 b 957 278 882 511 957 419 b 504 -28 957 89 776 -28 "},"Ś":{"ha":1040,"x_min":0,"x_max":0,"o":"m 424 1111 l 639 1417 l 819 1417 l 819 1236 l 438 1093 m 504 -28 b 167 0 371 -28 286 0 l 125 0 l 83 442 l 111 444 b 478 0 164 169 293 0 b 667 171 593 0 667 67 b 500 375 667 263 618 322 l 311 460 b 83 764 150 532 83 621 b 472 1042 83 936 242 1042 b 806 1014 590 1042 671 1014 l 847 1014 l 889 643 l 861 639 b 514 1013 794 872 667 1013 b 347 864 413 1013 347 951 b 519 671 347 781 397 724 l 700 592 b 957 278 882 511 957 419 b 504 -28 957 89 776 -28 "},"Š":{"ha":1040,"x_min":0,"x_max":0,"o":"m 611 1097 l 431 1097 l 229 1403 l 243 1417 l 521 1251 l 799 1417 l 813 1403 m 504 -28 b 167 0 371 -28 286 0 l 125 0 l 83 442 l 111 444 b 478 0 164 169 293 0 b 667 171 593 0 667 67 b 500 375 667 263 618 322 l 311 460 b 83 764 150 532 83 621 b 472 1042 83 936 242 1042 b 806 1014 590 1042 671 1014 l 847 1014 l 889 643 l 861 639 b 514 1013 794 872 667 1013 b 347 864 413 1013 347 951 b 519 671 347 781 397 724 l 700 592 b 957 278 882 511 957 419 b 504 -28 957 89 776 -28 "},"Ş":{"ha":1040,"x_min":0,"x_max":0,"o":"m 489 -28 l 467 -87 l 478 -101 b 722 -204 621 -83 722 -119 b 444 -319 722 -287 626 -319 l 346 -319 l 360 -236 l 551 -236 b 583 -172 572 -219 583 -199 b 458 -125 583 -128 551 -111 l 435 -97 l 463 -26 b 167 0 351 -22 274 0 l 125 0 l 83 442 l 111 444 b 478 0 164 169 293 0 b 667 171 593 0 667 67 b 500 375 667 263 618 322 l 311 460 b 83 764 150 532 83 621 b 472 1042 83 936 242 1042 b 806 1014 590 1042 671 1014 l 847 1014 l 889 643 l 861 639 b 514 1013 794 872 667 1013 b 347 864 413 1013 347 951 b 519 671 347 781 397 724 l 700 592 b 957 278 882 511 957 419 b 504 -28 957 89 776 -28 "},"Ș":{"ha":1040,"x_min":0,"x_max":0,"o":"m 504 -28 b 167 0 371 -28 286 0 l 125 0 l 83 442 l 111 444 b 478 0 164 169 293 0 b 667 171 593 0 667 67 b 500 375 667 263 618 322 l 311 460 b 83 764 150 532 83 621 b 472 1042 83 936 242 1042 b 806 1014 590 1042 671 1014 l 847 1014 l 889 643 l 861 639 b 514 1013 794 872 667 1013 b 347 864 413 1013 347 951 b 519 671 347 781 397 724 l 700 592 b 957 278 882 511 957 419 b 504 -28 957 89 776 -28 m 403 -375 b 590 -250 533 -364 590 -317 l 403 -250 l 403 -83 l 639 -83 l 639 -194 b 408 -403 639 -337 558 -390 "},"ẞ":{"ha":1226,"x_min":0,"x_max":0,"o":"m 793 -28 b 532 0 683 -28 601 0 l 518 0 l 490 292 l 518 294 b 758 0 553 113 669 0 b 865 206 836 0 865 99 b 535 588 865 467 746 579 l 535 603 l 761 868 b 579 1014 717 961 651 1014 b 403 694 467 1014 403 899 l 403 0 l 14 0 l 14 28 l 97 28 l 125 56 l 125 694 b 600 1042 125 917 296 1042 b 1083 889 831 1042 1006 986 l 799 588 l 799 574 b 1157 261 1028 536 1157 433 b 793 -28 1157 86 999 -28 "},"T":{"ha":1097,"x_min":0,"x_max":0,"o":"m 201 28 l 382 28 l 410 56 l 410 958 l 382 986 l 229 986 l 58 579 l 35 583 l 63 1014 l 1035 1014 l 1063 583 l 1039 579 l 868 986 l 715 986 l 688 958 l 688 56 l 715 28 l 896 28 l 896 0 l 201 0 "},"Ŧ":{"ha":1099,"x_min":0,"x_max":0,"o":"m 689 958 l 689 564 l 904 564 l 904 536 l 689 536 l 689 56 l 717 28 l 897 28 l 897 0 l 203 0 l 203 28 l 383 28 l 411 56 l 411 536 l 210 536 l 210 564 l 411 564 l 411 958 l 383 986 l 231 986 l 60 579 l 36 583 l 64 1014 l 1036 1014 l 1064 583 l 1040 579 l 869 986 l 717 986 "},"Ť":{"ha":1097,"x_min":0,"x_max":0,"o":"m 639 1097 l 458 1097 l 257 1403 l 271 1417 l 549 1251 l 826 1417 l 840 1403 m 201 28 l 382 28 l 410 56 l 410 958 l 382 986 l 229 986 l 58 579 l 35 583 l 63 1014 l 1035 1014 l 1063 583 l 1039 579 l 868 986 l 715 986 l 688 958 l 688 56 l 715 28 l 896 28 l 896 0 l 201 0 "},"Ţ":{"ha":1097,"x_min":0,"x_max":0,"o":"m 688 958 l 688 56 l 715 28 l 896 28 l 896 0 l 528 0 l 494 -87 l 506 -101 b 750 -204 649 -83 750 -119 b 472 -319 750 -287 654 -319 l 374 -319 l 388 -236 l 579 -236 b 611 -172 600 -219 611 -199 b 486 -125 611 -128 579 -111 l 463 -97 l 500 0 l 201 0 l 201 28 l 382 28 l 410 56 l 410 958 l 382 986 l 229 986 l 58 579 l 35 583 l 63 1014 l 1035 1014 l 1063 583 l 1039 579 l 868 986 l 715 986 "},"Ț":{"ha":1097,"x_min":0,"x_max":0,"o":"m 201 28 l 382 28 l 410 56 l 410 958 l 382 986 l 229 986 l 58 579 l 35 583 l 63 1014 l 1035 1014 l 1063 583 l 1039 579 l 868 986 l 715 986 l 688 958 l 688 56 l 715 28 l 896 28 l 896 0 l 201 0 m 431 -375 b 618 -250 561 -364 618 -317 l 431 -250 l 431 -83 l 667 -83 l 667 -194 b 436 -403 667 -337 586 -390 "},"U":{"ha":1194,"x_min":0,"x_max":0,"o":"m 681 -28 b 181 347 333 -28 181 108 l 181 958 l 153 986 l 42 986 l 42 1014 l 1153 1014 l 1153 986 l 1042 986 l 1014 958 l 1014 333 b 681 -28 1014 110 899 -28 m 694 0 b 982 333 872 0 982 126 l 982 958 l 954 986 l 486 986 l 458 958 l 458 347 b 694 0 458 132 539 0 "},"Ú":{"ha":1194,"x_min":0,"x_max":0,"o":"m 583 1111 l 799 1417 l 979 1417 l 979 1236 l 597 1093 m 681 -28 b 181 347 333 -28 181 108 l 181 958 l 153 986 l 42 986 l 42 1014 l 1153 1014 l 1153 986 l 1042 986 l 1014 958 l 1014 333 b 681 -28 1014 110 899 -28 m 694 0 b 982 333 872 0 982 126 l 982 958 l 954 986 l 486 986 l 458 958 l 458 347 b 694 0 458 132 539 0 "},"Û":{"ha":1194,"x_min":0,"x_max":0,"o":"m 958 1097 l 681 1263 l 403 1097 l 389 1111 l 590 1417 l 771 1417 l 972 1111 m 681 -28 b 181 347 333 -28 181 108 l 181 958 l 153 986 l 42 986 l 42 1014 l 1153 1014 l 1153 986 l 1042 986 l 1014 958 l 1014 333 b 681 -28 1014 110 899 -28 m 694 0 b 982 333 872 0 982 126 l 982 958 l 954 986 l 486 986 l 458 958 l 458 347 b 694 0 458 132 539 0 "},"Ü":{"ha":1194,"x_min":0,"x_max":0,"o":"m 375 1375 l 625 1375 l 625 1111 l 375 1111 m 736 1375 l 986 1375 l 986 1111 l 736 1111 m 681 -28 b 181 347 333 -28 181 108 l 181 958 l 153 986 l 42 986 l 42 1014 l 1153 1014 l 1153 986 l 1042 986 l 1014 958 l 1014 333 b 681 -28 1014 110 899 -28 m 694 0 b 982 333 872 0 982 126 l 982 958 l 954 986 l 486 986 l 458 958 l 458 347 b 694 0 458 132 539 0 "},"Ù":{"ha":1194,"x_min":0,"x_max":0,"o":"m 382 1236 l 382 1417 l 563 1417 l 778 1111 l 764 1093 m 681 -28 b 181 347 333 -28 181 108 l 181 958 l 153 986 l 42 986 l 42 1014 l 1153 1014 l 1153 986 l 1042 986 l 1014 958 l 1014 333 b 681 -28 1014 110 899 -28 m 694 0 b 982 333 872 0 982 126 l 982 958 l 954 986 l 486 986 l 458 958 l 458 347 b 694 0 458 132 539 0 "},"Ű":{"ha":1194,"x_min":0,"x_max":0,"o":"m 454 1107 l 565 1417 l 746 1417 l 746 1236 l 468 1097 m 781 1107 l 892 1417 l 1072 1417 l 1072 1236 l 794 1097 m 681 -28 b 181 347 333 -28 181 108 l 181 958 l 153 986 l 42 986 l 42 1014 l 1153 1014 l 1153 986 l 1042 986 l 1014 958 l 1014 333 b 681 -28 1014 110 899 -28 m 694 0 b 982 333 872 0 982 126 l 982 958 l 954 986 l 486 986 l 458 958 l 458 347 b 694 0 458 132 539 0 "},"Ū":{"ha":1194,"x_min":0,"x_max":0,"o":"m 458 1292 l 903 1292 l 903 1125 l 458 1125 m 681 -28 b 181 347 333 -28 181 108 l 181 958 l 153 986 l 42 986 l 42 1014 l 1153 1014 l 1153 986 l 1042 986 l 1014 958 l 1014 333 b 681 -28 1014 110 899 -28 m 694 0 b 982 333 872 0 982 126 l 982 958 l 954 986 l 486 986 l 458 958 l 458 347 b 694 0 458 132 539 0 "},"Ų":{"ha":1194,"x_min":0,"x_max":0,"o":"m 1153 1014 l 1153 986 l 1042 986 l 1014 958 l 1014 333 b 831 0 1014 168 951 50 b 775 -132 794 -37 775 -60 b 861 -236 775 -201 821 -236 b 954 -181 904 -236 936 -212 l 968 -194 b 757 -361 946 -286 850 -361 b 594 -126 628 -361 563 -260 l 772 -18 b 681 -28 744 -25 714 -28 b 181 347 333 -28 181 108 l 181 958 l 153 986 l 42 986 l 42 1014 m 982 958 l 954 986 l 486 986 l 458 958 l 458 347 b 694 0 458 132 539 0 b 982 333 872 0 982 126 "},"Ů":{"ha":1194,"x_min":0,"x_max":0,"o":"m 681 1083 b 514 1251 588 1083 514 1157 b 681 1417 514 1343 588 1417 b 847 1251 774 1417 847 1343 b 681 1083 847 1157 774 1083 m 681 1110 b 821 1251 760 1110 821 1169 b 681 1390 821 1328 760 1390 b 540 1251 601 1390 540 1328 b 681 1110 540 1169 601 1110 m 681 -28 b 181 347 333 -28 181 108 l 181 958 l 153 986 l 42 986 l 42 1014 l 1153 1014 l 1153 986 l 1042 986 l 1014 958 l 1014 333 b 681 -28 1014 110 899 -28 m 694 0 b 982 333 872 0 982 126 l 982 958 l 954 986 l 486 986 l 458 958 l 458 347 b 694 0 458 132 539 0 "},"Ũ":{"ha":1194,"x_min":0,"x_max":0,"o":"m 779 1124 b 653 1163 732 1124 696 1135 l 582 1207 b 483 1236 549 1228 519 1236 l 417 1131 l 403 1138 b 581 1361 425 1231 483 1361 b 699 1325 619 1361 654 1350 l 761 1288 b 876 1249 807 1260 840 1249 l 943 1354 l 957 1347 b 779 1124 935 1254 876 1124 m 681 -28 b 181 347 333 -28 181 108 l 181 958 l 153 986 l 42 986 l 42 1014 l 1153 1014 l 1153 986 l 1042 986 l 1014 958 l 1014 333 b 681 -28 1014 110 899 -28 m 694 0 b 982 333 872 0 982 126 l 982 958 l 954 986 l 486 986 l 458 958 l 458 347 b 694 0 458 132 539 0 "},"V":{"ha":1181,"x_min":0,"x_max":0,"o":"m 136 986 l 21 986 l 21 1014 l 1160 1014 l 1160 986 l 1054 986 l 711 0 l 507 0 m 739 178 l 1011 958 l 983 986 l 465 986 l 438 958 l 725 178 "},"W":{"ha":1653,"x_min":0,"x_max":0,"o":"m 1632 986 l 1521 986 l 1226 0 l 1007 0 l 836 722 l 822 722 l 636 0 l 438 0 l 138 986 l 21 986 l 21 1014 l 1632 1014 m 856 986 l 465 986 l 438 958 l 644 222 l 658 222 m 1476 958 l 1449 986 l 1067 986 l 1243 222 l 1257 222 "},"Ẃ":{"ha":1653,"x_min":0,"x_max":0,"o":"m 854 1111 l 1069 1417 l 1250 1417 l 1250 1236 l 868 1093 m 1632 986 l 1521 986 l 1226 0 l 1007 0 l 836 722 l 822 722 l 636 0 l 438 0 l 138 986 l 21 986 l 21 1014 l 1632 1014 m 856 986 l 465 986 l 438 958 l 644 222 l 658 222 m 1476 958 l 1449 986 l 1067 986 l 1243 222 l 1257 222 "},"Ŵ":{"ha":1653,"x_min":0,"x_max":0,"o":"m 1229 1097 l 951 1263 l 674 1097 l 660 1111 l 861 1417 l 1042 1417 l 1243 1111 m 1632 986 l 1521 986 l 1226 0 l 1007 0 l 836 722 l 822 722 l 636 0 l 438 0 l 138 986 l 21 986 l 21 1014 l 1632 1014 m 856 986 l 465 986 l 438 958 l 644 222 l 658 222 m 1476 958 l 1449 986 l 1067 986 l 1243 222 l 1257 222 "},"Ẅ":{"ha":1653,"x_min":0,"x_max":0,"o":"m 646 1375 l 896 1375 l 896 1111 l 646 1111 m 1007 1375 l 1257 1375 l 1257 1111 l 1007 1111 m 1632 986 l 1521 986 l 1226 0 l 1007 0 l 836 722 l 822 722 l 636 0 l 438 0 l 138 986 l 21 986 l 21 1014 l 1632 1014 m 856 986 l 465 986 l 438 958 l 644 222 l 658 222 m 1476 958 l 1449 986 l 1067 986 l 1243 222 l 1257 222 "},"Ẁ":{"ha":1653,"x_min":0,"x_max":0,"o":"m 653 1236 l 653 1417 l 833 1417 l 1049 1111 l 1035 1093 m 1632 986 l 1521 986 l 1226 0 l 1007 0 l 836 722 l 822 722 l 636 0 l 438 0 l 138 986 l 21 986 l 21 1014 l 1632 1014 m 856 986 l 465 986 l 438 958 l 644 222 l 658 222 m 1476 958 l 1449 986 l 1067 986 l 1243 222 l 1257 222 "},"X":{"ha":1179,"x_min":0,"x_max":0,"o":"m 1158 28 l 1158 0 l 21 0 l 21 28 l 160 28 l 474 435 l 143 986 l 21 986 l 21 1014 l 1133 1014 l 1133 986 l 972 986 l 685 615 l 1036 28 m 479 958 l 669 640 l 915 958 l 901 986 l 493 986 m 700 56 l 488 410 l 217 56 l 231 28 l 686 28 "},"Y":{"ha":1181,"x_min":0,"x_max":0,"o":"m 313 28 l 424 28 l 451 56 l 451 403 l 160 958 l 132 986 l 21 986 l 21 1014 l 1160 1014 l 1160 986 l 1047 986 l 729 403 l 729 56 l 757 28 l 868 28 l 868 0 l 313 0 m 732 472 l 997 958 l 969 986 l 493 986 l 465 958 l 718 472 "},"Ý":{"ha":1181,"x_min":0,"x_max":0,"o":"m 590 1111 l 806 1417 l 986 1417 l 986 1236 l 604 1093 m 313 28 l 424 28 l 451 56 l 451 403 l 160 958 l 132 986 l 21 986 l 21 1014 l 1160 1014 l 1160 986 l 1047 986 l 729 403 l 729 56 l 757 28 l 868 28 l 868 0 l 313 0 m 732 472 l 997 958 l 969 986 l 493 986 l 465 958 l 718 472 "},"Ŷ":{"ha":1181,"x_min":0,"x_max":0,"o":"m 965 1097 l 688 1263 l 410 1097 l 396 1111 l 597 1417 l 778 1417 l 979 1111 m 313 28 l 424 28 l 451 56 l 451 403 l 160 958 l 132 986 l 21 986 l 21 1014 l 1160 1014 l 1160 986 l 1047 986 l 729 403 l 729 56 l 757 28 l 868 28 l 868 0 l 313 0 m 732 472 l 997 958 l 969 986 l 493 986 l 465 958 l 718 472 "},"Ÿ":{"ha":1181,"x_min":0,"x_max":0,"o":"m 382 1375 l 632 1375 l 632 1111 l 382 1111 m 743 1375 l 993 1375 l 993 1111 l 743 1111 m 313 28 l 424 28 l 451 56 l 451 403 l 160 958 l 132 986 l 21 986 l 21 1014 l 1160 1014 l 1160 986 l 1047 986 l 729 403 l 729 56 l 757 28 l 868 28 l 868 0 l 313 0 m 732 472 l 997 958 l 969 986 l 493 986 l 465 958 l 718 472 "},"Ỳ":{"ha":1181,"x_min":0,"x_max":0,"o":"m 389 1236 l 389 1417 l 569 1417 l 785 1111 l 771 1093 m 313 28 l 424 28 l 451 56 l 451 403 l 160 958 l 132 986 l 21 986 l 21 1014 l 1160 1014 l 1160 986 l 1047 986 l 729 403 l 729 56 l 757 28 l 868 28 l 868 0 l 313 0 m 732 472 l 997 958 l 969 986 l 493 986 l 465 958 l 718 472 "},"Ȳ":{"ha":1181,"x_min":0,"x_max":0,"o":"m 465 1292 l 910 1292 l 910 1125 l 465 1125 m 313 28 l 424 28 l 451 56 l 451 403 l 160 958 l 132 986 l 21 986 l 21 1014 l 1160 1014 l 1160 986 l 1047 986 l 729 403 l 729 56 l 757 28 l 868 28 l 868 0 l 313 0 m 732 472 l 997 958 l 969 986 l 493 986 l 465 958 l 718 472 "},"Z":{"ha":1028,"x_min":0,"x_max":0,"o":"m 28 14 l 647 986 l 278 986 l 79 550 l 56 556 l 97 1014 l 986 1014 l 986 1000 l 367 28 l 736 28 l 949 492 l 972 486 l 931 0 l 28 0 "},"Ź":{"ha":1028,"x_min":0,"x_max":0,"o":"m 417 1111 l 632 1417 l 813 1417 l 813 1236 l 431 1093 m 28 14 l 647 986 l 278 986 l 79 550 l 56 556 l 97 1014 l 986 1014 l 986 1000 l 367 28 l 736 28 l 949 492 l 972 486 l 931 0 l 28 0 "},"Ž":{"ha":1028,"x_min":0,"x_max":0,"o":"m 604 1097 l 424 1097 l 222 1403 l 236 1417 l 514 1251 l 792 1417 l 806 1403 m 28 14 l 647 986 l 278 986 l 79 550 l 56 556 l 97 1014 l 986 1014 l 986 1000 l 367 28 l 736 28 l 949 492 l 972 486 l 931 0 l 28 0 "},"Ż":{"ha":1028,"x_min":0,"x_max":0,"o":"m 375 1375 l 653 1375 l 653 1111 l 375 1111 m 28 14 l 647 986 l 278 986 l 79 550 l 56 556 l 97 1014 l 986 1014 l 986 1000 l 367 28 l 736 28 l 949 492 l 972 486 l 931 0 l 28 0 "},"a":{"ha":938,"x_min":0,"x_max":0,"o":"m 271 -14 b 42 135 131 -14 42 44 b 335 351 42 244 126 314 l 542 389 l 542 528 b 443 694 542 649 501 694 b 347 500 372 694 347 643 l 347 425 l 72 369 l 79 463 b 443 722 93 643 210 722 b 806 458 699 722 806 628 l 806 56 l 833 28 l 917 28 l 917 0 l 556 0 l 556 125 l 542 125 b 271 -14 504 36 408 -14 m 408 56 b 542 317 494 56 542 149 l 542 361 b 319 172 385 335 319 249 b 408 56 319 101 354 56 "},"á":{"ha":938,"x_min":0,"x_max":0,"o":"m 344 792 l 560 1097 l 740 1097 l 740 917 l 358 774 m 271 -14 b 42 135 131 -14 42 44 b 335 351 42 244 126 314 l 542 389 l 542 528 b 443 694 542 649 501 694 b 347 500 372 694 347 643 l 347 425 l 72 369 l 79 463 b 443 722 93 643 210 722 b 806 458 699 722 806 628 l 806 56 l 833 28 l 917 28 l 917 0 l 556 0 l 556 125 l 542 125 b 271 -14 504 36 408 -14 m 408 56 b 542 317 494 56 542 149 l 542 361 b 319 172 385 335 319 249 b 408 56 319 101 354 56 "},"ă":{"ha":938,"x_min":0,"x_max":0,"o":"m 247 1097 b 442 943 247 982 288 943 b 636 1097 596 943 636 982 l 664 1097 b 442 776 664 896 596 776 b 219 1097 288 776 219 896 l 247 1097 m 271 -14 b 42 135 131 -14 42 44 b 335 351 42 244 126 314 l 542 389 l 542 528 b 443 694 542 649 501 694 b 347 500 372 694 347 643 l 347 425 l 72 369 l 79 463 b 443 722 93 643 210 722 b 806 458 699 722 806 628 l 806 56 l 833 28 l 917 28 l 917 0 l 556 0 l 556 125 l 542 125 b 271 -14 504 36 408 -14 m 408 56 b 542 317 494 56 542 149 l 542 361 b 319 172 385 335 319 249 b 408 56 319 101 354 56 "},"â":{"ha":938,"x_min":0,"x_max":0,"o":"m 719 778 l 442 943 l 164 778 l 150 792 l 351 1097 l 532 1097 l 733 792 m 271 -14 b 42 135 131 -14 42 44 b 335 351 42 244 126 314 l 542 389 l 542 528 b 443 694 542 649 501 694 b 347 500 372 694 347 643 l 347 425 l 72 369 l 79 463 b 443 722 93 643 210 722 b 806 458 699 722 806 628 l 806 56 l 833 28 l 917 28 l 917 0 l 556 0 l 556 125 l 542 125 b 271 -14 504 36 408 -14 m 408 56 b 542 317 494 56 542 149 l 542 361 b 319 172 385 335 319 249 b 408 56 319 101 354 56 "},"ä":{"ha":938,"x_min":0,"x_max":0,"o":"m 136 1056 l 386 1056 l 386 792 l 136 792 m 497 1056 l 747 1056 l 747 792 l 497 792 m 271 -14 b 42 135 131 -14 42 44 b 335 351 42 244 126 314 l 542 389 l 542 528 b 443 694 542 649 501 694 b 347 500 372 694 347 643 l 347 425 l 72 369 l 79 463 b 443 722 93 643 210 722 b 806 458 699 722 806 628 l 806 56 l 833 28 l 917 28 l 917 0 l 556 0 l 556 125 l 542 125 b 271 -14 504 36 408 -14 m 408 56 b 542 317 494 56 542 149 l 542 361 b 319 172 385 335 319 249 b 408 56 319 101 354 56 "},"à":{"ha":938,"x_min":0,"x_max":0,"o":"m 143 917 l 143 1097 l 324 1097 l 539 792 l 525 774 m 271 -14 b 42 135 131 -14 42 44 b 335 351 42 244 126 314 l 542 389 l 542 528 b 443 694 542 649 501 694 b 347 500 372 694 347 643 l 347 425 l 72 369 l 79 463 b 443 722 93 643 210 722 b 806 458 699 722 806 628 l 806 56 l 833 28 l 917 28 l 917 0 l 556 0 l 556 125 l 542 125 b 271 -14 504 36 408 -14 m 408 56 b 542 317 494 56 542 149 l 542 361 b 319 172 385 335 319 249 b 408 56 319 101 354 56 "},"ā":{"ha":938,"x_min":0,"x_max":0,"o":"m 219 972 l 664 972 l 664 806 l 219 806 m 271 -14 b 42 135 131 -14 42 44 b 335 351 42 244 126 314 l 542 389 l 542 528 b 443 694 542 649 501 694 b 347 500 372 694 347 643 l 347 425 l 72 369 l 79 463 b 443 722 93 643 210 722 b 806 458 699 722 806 628 l 806 56 l 833 28 l 917 28 l 917 0 l 556 0 l 556 125 l 542 125 b 271 -14 504 36 408 -14 m 408 56 b 542 317 494 56 542 149 l 542 361 b 319 172 385 335 319 249 b 408 56 319 101 354 56 "},"ą":{"ha":938,"x_min":0,"x_max":0,"o":"m 736 0 b 681 -132 700 -37 681 -60 b 767 -236 681 -201 726 -236 b 860 -181 810 -236 842 -212 l 874 -194 b 663 -361 851 -286 756 -361 b 500 -126 533 -361 468 -260 l 708 0 l 556 0 l 556 125 l 542 125 b 271 -14 504 36 408 -14 b 42 135 131 -14 42 44 b 335 351 42 244 126 314 l 542 389 l 542 528 b 443 694 542 649 501 694 b 347 500 372 694 347 643 l 347 425 l 72 369 l 79 463 b 443 722 93 643 210 722 b 806 458 699 722 806 628 l 806 56 l 833 28 l 917 28 l 917 0 m 542 361 b 319 172 385 335 319 249 b 408 56 319 101 354 56 b 542 317 494 56 542 149 "},"å":{"ha":938,"x_min":0,"x_max":0,"o":"m 442 764 b 275 932 349 764 275 838 b 442 1097 275 1024 349 1097 b 608 932 535 1097 608 1024 b 442 764 608 838 535 764 m 442 790 b 582 932 521 790 582 850 b 442 1071 582 1008 521 1071 b 301 932 363 1071 301 1008 b 442 790 301 850 363 790 m 271 -14 b 42 135 131 -14 42 44 b 335 351 42 244 126 314 l 542 389 l 542 528 b 443 694 542 649 501 694 b 347 500 372 694 347 643 l 347 425 l 72 369 l 79 463 b 443 722 93 643 210 722 b 806 458 699 722 806 628 l 806 56 l 833 28 l 917 28 l 917 0 l 556 0 l 556 125 l 542 125 b 271 -14 504 36 408 -14 m 408 56 b 542 317 494 56 542 149 l 542 361 b 319 172 385 335 319 249 b 408 56 319 101 354 56 "},"ǻ":{"ha":938,"x_min":0,"x_max":0,"o":"m 297 1129 l 519 1388 l 701 1388 l 701 1222 l 311 1106 m 442 764 b 275 932 349 764 275 838 b 442 1097 275 1024 349 1097 b 608 932 535 1097 608 1024 b 442 764 608 838 535 764 m 442 790 b 582 932 521 790 582 850 b 442 1071 582 1008 521 1071 b 301 932 363 1071 301 1008 b 442 790 301 850 363 790 m 271 -14 b 42 135 131 -14 42 44 b 335 351 42 244 126 314 l 542 389 l 542 528 b 443 694 542 649 501 694 b 347 500 372 694 347 643 l 347 425 l 72 369 l 79 463 b 443 722 93 643 210 722 b 806 458 699 722 806 628 l 806 56 l 833 28 l 917 28 l 917 0 l 556 0 l 556 125 l 542 125 b 271 -14 504 36 408 -14 m 408 56 b 542 317 494 56 542 149 l 542 361 b 319 172 385 335 319 249 b 408 56 319 101 354 56 "},"ã":{"ha":938,"x_min":0,"x_max":0,"o":"m 540 804 b 414 843 493 804 457 815 l 343 888 b 244 917 310 908 281 917 l 178 811 l 164 818 b 342 1042 186 911 244 1042 b 460 1006 381 1042 415 1031 l 522 968 b 638 929 568 940 601 929 l 704 1035 l 718 1028 b 540 804 696 935 638 804 m 271 -14 b 42 135 131 -14 42 44 b 335 351 42 244 126 314 l 542 389 l 542 528 b 443 694 542 649 501 694 b 347 500 372 694 347 643 l 347 425 l 72 369 l 79 463 b 443 722 93 643 210 722 b 806 458 699 722 806 628 l 806 56 l 833 28 l 917 28 l 917 0 l 556 0 l 556 125 l 542 125 b 271 -14 504 36 408 -14 m 408 56 b 542 317 494 56 542 149 l 542 361 b 319 172 385 335 319 249 b 408 56 319 101 354 56 "},"æ":{"ha":1361,"x_min":0,"x_max":0,"o":"m 271 -14 b 42 135 131 -14 42 44 b 335 351 42 244 126 314 l 542 389 l 542 528 b 443 694 542 649 501 694 b 347 500 372 694 347 643 l 347 425 l 72 369 l 79 463 b 443 722 93 643 210 722 b 678 658 539 722 619 700 b 933 722 743 700 835 722 b 1306 417 1161 722 1306 615 l 1264 375 l 792 375 l 792 343 b 1029 42 792 167 879 42 b 1293 324 1172 42 1268 146 l 1319 319 b 933 -14 1293 101 1182 -14 b 579 213 747 -14 636 67 l 565 213 b 271 -14 531 13 408 -14 m 1000 403 l 1028 431 b 917 694 1028 622 983 694 b 793 403 846 694 800 613 m 408 56 b 542 317 494 56 542 149 l 542 361 b 319 172 385 335 319 249 b 408 56 319 101 354 56 "},"ǽ":{"ha":1361,"x_min":0,"x_max":0,"o":"m 574 792 l 789 1097 l 969 1097 l 969 917 l 588 774 m 271 -14 b 42 135 131 -14 42 44 b 335 351 42 244 126 314 l 542 389 l 542 528 b 443 694 542 649 501 694 b 347 500 372 694 347 643 l 347 425 l 72 369 l 79 463 b 443 722 93 643 210 722 b 678 658 539 722 619 700 b 933 722 743 700 835 722 b 1306 417 1161 722 1306 615 l 1264 375 l 792 375 l 792 343 b 1029 42 792 167 879 42 b 1293 324 1172 42 1268 146 l 1319 319 b 933 -14 1293 101 1182 -14 b 579 213 747 -14 636 67 l 565 213 b 271 -14 531 13 408 -14 m 1000 403 l 1028 431 b 917 694 1028 622 983 694 b 793 403 846 694 800 613 m 408 56 b 542 317 494 56 542 149 l 542 361 b 319 172 385 335 319 249 b 408 56 319 101 354 56 "},"b":{"ha":917,"x_min":0,"x_max":0,"o":"m 556 -14 b 333 83 456 -14 378 14 b 111 0 263 83 178 51 l 83 0 l 83 986 l -28 986 l -28 1014 b 347 1083 86 1014 228 1040 l 347 625 l 361 625 b 557 722 394 685 456 722 b 875 351 751 722 875 582 b 556 -14 875 117 743 -14 m 463 39 b 597 347 560 39 597 167 b 465 658 597 528 560 658 b 347 450 392 658 347 579 l 347 178 b 463 39 347 99 393 39 "},"c":{"ha":828,"x_min":0,"x_max":0,"o":"m 428 -14 b 42 350 179 -14 42 117 b 419 722 42 586 183 722 b 681 694 524 722 557 694 l 708 694 l 739 421 l 708 417 b 490 688 676 585 590 688 b 319 381 383 688 319 576 b 525 44 319 164 393 44 b 744 311 654 44 732 140 l 772 306 b 428 -14 760 100 650 -14 "},"ć":{"ha":828,"x_min":0,"x_max":0,"o":"m 319 792 l 535 1097 l 715 1097 l 715 917 l 333 774 m 428 -14 b 42 350 179 -14 42 117 b 419 722 42 586 183 722 b 681 694 524 722 557 694 l 708 694 l 739 421 l 708 417 b 490 688 676 585 590 688 b 319 381 383 688 319 576 b 525 44 319 164 393 44 b 744 311 654 44 732 140 l 772 306 b 428 -14 760 100 650 -14 "},"č":{"ha":828,"x_min":0,"x_max":0,"o":"m 507 778 l 326 778 l 125 1083 l 139 1097 l 417 932 l 694 1097 l 708 1083 m 428 -14 b 42 350 179 -14 42 117 b 419 722 42 586 183 722 b 681 694 524 722 557 694 l 708 694 l 739 421 l 708 417 b 490 688 676 585 590 688 b 319 381 383 688 319 576 b 525 44 319 164 393 44 b 744 311 654 44 732 140 l 772 306 b 428 -14 760 100 650 -14 "},"ç":{"ha":828,"x_min":0,"x_max":0,"o":"m 418 -14 l 390 -87 l 401 -101 b 646 -204 544 -83 646 -119 b 368 -319 646 -287 550 -319 l 269 -319 l 283 -236 l 475 -236 b 507 -172 496 -219 507 -199 b 382 -125 507 -128 475 -111 l 358 -97 l 390 -12 b 42 350 165 0 42 129 b 419 722 42 586 183 722 b 681 694 524 722 557 694 l 708 694 l 739 421 l 708 417 b 490 688 676 585 590 688 b 319 381 383 688 319 576 b 525 44 319 164 393 44 b 744 311 654 44 732 140 l 772 306 b 428 -14 760 100 650 -14 "},"ċ":{"ha":828,"x_min":0,"x_max":0,"o":"m 278 1056 l 556 1056 l 556 792 l 278 792 m 428 -14 b 42 350 179 -14 42 117 b 419 722 42 586 183 722 b 681 694 524 722 557 694 l 708 694 l 739 421 l 708 417 b 490 688 676 585 590 688 b 319 381 383 688 319 576 b 525 44 319 164 393 44 b 744 311 654 44 732 140 l 772 306 b 428 -14 760 100 650 -14 "},"d":{"ha":1000,"x_min":0,"x_max":0,"o":"m 972 28 l 972 0 l 597 0 l 597 90 l 583 90 b 368 -14 543 14 464 -14 b 42 347 181 -14 42 133 b 372 722 42 575 181 722 b 574 640 456 722 532 692 l 583 640 l 583 986 l 403 986 l 403 1014 b 847 1083 558 1014 728 1040 l 847 56 l 875 28 m 583 463 b 463 671 583 592 538 671 b 319 347 361 671 319 528 b 458 42 319 167 358 42 b 583 250 536 42 583 113 "},"ð":{"ha":886,"x_min":0,"x_max":0,"o":"m 571 904 b 844 389 764 746 844 551 b 443 -28 844 114 692 -28 b 42 347 193 -28 42 115 b 388 722 42 581 194 722 b 586 635 475 722 547 683 l 597 640 b 494 876 588 721 550 803 l 229 779 l 219 806 l 475 899 b 311 1032 429 951 374 999 l 322 1054 b 544 924 408 1017 482 972 l 711 985 l 721 958 l 571 904 m 443 0 b 567 347 532 0 567 97 b 443 686 567 597 532 686 b 319 347 354 686 319 597 b 443 0 319 97 354 0 "},"ď":{"ha":1199,"x_min":0,"x_max":0,"o":"m 972 28 l 972 0 l 597 0 l 597 90 l 583 90 b 368 -14 543 14 464 -14 b 42 347 181 -14 42 133 b 372 722 42 575 181 722 b 574 640 456 722 532 692 l 583 640 l 583 986 l 403 986 l 403 1014 b 847 1083 558 1014 728 1040 l 847 56 l 875 28 m 911 542 b 1108 792 1039 586 1114 694 l 921 792 l 921 1014 l 1157 1014 l 1157 833 b 921 514 1157 676 1067 554 m 583 463 b 463 671 583 592 538 671 b 319 347 361 671 319 528 b 458 42 319 167 358 42 b 583 250 536 42 583 113 "},"đ":{"ha":999,"x_min":0,"x_max":0,"o":"m 846 814 l 846 56 l 874 28 l 971 28 l 971 0 l 596 0 l 596 90 l 582 90 b 367 -14 542 14 463 -14 b 40 347 179 -14 40 133 b 371 722 40 575 179 722 b 572 640 454 722 531 692 l 582 640 l 582 814 l 351 814 l 351 842 l 582 842 l 582 986 l 401 986 l 401 1014 b 846 1083 557 1014 726 1040 l 846 842 l 971 842 l 971 814 m 582 463 b 461 671 582 592 536 671 b 318 347 360 671 318 528 b 457 42 318 167 357 42 b 582 250 535 42 582 113 "},"e":{"ha":889,"x_min":0,"x_max":0,"o":"m 461 -14 b 42 347 200 -14 42 129 b 461 722 42 579 199 722 b 833 417 689 722 833 615 l 792 375 l 319 375 l 319 343 b 557 42 319 181 407 42 b 821 322 700 42 803 167 l 847 319 b 461 -14 821 115 710 -14 m 528 403 l 556 431 b 444 694 556 622 511 694 b 321 403 374 694 328 613 "},"é":{"ha":889,"x_min":0,"x_max":0,"o":"m 364 792 l 579 1097 l 760 1097 l 760 917 l 378 774 m 461 -14 b 42 347 200 -14 42 129 b 461 722 42 579 199 722 b 833 417 689 722 833 615 l 792 375 l 319 375 l 319 343 b 557 42 319 181 407 42 b 821 322 700 42 803 167 l 847 319 b 461 -14 821 115 710 -14 m 528 403 l 556 431 b 444 694 556 622 511 694 b 321 403 374 694 328 613 "},"ě":{"ha":889,"x_min":0,"x_max":0,"o":"m 551 778 l 371 778 l 169 1083 l 183 1097 l 461 932 l 739 1097 l 753 1083 m 461 -14 b 42 347 200 -14 42 129 b 461 722 42 579 199 722 b 833 417 689 722 833 615 l 792 375 l 319 375 l 319 343 b 557 42 319 181 407 42 b 821 322 700 42 803 167 l 847 319 b 461 -14 821 115 710 -14 m 528 403 l 556 431 b 444 694 556 622 511 694 b 321 403 374 694 328 613 "},"ê":{"ha":889,"x_min":0,"x_max":0,"o":"m 739 778 l 461 943 l 183 778 l 169 792 l 371 1097 l 551 1097 l 753 792 m 461 -14 b 42 347 200 -14 42 129 b 461 722 42 579 199 722 b 833 417 689 722 833 615 l 792 375 l 319 375 l 319 343 b 557 42 319 181 407 42 b 821 322 700 42 803 167 l 847 319 b 461 -14 821 115 710 -14 m 528 403 l 556 431 b 444 694 556 622 511 694 b 321 403 374 694 328 613 "},"ë":{"ha":889,"x_min":0,"x_max":0,"o":"m 156 1056 l 406 1056 l 406 792 l 156 792 m 517 1056 l 767 1056 l 767 792 l 517 792 m 461 -14 b 42 347 200 -14 42 129 b 461 722 42 579 199 722 b 833 417 689 722 833 615 l 792 375 l 319 375 l 319 343 b 557 42 319 181 407 42 b 821 322 700 42 803 167 l 847 319 b 461 -14 821 115 710 -14 m 528 403 l 556 431 b 444 694 556 622 511 694 b 321 403 374 694 328 613 "},"ė":{"ha":889,"x_min":0,"x_max":0,"o":"m 322 1056 l 600 1056 l 600 792 l 322 792 m 461 -14 b 42 347 200 -14 42 129 b 461 722 42 579 199 722 b 833 417 689 722 833 615 l 792 375 l 319 375 l 319 343 b 557 42 319 181 407 42 b 821 322 700 42 803 167 l 847 319 b 461 -14 821 115 710 -14 m 528 403 l 556 431 b 444 694 556 622 511 694 b 321 403 374 694 328 613 "},"è":{"ha":889,"x_min":0,"x_max":0,"o":"m 163 917 l 163 1097 l 343 1097 l 558 792 l 544 774 m 461 -14 b 42 347 200 -14 42 129 b 461 722 42 579 199 722 b 833 417 689 722 833 615 l 792 375 l 319 375 l 319 343 b 557 42 319 181 407 42 b 821 322 700 42 803 167 l 847 319 b 461 -14 821 115 710 -14 m 528 403 l 556 431 b 444 694 556 622 511 694 b 321 403 374 694 328 613 "},"ē":{"ha":889,"x_min":0,"x_max":0,"o":"m 239 972 l 683 972 l 683 806 l 239 806 m 461 -14 b 42 347 200 -14 42 129 b 461 722 42 579 199 722 b 833 417 689 722 833 615 l 792 375 l 319 375 l 319 343 b 557 42 319 181 407 42 b 821 322 700 42 803 167 l 847 319 b 461 -14 821 115 710 -14 m 528 403 l 556 431 b 444 694 556 622 511 694 b 321 403 374 694 328 613 "},"ę":{"ha":889,"x_min":0,"x_max":0,"o":"m 461 -14 b 42 347 200 -14 42 129 b 461 722 42 579 199 722 b 833 417 689 722 833 615 l 792 375 l 319 375 l 319 343 b 557 42 319 181 407 42 b 821 322 700 42 803 167 l 847 319 b 461 -14 821 115 710 -14 m 528 403 l 556 431 b 444 694 556 622 511 694 b 321 403 374 694 328 613 m 546 -361 b 383 -126 417 -361 351 -260 l 592 0 l 619 0 b 564 -132 583 -37 564 -60 b 650 -236 564 -201 610 -236 b 743 -181 693 -236 725 -212 l 757 -194 b 546 -361 735 -286 639 -361 "},"f":{"ha":667,"x_min":0,"x_max":0,"o":"m 28 28 l 111 28 l 139 56 l 139 667 l 28 667 l 28 694 l 139 694 l 417 986 b 583 1083 482 1054 521 1076 l 708 1097 l 681 861 l 431 861 l 403 833 l 403 694 l 625 694 l 625 667 l 403 667 l 403 56 l 431 28 l 625 28 l 625 0 l 28 0 "},"g":{"ha":993,"x_min":0,"x_max":0,"o":"m 475 -347 b 28 -139 210 -347 40 -268 l 21 -69 l 285 -97 l 285 -139 b 483 -319 285 -251 361 -319 b 651 -204 590 -319 651 -278 b 485 -79 651 -139 592 -93 l 289 -53 b 63 236 117 -29 63 72 l 285 250 l 285 264 b 63 472 147 286 63 365 b 438 722 63 628 204 722 b 743 632 574 722 679 690 b 854 813 744 739 786 807 l 951 819 l 938 625 l 771 625 l 760 614 b 813 472 794 576 813 528 b 439 236 813 325 678 249 l 285 229 b 378 164 288 194 321 171 l 585 139 b 901 -92 781 115 901 51 b 475 -347 901 -249 743 -347 m 438 264 b 535 486 513 264 535 350 b 438 694 535 614 513 694 b 340 486 363 694 340 614 b 438 264 340 350 363 264 "},"ğ":{"ha":993,"x_min":0,"x_max":0,"o":"m 243 1097 b 438 943 243 982 283 943 b 632 1097 592 943 632 982 l 660 1097 b 438 776 660 896 592 776 b 215 1097 283 776 215 896 l 243 1097 m 475 -347 b 28 -139 210 -347 40 -268 l 21 -69 l 285 -97 l 285 -139 b 483 -319 285 -251 361 -319 b 651 -204 590 -319 651 -278 b 485 -79 651 -139 592 -93 l 289 -53 b 63 236 117 -29 63 72 l 285 250 l 285 264 b 63 472 147 286 63 365 b 438 722 63 628 204 722 b 743 632 574 722 679 690 b 854 813 744 739 786 807 l 951 819 l 938 625 l 771 625 l 760 614 b 813 472 794 576 813 528 b 439 236 813 325 678 249 l 285 229 b 378 164 288 194 321 171 l 585 139 b 901 -92 781 115 901 51 b 475 -347 901 -249 743 -347 m 438 264 b 535 486 513 264 535 350 b 438 694 535 614 513 694 b 340 486 363 694 340 614 b 438 264 340 350 363 264 "},"ģ":{"ha":993,"x_min":0,"x_max":0,"o":"m 319 917 b 550 1139 319 1060 400 1113 l 556 1111 b 368 972 425 1086 368 1028 l 556 972 l 556 778 l 319 778 m 475 -347 b 28 -139 210 -347 40 -268 l 21 -69 l 285 -97 l 285 -139 b 483 -319 285 -251 361 -319 b 651 -204 590 -319 651 -278 b 485 -79 651 -139 592 -93 l 289 -53 b 63 236 117 -29 63 72 l 285 250 l 285 264 b 63 472 147 286 63 365 b 438 722 63 628 204 722 b 743 632 574 722 679 690 b 854 813 744 739 786 807 l 951 819 l 938 625 l 771 625 l 760 614 b 813 472 794 576 813 528 b 439 236 813 325 678 249 l 285 229 b 378 164 288 194 321 171 l 585 139 b 901 -92 781 115 901 51 b 475 -347 901 -249 743 -347 m 438 264 b 535 486 513 264 535 350 b 438 694 535 614 513 694 b 340 486 363 694 340 614 b 438 264 340 350 363 264 "},"ġ":{"ha":993,"x_min":0,"x_max":0,"o":"m 299 1056 l 576 1056 l 576 792 l 299 792 m 475 -347 b 28 -139 210 -347 40 -268 l 21 -69 l 285 -97 l 285 -139 b 483 -319 285 -251 361 -319 b 651 -204 590 -319 651 -278 b 485 -79 651 -139 592 -93 l 289 -53 b 63 236 117 -29 63 72 l 285 250 l 285 264 b 63 472 147 286 63 365 b 438 722 63 628 204 722 b 743 632 574 722 679 690 b 854 813 744 739 786 807 l 951 819 l 938 625 l 771 625 l 760 614 b 813 472 794 576 813 528 b 439 236 813 325 678 249 l 285 229 b 378 164 288 194 321 171 l 585 139 b 901 -92 781 115 901 51 b 475 -347 901 -249 743 -347 m 438 264 b 535 486 513 264 535 350 b 438 694 535 614 513 694 b 340 486 363 694 340 614 b 438 264 340 350 363 264 "},"h":{"ha":1014,"x_min":0,"x_max":0,"o":"m 28 28 l 111 28 l 139 56 l 139 986 l 28 986 l 28 1014 b 403 1083 132 1014 283 1040 l 403 597 l 417 597 b 647 722 461 675 546 722 b 889 472 790 722 889 628 l 889 56 l 917 28 l 986 28 l 986 0 l 28 0 m 597 28 l 625 56 l 625 486 b 526 639 625 581 586 639 b 403 444 458 639 403 565 l 403 56 l 431 28 "},"ħ":{"ha":1014,"x_min":0,"x_max":0,"o":"m 986 28 l 986 0 l 28 0 l 28 28 l 111 28 l 139 56 l 139 842 l 28 842 l 28 869 l 139 869 l 139 986 l 28 986 l 28 1014 b 403 1083 132 1014 283 1040 l 403 869 l 647 869 l 647 842 l 403 842 l 403 597 l 417 597 b 647 722 461 675 546 722 b 889 472 790 722 889 628 l 889 56 l 917 28 m 625 486 b 526 639 625 581 586 639 b 403 444 458 639 403 565 l 403 56 l 431 28 l 597 28 l 625 56 "},"i":{"ha":542,"x_min":0,"x_max":0,"o":"m 125 1097 l 403 1097 l 403 833 l 125 833 m 28 28 l 111 28 l 139 56 l 139 667 l 42 667 l 42 694 b 403 722 147 694 293 688 l 403 56 l 431 28 l 514 28 l 514 0 l 28 0 "},"ı":{"ha":542,"x_min":0,"x_max":0,"o":"m 28 28 l 111 28 l 139 56 l 139 667 l 42 667 l 42 694 b 403 722 147 694 293 688 l 403 56 l 431 28 l 514 28 l 514 0 l 28 0 "},"í":{"ha":542,"x_min":0,"x_max":0,"o":"m 160 792 l 292 1096 l 474 1096 l 474 917 l 172 778 m 28 28 l 111 28 l 139 56 l 139 667 l 42 667 l 42 694 b 403 722 147 694 293 688 l 403 56 l 431 28 l 514 28 l 514 0 l 28 0 "},"î":{"ha":542,"x_min":0,"x_max":0,"o":"m 476 778 l 269 943 l 67 778 l 49 793 l 181 1097 l 363 1097 l 494 793 m 28 28 l 111 28 l 139 56 l 139 667 l 42 667 l 42 694 b 403 722 147 694 293 688 l 403 56 l 431 28 l 514 28 l 514 0 l 28 0 "},"ï":{"ha":542,"x_min":0,"x_max":0,"o":"m 35 1097 l 243 1097 l 243 833 l 35 833 m 299 1097 l 507 1097 l 507 833 l 299 833 m 28 28 l 111 28 l 139 56 l 139 667 l 42 667 l 42 694 b 403 722 147 694 293 688 l 403 56 l 431 28 l 514 28 l 514 0 l 28 0 "},"ì":{"ha":542,"x_min":0,"x_max":0,"o":"m 50 917 l 50 1096 l 232 1096 l 364 792 l 351 778 m 28 28 l 111 28 l 139 56 l 139 667 l 42 667 l 42 694 b 403 722 147 694 293 688 l 403 56 l 431 28 l 514 28 l 514 0 l 28 0 "},"ĳ":{"ha":1000,"x_min":0,"x_max":0,"o":"m 125 1097 l 403 1097 l 403 833 l 125 833 m 639 1097 l 917 1097 l 917 833 l 639 833 m 28 28 l 111 28 l 139 56 l 139 667 l 42 667 l 42 694 b 403 722 147 694 293 688 l 403 56 l 431 28 l 514 28 l 514 0 l 28 0 m 431 -111 l 625 -111 l 653 -83 l 653 667 l 542 667 l 542 694 b 917 722 665 694 808 688 l 917 0 l 681 -250 b 542 -319 651 -282 599 -308 l 403 -347 "},"ī":{"ha":542,"x_min":0,"x_max":0,"o":"m 49 972 l 465 972 l 465 806 l 49 806 m 28 28 l 111 28 l 139 56 l 139 667 l 42 667 l 42 694 b 403 722 147 694 293 688 l 403 56 l 431 28 l 514 28 l 514 0 l 28 0 "},"į":{"ha":542,"x_min":0,"x_max":0,"o":"m 403 833 l 125 833 l 125 1097 l 403 1097 m 331 0 b 275 -132 294 -37 275 -60 b 361 -236 275 -201 321 -236 b 454 -181 404 -236 436 -212 l 468 -194 b 257 -361 446 -286 350 -361 b 94 -126 128 -361 63 -260 l 303 0 l 28 0 l 28 28 l 111 28 l 139 56 l 139 667 l 42 667 l 42 694 b 403 722 147 694 293 688 l 403 56 l 431 28 l 514 28 l 514 0 "},"ĩ":{"ha":542,"x_min":0,"x_max":0,"o":"m 369 804 b 243 843 322 804 286 815 l 172 888 b 88 917 139 908 124 917 l 35 811 l 21 818 b 171 1042 43 911 74 1042 b 289 1006 210 1042 244 1031 l 351 968 b 453 929 397 940 417 929 l 506 1035 l 519 1028 b 369 804 497 935 467 804 m 28 28 l 111 28 l 139 56 l 139 667 l 42 667 l 42 694 b 403 722 147 694 293 688 l 403 56 l 431 28 l 514 28 l 514 0 l 28 0 "},"j":{"ha":486,"x_min":0,"x_max":0,"o":"m 125 1097 l 403 1097 l 403 833 l 125 833 m -83 -111 l 111 -111 l 139 -83 l 139 667 l 28 667 l 28 694 b 403 722 151 694 294 688 l 403 0 l 167 -250 b 28 -319 138 -282 85 -308 l -111 -347 "},"ȷ":{"ha":486,"x_min":0,"x_max":0,"o":"m -83 -111 l 111 -111 l 139 -83 l 139 667 l 28 667 l 28 694 b 403 722 151 694 294 688 l 403 0 l 167 -250 b 28 -319 138 -282 85 -308 l -111 -347 "},"k":{"ha":993,"x_min":0,"x_max":0,"o":"m 28 28 l 111 28 l 139 56 l 139 986 l 28 986 l 28 1014 b 403 1083 140 1014 283 1040 l 403 694 l 917 694 l 917 667 l 793 667 l 663 550 l 903 28 l 972 28 l 972 0 l 28 0 m 721 639 l 707 667 l 403 667 l 403 357 m 583 28 l 597 56 l 463 374 l 403 319 l 403 56 l 431 28 "},"ķ":{"ha":993,"x_min":0,"x_max":0,"o":"m 28 28 l 111 28 l 139 56 l 139 986 l 28 986 l 28 1014 b 403 1083 140 1014 283 1040 l 403 694 l 917 694 l 917 667 l 793 667 l 663 550 l 903 28 l 972 28 l 972 0 l 28 0 m 721 639 l 707 667 l 403 667 l 403 357 m 583 28 l 597 56 l 463 374 l 403 319 l 403 56 l 431 28 m 379 -375 b 567 -250 510 -364 567 -317 l 379 -250 l 379 -83 l 615 -83 l 615 -194 b 385 -403 615 -337 535 -390 "},"l":{"ha":542,"x_min":0,"x_max":0,"o":"m 28 28 l 111 28 l 139 56 l 139 986 l 28 986 l 28 1014 b 403 1083 140 1014 283 1040 l 403 56 l 431 28 l 514 28 l 514 0 l 28 0 "},"ĺ":{"ha":542,"x_min":0,"x_max":0,"o":"m 146 1111 l 361 1417 l 542 1417 l 542 1236 l 160 1093 m 28 28 l 111 28 l 139 56 l 139 986 l 28 986 l 28 1014 b 403 1083 140 1014 283 1040 l 403 56 l 431 28 l 514 28 l 514 0 l 28 0 "},"ľ":{"ha":754,"x_min":0,"x_max":0,"o":"m 28 28 l 111 28 l 139 56 l 139 986 l 28 986 l 28 1014 b 403 1083 140 1014 283 1040 l 403 56 l 431 28 l 514 28 l 514 0 l 28 0 m 467 542 b 664 792 594 586 669 694 l 476 792 l 476 1014 l 713 1014 l 713 833 b 476 514 713 676 622 554 "},"ļ":{"ha":542,"x_min":0,"x_max":0,"o":"m 28 28 l 111 28 l 139 56 l 139 986 l 28 986 l 28 1014 b 403 1083 140 1014 283 1040 l 403 56 l 431 28 l 514 28 l 514 0 l 28 0 m 153 -375 b 340 -250 283 -364 340 -317 l 153 -250 l 153 -83 l 389 -83 l 389 -194 b 158 -403 389 -337 308 -390 "},"ł":{"ha":542,"x_min":0,"x_max":0,"o":"m 431 28 l 514 28 l 514 0 l 28 0 l 28 28 l 111 28 l 139 56 l 139 444 l 39 393 l 28 418 l 139 475 l 139 986 l 28 986 l 28 1014 b 403 1083 140 1014 283 1040 l 403 613 l 503 664 l 514 639 l 403 582 l 403 56 "},"m":{"ha":1500,"x_min":0,"x_max":0,"o":"m 28 28 l 97 28 l 125 56 l 125 667 l 28 667 l 28 694 b 375 722 133 694 265 694 l 375 597 l 389 597 b 639 722 440 675 536 722 b 861 597 753 722 838 675 l 875 597 b 1125 722 921 675 1015 722 b 1361 472 1271 722 1361 628 l 1361 56 l 1389 28 l 1472 28 l 1472 0 l 28 0 m 583 28 l 611 56 l 611 514 b 514 639 611 592 574 639 b 389 472 436 639 389 575 l 389 56 l 417 28 m 1069 28 l 1097 56 l 1097 514 b 1000 639 1097 592 1060 639 b 875 472 922 639 875 575 l 875 56 l 903 28 "},"n":{"ha":1000,"x_min":0,"x_max":0,"o":"m 28 28 l 97 28 l 125 56 l 125 667 l 28 667 l 28 694 b 375 722 133 694 265 694 l 375 597 l 389 597 b 628 722 433 675 522 722 b 875 472 776 722 875 628 l 875 56 l 903 28 l 972 28 l 972 0 l 28 0 m 583 28 l 611 56 l 611 486 b 507 639 611 581 572 639 b 389 444 433 639 389 565 l 389 56 l 417 28 "},"ń":{"ha":1000,"x_min":0,"x_max":0,"o":"m 410 792 l 625 1097 l 806 1097 l 806 917 l 424 774 m 28 28 l 97 28 l 125 56 l 125 667 l 28 667 l 28 694 b 375 722 133 694 265 694 l 375 597 l 389 597 b 628 722 433 675 522 722 b 875 472 776 722 875 628 l 875 56 l 903 28 l 972 28 l 972 0 l 28 0 m 583 28 l 611 56 l 611 486 b 507 639 611 581 572 639 b 389 444 433 639 389 565 l 389 56 l 417 28 "},"ň":{"ha":1000,"x_min":0,"x_max":0,"o":"m 597 778 l 417 778 l 215 1083 l 229 1097 l 507 932 l 785 1097 l 799 1083 m 28 28 l 97 28 l 125 56 l 125 667 l 28 667 l 28 694 b 375 722 133 694 265 694 l 375 597 l 389 597 b 628 722 433 675 522 722 b 875 472 776 722 875 628 l 875 56 l 903 28 l 972 28 l 972 0 l 28 0 m 583 28 l 611 56 l 611 486 b 507 639 611 581 572 639 b 389 444 433 639 389 565 l 389 56 l 417 28 "},"ņ":{"ha":1000,"x_min":0,"x_max":0,"o":"m 28 28 l 97 28 l 125 56 l 125 667 l 28 667 l 28 694 b 375 722 133 694 265 694 l 375 597 l 389 597 b 628 722 433 675 522 722 b 875 472 776 722 875 628 l 875 56 l 903 28 l 972 28 l 972 0 l 28 0 m 583 28 l 611 56 l 611 486 b 507 639 611 581 572 639 b 389 444 433 639 389 565 l 389 56 l 417 28 m 382 -375 b 569 -250 513 -364 569 -317 l 382 -250 l 382 -83 l 618 -83 l 618 -194 b 388 -403 618 -337 538 -390 "},"ŋ":{"ha":1000,"x_min":0,"x_max":0,"o":"m 628 722 b 875 472 776 722 875 628 l 875 0 l 639 -250 b 500 -319 610 -282 557 -308 l 361 -347 l 389 -111 l 583 -111 l 611 -83 l 611 486 b 507 639 611 581 572 639 b 389 444 433 639 389 565 l 389 56 l 417 28 l 542 28 l 542 0 l 28 0 l 28 28 l 97 28 l 125 56 l 125 667 l 28 667 l 28 694 b 375 722 133 694 265 694 l 375 597 l 389 597 b 628 722 433 675 522 722 "},"ñ":{"ha":1000,"x_min":0,"x_max":0,"o":"m 606 804 b 479 843 558 804 522 815 l 408 888 b 310 917 375 908 346 917 l 243 811 l 229 818 b 407 1042 251 911 310 1042 b 525 1006 446 1042 481 1031 l 588 968 b 703 929 633 940 667 929 l 769 1035 l 783 1028 b 606 804 761 935 703 804 m 28 28 l 97 28 l 125 56 l 125 667 l 28 667 l 28 694 b 375 722 133 694 265 694 l 375 597 l 389 597 b 628 722 433 675 522 722 b 875 472 776 722 875 628 l 875 56 l 903 28 l 972 28 l 972 0 l 28 0 m 583 28 l 611 56 l 611 486 b 507 639 611 581 572 639 b 389 444 433 639 389 565 l 389 56 l 417 28 "},"o":{"ha":889,"x_min":0,"x_max":0,"o":"m 444 -14 b 42 354 194 -14 42 122 b 444 722 42 586 194 722 b 847 354 694 722 847 586 b 444 -14 847 122 694 -14 m 444 14 b 569 354 550 14 569 140 b 444 694 569 568 550 694 b 319 354 339 694 319 568 b 444 14 319 140 339 14 "},"ó":{"ha":889,"x_min":0,"x_max":0,"o":"m 347 792 l 563 1097 l 743 1097 l 743 917 l 361 774 m 444 -14 b 42 354 194 -14 42 122 b 444 722 42 586 194 722 b 847 354 694 722 847 586 b 444 -14 847 122 694 -14 m 444 14 b 569 354 550 14 569 140 b 444 694 569 568 550 694 b 319 354 339 694 319 568 b 444 14 319 140 339 14 "},"ô":{"ha":889,"x_min":0,"x_max":0,"o":"m 722 778 l 444 943 l 167 778 l 153 792 l 354 1097 l 535 1097 l 736 792 m 444 -14 b 42 354 194 -14 42 122 b 444 722 42 586 194 722 b 847 354 694 722 847 586 b 444 -14 847 122 694 -14 m 444 14 b 569 354 550 14 569 140 b 444 694 569 568 550 694 b 319 354 339 694 319 568 b 444 14 319 140 339 14 "},"ö":{"ha":889,"x_min":0,"x_max":0,"o":"m 139 1056 l 389 1056 l 389 792 l 139 792 m 500 1056 l 750 1056 l 750 792 l 500 792 m 444 -14 b 42 354 194 -14 42 122 b 444 722 42 586 194 722 b 847 354 694 722 847 586 b 444 -14 847 122 694 -14 m 444 14 b 569 354 550 14 569 140 b 444 694 569 568 550 694 b 319 354 339 694 319 568 b 444 14 319 140 339 14 "},"ò":{"ha":889,"x_min":0,"x_max":0,"o":"m 146 917 l 146 1097 l 326 1097 l 542 792 l 528 774 m 444 -14 b 42 354 194 -14 42 122 b 444 722 42 586 194 722 b 847 354 694 722 847 586 b 444 -14 847 122 694 -14 m 444 14 b 569 354 550 14 569 140 b 444 694 569 568 550 694 b 319 354 339 694 319 568 b 444 14 319 140 339 14 "},"ő":{"ha":889,"x_min":0,"x_max":0,"o":"m 218 788 l 329 1097 l 510 1097 l 510 917 l 232 778 m 544 788 l 656 1097 l 836 1097 l 836 917 l 558 778 m 444 -14 b 42 354 194 -14 42 122 b 444 722 42 586 194 722 b 847 354 694 722 847 586 b 444 -14 847 122 694 -14 m 444 14 b 569 354 550 14 569 140 b 444 694 569 568 550 694 b 319 354 339 694 319 568 b 444 14 319 140 339 14 "},"ō":{"ha":889,"x_min":0,"x_max":0,"o":"m 222 972 l 667 972 l 667 806 l 222 806 m 444 -14 b 42 354 194 -14 42 122 b 444 722 42 586 194 722 b 847 354 694 722 847 586 b 444 -14 847 122 694 -14 m 444 14 b 569 354 550 14 569 140 b 444 694 569 568 550 694 b 319 354 339 694 319 568 b 444 14 319 140 339 14 "},"ø":{"ha":889,"x_min":0,"x_max":0,"o":"m 675 671 b 847 354 785 611 847 501 b 444 -14 847 122 694 -14 b 250 21 371 -14 306 -1 l 144 -139 l 119 -119 l 221 35 b 42 354 107 93 42 203 b 444 722 42 586 194 722 b 647 683 522 722 590 710 l 746 833 l 771 815 l 675 671 m 319 354 b 325 194 319 293 321 240 l 558 549 b 444 694 544 643 513 694 b 319 354 339 694 319 568 m 444 14 b 569 354 550 14 569 140 b 564 501 569 410 568 458 l 332 147 b 444 14 347 61 379 14 "},"ǿ":{"ha":889,"x_min":0,"x_max":0,"o":"m 361 774 l 347 792 l 563 1097 l 743 1097 l 743 917 m 675 671 b 847 354 785 611 847 501 b 444 -14 847 122 694 -14 b 250 21 371 -14 306 -1 l 144 -139 l 119 -119 l 221 35 b 42 354 107 93 42 203 b 444 722 42 586 194 722 b 647 683 522 722 590 710 l 746 833 l 771 815 l 675 671 m 319 354 b 325 194 319 293 321 240 l 558 549 b 444 694 544 643 513 694 b 319 354 339 694 319 568 m 444 14 b 569 354 550 14 569 140 b 564 501 569 410 568 458 l 332 147 b 444 14 347 61 379 14 "},"õ":{"ha":889,"x_min":0,"x_max":0,"o":"m 543 804 b 417 843 496 804 460 815 l 346 888 b 247 917 313 908 283 917 l 181 811 l 167 818 b 344 1042 189 911 247 1042 b 463 1006 383 1042 418 1031 l 525 968 b 640 929 571 940 604 929 l 707 1035 l 721 1028 b 543 804 699 935 640 804 m 444 -14 b 42 354 194 -14 42 122 b 444 722 42 586 194 722 b 847 354 694 722 847 586 b 444 -14 847 122 694 -14 m 444 14 b 569 354 550 14 569 140 b 444 694 569 568 550 694 b 319 354 339 694 319 568 b 444 14 319 140 339 14 "},"œ":{"ha":1418,"x_min":0,"x_max":0,"o":"m 1376 319 b 1018 -14 1350 101 1239 -14 b 713 124 867 -14 768 39 b 444 -14 663 39 575 -14 b 42 347 194 -14 42 115 b 444 722 42 579 194 722 b 711 575 572 722 660 664 b 1003 722 764 664 858 722 b 1363 417 1218 722 1363 615 l 1321 375 l 849 375 l 849 343 b 1086 42 849 167 936 42 b 1350 322 1229 42 1332 153 m 444 14 b 569 347 550 14 569 133 b 444 694 569 561 550 694 b 319 347 339 694 319 561 b 444 14 319 133 339 14 m 974 694 b 850 403 903 694 857 613 l 1057 403 l 1085 431 b 974 694 1085 622 1040 694 "},"p":{"ha":1000,"x_min":0,"x_max":0,"o":"m 42 -319 l 125 -319 l 153 -292 l 153 667 l 56 667 l 56 694 b 403 722 161 694 293 688 l 403 611 l 417 611 b 632 722 457 681 536 722 b 958 354 819 722 958 568 b 628 -14 958 140 819 -14 b 431 64 547 -14 472 15 l 417 64 l 417 -292 l 444 -319 l 625 -319 l 625 -347 l 42 -347 m 533 42 b 681 354 640 42 681 174 b 536 660 681 535 642 660 b 417 438 451 660 417 575 l 417 250 b 533 42 417 124 450 42 "},"þ":{"ha":986,"x_min":0,"x_max":0,"o":"m 28 -319 l 111 -319 l 139 -292 l 139 986 l 42 986 l 42 1014 b 389 1042 147 1014 279 1007 l 389 611 l 403 611 b 618 722 443 681 522 722 b 944 347 806 722 944 561 b 614 -28 944 133 806 -28 b 418 49 533 -28 460 0 l 403 49 l 403 -292 l 431 -319 l 611 -319 l 611 -347 l 28 -347 m 519 28 b 667 347 626 28 667 167 b 522 660 667 528 628 660 b 403 438 438 660 403 575 l 403 236 b 519 28 403 110 436 28 "},"q":{"ha":972,"x_min":0,"x_max":0,"o":"m 375 -319 l 556 -319 l 583 -292 l 583 83 l 569 83 b 374 -14 536 24 475 -14 b 42 343 179 -14 42 113 b 369 722 42 578 188 722 b 597 611 467 722 553 681 b 819 694 668 611 753 643 l 847 694 l 847 -292 l 875 -319 l 958 -319 l 958 -347 l 375 -347 m 464 49 b 583 257 540 49 583 136 l 583 474 b 467 668 583 594 536 668 b 319 347 371 668 319 528 b 464 49 319 167 371 49 "},"r":{"ha":764,"x_min":0,"x_max":0,"o":"m 28 28 l 111 28 l 139 56 l 139 667 l 28 667 l 28 694 b 389 722 143 694 281 688 l 389 500 l 403 500 b 611 715 428 626 507 708 l 722 722 l 694 486 l 458 486 b 403 431 424 486 403 465 l 403 56 l 431 28 l 653 28 l 653 0 l 28 0 "},"ŕ":{"ha":764,"x_min":0,"x_max":0,"o":"m 326 792 l 542 1097 l 722 1097 l 722 917 l 340 774 m 28 28 l 111 28 l 139 56 l 139 667 l 28 667 l 28 694 b 389 722 143 694 281 688 l 389 500 l 403 500 b 611 715 428 626 507 708 l 722 722 l 694 486 l 458 486 b 403 431 424 486 403 465 l 403 56 l 431 28 l 653 28 l 653 0 l 28 0 "},"ř":{"ha":764,"x_min":0,"x_max":0,"o":"m 514 778 l 333 778 l 132 1083 l 146 1097 l 424 932 l 701 1097 l 715 1083 m 28 28 l 111 28 l 139 56 l 139 667 l 28 667 l 28 694 b 389 722 143 694 281 688 l 389 500 l 403 500 b 611 715 428 626 507 708 l 722 722 l 694 486 l 458 486 b 403 431 424 486 403 465 l 403 56 l 431 28 l 653 28 l 653 0 l 28 0 "},"ŗ":{"ha":764,"x_min":0,"x_max":0,"o":"m 28 28 l 111 28 l 139 56 l 139 667 l 28 667 l 28 694 b 389 722 143 694 281 688 l 389 500 l 403 500 b 611 715 428 626 507 708 l 722 722 l 694 486 l 458 486 b 403 431 424 486 403 465 l 403 56 l 431 28 l 653 28 l 653 0 l 28 0 m 160 -375 b 347 -250 290 -364 347 -317 l 160 -250 l 160 -83 l 396 -83 l 396 -194 b 165 -403 396 -337 315 -390 "},"s":{"ha":792,"x_min":0,"x_max":0,"o":"m 418 -14 b 111 14 294 -14 250 14 l 83 14 l 56 283 l 79 288 b 360 17 131 113 240 17 b 486 119 436 17 486 56 b 386 228 486 175 457 201 l 219 289 b 56 500 104 332 56 393 b 336 722 56 638 154 722 b 625 694 440 722 501 694 l 653 694 l 681 453 l 657 449 b 415 688 593 638 511 688 b 306 585 349 688 306 644 b 408 467 306 528 336 493 l 572 408 b 750 199 697 363 750 301 b 418 -14 750 51 626 -14 "},"ś":{"ha":792,"x_min":0,"x_max":0,"o":"m 299 792 l 514 1097 l 694 1097 l 694 917 l 313 774 m 418 -14 b 111 14 294 -14 250 14 l 83 14 l 56 283 l 79 288 b 360 17 131 113 240 17 b 486 119 436 17 486 56 b 386 228 486 175 457 201 l 219 289 b 56 500 104 332 56 393 b 336 722 56 638 154 722 b 625 694 440 722 501 694 l 653 694 l 681 453 l 657 449 b 415 688 593 638 511 688 b 306 585 349 688 306 644 b 408 467 306 528 336 493 l 572 408 b 750 199 697 363 750 301 b 418 -14 750 51 626 -14 "},"š":{"ha":792,"x_min":0,"x_max":0,"o":"m 486 778 l 306 778 l 104 1083 l 118 1097 l 396 932 l 674 1097 l 688 1083 m 418 -14 b 111 14 294 -14 250 14 l 83 14 l 56 283 l 79 288 b 360 17 131 113 240 17 b 486 119 436 17 486 56 b 386 228 486 175 457 201 l 219 289 b 56 500 104 332 56 393 b 336 722 56 638 154 722 b 625 694 440 722 501 694 l 653 694 l 681 453 l 657 449 b 415 688 593 638 511 688 b 306 585 349 688 306 644 b 408 467 306 528 336 493 l 572 408 b 750 199 697 363 750 301 b 418 -14 750 51 626 -14 "},"ş":{"ha":792,"x_min":0,"x_max":0,"o":"m 418 -14 b 371 -12 401 -14 385 -14 l 342 -87 l 353 -101 b 597 -204 496 -83 597 -119 b 319 -319 597 -287 501 -319 l 221 -319 l 235 -236 l 426 -236 b 458 -172 447 -219 458 -199 b 333 -125 458 -128 426 -111 l 310 -97 l 343 -10 b 111 14 269 -3 218 14 l 83 14 l 56 283 l 79 288 b 360 17 131 113 240 17 b 486 119 436 17 486 56 b 386 228 486 175 457 201 l 219 289 b 56 500 104 332 56 393 b 336 722 56 638 154 722 b 625 694 440 722 501 694 l 653 694 l 681 453 l 657 449 b 415 688 593 638 511 688 b 306 585 349 688 306 644 b 408 467 306 528 336 493 l 572 408 b 750 199 697 363 750 301 b 418 -14 750 51 626 -14 "},"ș":{"ha":792,"x_min":0,"x_max":0,"o":"m 418 -14 b 111 14 294 -14 250 14 l 83 14 l 56 283 l 79 288 b 360 17 131 113 240 17 b 486 119 436 17 486 56 b 386 228 486 175 457 201 l 219 289 b 56 500 104 332 56 393 b 336 722 56 638 154 722 b 625 694 440 722 501 694 l 653 694 l 681 453 l 657 449 b 415 688 593 638 511 688 b 306 585 349 688 306 644 b 408 467 306 528 336 493 l 572 408 b 750 199 697 363 750 301 b 418 -14 750 51 626 -14 m 278 -375 b 465 -250 408 -364 465 -317 l 278 -250 l 278 -83 l 514 -83 l 514 -194 b 283 -403 514 -337 433 -390 "},"ß":{"ha":1129,"x_min":0,"x_max":0,"o":"m 751 -28 b 504 0 656 -28 629 0 l 490 0 l 463 292 l 492 294 b 686 7 528 106 600 7 b 782 233 749 7 782 83 b 479 560 782 435 674 553 l 479 575 l 719 868 b 551 1014 689 975 614 1014 b 389 694 447 1014 389 899 l 389 0 l 14 0 l 14 28 l 97 28 l 125 56 l 125 694 b 558 1042 125 917 286 1042 b 986 861 756 1042 882 990 l 715 560 l 715 546 b 1060 233 936 494 1060 392 b 751 -28 1060 76 949 -28 "},"t":{"ha":682,"x_min":0,"x_max":0,"o":"m 396 -14 b 139 208 238 -14 139 72 l 139 667 l 14 667 l 14 694 b 382 1014 219 711 344 819 l 403 1014 l 403 694 l 611 694 l 611 667 l 403 667 l 403 153 b 478 47 403 83 428 47 b 632 315 558 47 618 135 l 661 315 b 396 -14 646 88 568 -14 "},"ŧ":{"ha":682,"x_min":0,"x_max":0,"o":"m 661 315 b 396 -14 646 88 568 -14 b 139 208 238 -14 139 72 l 139 460 l 14 460 l 14 488 l 139 488 l 139 667 l 14 667 l 14 694 b 382 1014 219 711 344 819 l 403 1014 l 403 694 l 611 694 l 611 667 l 403 667 l 403 488 l 611 488 l 611 460 l 403 460 l 403 153 b 478 47 403 83 428 47 b 632 315 558 47 618 135 "},"ť":{"ha":722,"x_min":0,"x_max":0,"o":"m 396 -14 b 139 208 238 -14 139 72 l 139 667 l 14 667 l 14 694 b 382 1014 219 711 344 819 l 403 1014 l 403 694 l 611 694 l 611 667 l 403 667 l 403 153 b 478 47 403 83 428 47 b 632 315 558 47 618 135 l 661 315 b 396 -14 646 88 568 -14 m 507 778 b 653 889 610 789 653 822 l 507 889 l 507 1014 l 701 1014 l 701 944 b 513 750 701 801 635 763 "},"ţ":{"ha":682,"x_min":0,"x_max":0,"o":"m 354 -101 b 599 -204 497 -83 599 -119 b 321 -319 599 -287 503 -319 l 222 -319 l 236 -236 l 428 -236 b 460 -172 449 -219 460 -199 b 335 -125 460 -128 428 -111 l 311 -97 l 344 -11 b 139 208 217 6 139 88 l 139 667 l 14 667 l 14 694 b 382 1014 219 711 344 819 l 403 1014 l 403 694 l 611 694 l 611 667 l 403 667 l 403 153 b 478 47 403 83 428 47 b 632 315 558 47 618 135 l 661 315 b 396 -14 646 88 568 -14 b 371 -12 388 -14 379 -14 l 343 -87 l 354 -101 "},"ț":{"ha":682,"x_min":0,"x_max":0,"o":"m 396 -14 b 139 208 238 -14 139 72 l 139 667 l 14 667 l 14 694 b 382 1014 219 711 344 819 l 403 1014 l 403 694 l 611 694 l 611 667 l 403 667 l 403 153 b 478 47 403 83 428 47 b 632 315 558 47 618 135 l 661 315 b 396 -14 646 88 568 -14 m 279 -375 b 467 -250 410 -364 467 -317 l 279 -250 l 279 -83 l 515 -83 l 515 -194 b 285 -403 515 -337 435 -390 "},"u":{"ha":1000,"x_min":0,"x_max":0,"o":"m 972 28 l 972 0 l 625 0 l 625 111 l 611 111 b 372 -14 567 33 478 -14 b 125 236 224 -14 125 81 l 125 639 l 97 667 l 28 667 l 28 694 l 875 694 l 875 56 l 903 28 m 611 639 l 583 667 l 389 667 l 389 222 b 493 69 389 128 428 69 b 611 264 567 69 611 143 "},"ú":{"ha":1000,"x_min":0,"x_max":0,"o":"m 389 792 l 604 1097 l 785 1097 l 785 917 l 403 774 m 972 28 l 972 0 l 625 0 l 625 111 l 611 111 b 372 -14 567 33 478 -14 b 125 236 224 -14 125 81 l 125 639 l 97 667 l 28 667 l 28 694 l 875 694 l 875 56 l 903 28 m 611 639 l 583 667 l 389 667 l 389 222 b 493 69 389 128 428 69 b 611 264 567 69 611 143 "},"û":{"ha":1000,"x_min":0,"x_max":0,"o":"m 764 778 l 486 943 l 208 778 l 194 792 l 396 1097 l 576 1097 l 778 792 m 972 28 l 972 0 l 625 0 l 625 111 l 611 111 b 372 -14 567 33 478 -14 b 125 236 224 -14 125 81 l 125 639 l 97 667 l 28 667 l 28 694 l 875 694 l 875 56 l 903 28 m 611 639 l 583 667 l 389 667 l 389 222 b 493 69 389 128 428 69 b 611 264 567 69 611 143 "},"ü":{"ha":1000,"x_min":0,"x_max":0,"o":"m 181 1056 l 431 1056 l 431 792 l 181 792 m 542 1056 l 792 1056 l 792 792 l 542 792 m 972 28 l 972 0 l 625 0 l 625 111 l 611 111 b 372 -14 567 33 478 -14 b 125 236 224 -14 125 81 l 125 639 l 97 667 l 28 667 l 28 694 l 875 694 l 875 56 l 903 28 m 611 639 l 583 667 l 389 667 l 389 222 b 493 69 389 128 428 69 b 611 264 567 69 611 143 "},"ù":{"ha":1000,"x_min":0,"x_max":0,"o":"m 188 917 l 188 1097 l 368 1097 l 583 792 l 569 774 m 972 28 l 972 0 l 625 0 l 625 111 l 611 111 b 372 -14 567 33 478 -14 b 125 236 224 -14 125 81 l 125 639 l 97 667 l 28 667 l 28 694 l 875 694 l 875 56 l 903 28 m 611 639 l 583 667 l 389 667 l 389 222 b 493 69 389 128 428 69 b 611 264 567 69 611 143 "},"ű":{"ha":1000,"x_min":0,"x_max":0,"o":"m 260 788 l 371 1097 l 551 1097 l 551 917 l 274 778 m 586 788 l 697 1097 l 878 1097 l 878 917 l 600 778 m 972 28 l 972 0 l 625 0 l 625 111 l 611 111 b 372 -14 567 33 478 -14 b 125 236 224 -14 125 81 l 125 639 l 97 667 l 28 667 l 28 694 l 875 694 l 875 56 l 903 28 m 611 639 l 583 667 l 389 667 l 389 222 b 493 69 389 128 428 69 b 611 264 567 69 611 143 "},"ū":{"ha":1000,"x_min":0,"x_max":0,"o":"m 264 972 l 708 972 l 708 806 l 264 806 m 972 28 l 972 0 l 625 0 l 625 111 l 611 111 b 372 -14 567 33 478 -14 b 125 236 224 -14 125 81 l 125 639 l 97 667 l 28 667 l 28 694 l 875 694 l 875 56 l 903 28 m 611 639 l 583 667 l 389 667 l 389 222 b 493 69 389 128 428 69 b 611 264 567 69 611 143 "},"ų":{"ha":1000,"x_min":0,"x_max":0,"o":"m 819 0 b 764 -132 783 -37 764 -60 b 850 -236 764 -201 810 -236 b 943 -181 893 -236 925 -212 l 957 -194 b 746 -361 935 -286 839 -361 b 583 -126 617 -361 551 -260 l 792 0 l 625 0 l 625 111 l 611 111 b 372 -14 567 33 478 -14 b 125 236 224 -14 125 81 l 125 639 l 97 667 l 28 667 l 28 694 l 875 694 l 875 56 l 903 28 l 972 28 l 972 0 m 611 639 l 583 667 l 389 667 l 389 222 b 493 69 389 128 428 69 b 611 264 567 69 611 143 "},"ů":{"ha":1000,"x_min":0,"x_max":0,"o":"m 486 764 b 319 932 393 764 319 838 b 486 1097 319 1024 393 1097 b 653 932 579 1097 653 1024 b 486 764 653 838 579 764 m 486 790 b 626 932 565 790 626 850 b 486 1071 626 1008 565 1071 b 346 932 407 1071 346 1008 b 486 790 346 850 407 790 m 972 28 l 972 0 l 625 0 l 625 111 l 611 111 b 372 -14 567 33 478 -14 b 125 236 224 -14 125 81 l 125 639 l 97 667 l 28 667 l 28 694 l 875 694 l 875 56 l 903 28 m 611 639 l 583 667 l 389 667 l 389 222 b 493 69 389 128 428 69 b 611 264 567 69 611 143 "},"ũ":{"ha":1000,"x_min":0,"x_max":0,"o":"m 585 804 b 458 843 538 804 501 815 l 388 888 b 289 917 354 908 325 917 l 222 811 l 208 818 b 386 1042 231 911 289 1042 b 504 1006 425 1042 460 1031 l 567 968 b 682 929 613 940 646 929 l 749 1035 l 763 1028 b 585 804 740 935 682 804 m 972 28 l 972 0 l 625 0 l 625 111 l 611 111 b 372 -14 567 33 478 -14 b 125 236 224 -14 125 81 l 125 639 l 97 667 l 28 667 l 28 694 l 875 694 l 875 56 l 903 28 m 611 639 l 583 667 l 389 667 l 389 222 b 493 69 389 128 428 69 b 611 264 567 69 611 143 "},"v":{"ha":931,"x_min":0,"x_max":0,"o":"m 111 667 l 21 667 l 21 694 l 910 694 l 910 667 l 813 667 l 578 0 l 368 0 m 590 139 l 767 639 l 739 667 l 438 667 l 410 639 l 576 139 "},"w":{"ha":1264,"x_min":0,"x_max":0,"o":"m 118 667 l 21 667 l 21 694 l 1243 694 l 1243 667 l 1136 667 l 940 0 l 771 0 l 674 472 l 660 472 l 501 0 l 319 0 m 535 208 l 689 667 l 424 667 l 396 639 l 521 208 m 965 208 l 1092 639 l 1064 667 l 850 667 l 951 208 "},"ẃ":{"ha":1264,"x_min":0,"x_max":0,"o":"m 576 792 l 792 1097 l 972 1097 l 972 917 l 590 774 m 118 667 l 21 667 l 21 694 l 1243 694 l 1243 667 l 1136 667 l 940 0 l 771 0 l 674 472 l 660 472 l 501 0 l 319 0 m 535 208 l 689 667 l 424 667 l 396 639 l 521 208 m 965 208 l 1092 639 l 1064 667 l 850 667 l 951 208 "},"ŵ":{"ha":1264,"x_min":0,"x_max":0,"o":"m 951 778 l 674 943 l 396 778 l 382 792 l 583 1097 l 764 1097 l 965 792 m 118 667 l 21 667 l 21 694 l 1243 694 l 1243 667 l 1136 667 l 940 0 l 771 0 l 674 472 l 660 472 l 501 0 l 319 0 m 535 208 l 689 667 l 424 667 l 396 639 l 521 208 m 965 208 l 1092 639 l 1064 667 l 850 667 l 951 208 "},"ẅ":{"ha":1264,"x_min":0,"x_max":0,"o":"m 368 1056 l 618 1056 l 618 792 l 368 792 m 729 1056 l 979 1056 l 979 792 l 729 792 m 118 667 l 21 667 l 21 694 l 1243 694 l 1243 667 l 1136 667 l 940 0 l 771 0 l 674 472 l 660 472 l 501 0 l 319 0 m 535 208 l 689 667 l 424 667 l 396 639 l 521 208 m 965 208 l 1092 639 l 1064 667 l 850 667 l 951 208 "},"ẁ":{"ha":1264,"x_min":0,"x_max":0,"o":"m 375 917 l 375 1097 l 556 1097 l 771 792 l 757 774 m 118 667 l 21 667 l 21 694 l 1243 694 l 1243 667 l 1136 667 l 940 0 l 771 0 l 674 472 l 660 472 l 501 0 l 319 0 m 535 208 l 689 667 l 424 667 l 396 639 l 521 208 m 965 208 l 1092 639 l 1064 667 l 850 667 l 951 208 "},"x":{"ha":993,"x_min":0,"x_max":0,"o":"m 972 28 l 972 0 l 21 0 l 21 28 l 140 28 l 390 294 l 121 667 l 21 667 l 21 694 l 939 694 l 939 667 l 832 667 l 596 426 l 885 28 m 442 639 l 579 449 l 767 639 l 753 667 l 456 667 m 564 56 l 407 271 l 203 56 l 218 28 l 551 28 "},"y":{"ha":931,"x_min":0,"x_max":0,"o":"m 910 667 l 822 667 l 486 -139 b 271 -340 431 -271 414 -333 l 132 -347 l 160 -111 l 408 -111 b 467 -83 438 -111 460 -100 l 478 -56 l 118 667 l 21 667 l 21 694 l 910 694 m 778 639 l 750 667 l 438 667 l 410 639 l 596 236 l 610 236 "},"ý":{"ha":931,"x_min":0,"x_max":0,"o":"m 417 792 l 632 1097 l 813 1097 l 813 917 l 431 774 m 910 667 l 822 667 l 486 -139 b 271 -340 431 -271 414 -333 l 132 -347 l 160 -111 l 408 -111 b 467 -83 438 -111 460 -100 l 478 -56 l 118 667 l 21 667 l 21 694 l 910 694 m 778 639 l 750 667 l 438 667 l 410 639 l 596 236 l 610 236 "},"ŷ":{"ha":931,"x_min":0,"x_max":0,"o":"m 792 778 l 514 943 l 236 778 l 222 792 l 424 1097 l 604 1097 l 806 792 m 910 667 l 822 667 l 486 -139 b 271 -340 431 -271 414 -333 l 132 -347 l 160 -111 l 408 -111 b 467 -83 438 -111 460 -100 l 478 -56 l 118 667 l 21 667 l 21 694 l 910 694 m 778 639 l 750 667 l 438 667 l 410 639 l 596 236 l 610 236 "},"ÿ":{"ha":931,"x_min":0,"x_max":0,"o":"m 208 1056 l 458 1056 l 458 792 l 208 792 m 569 1056 l 819 1056 l 819 792 l 569 792 m 910 667 l 822 667 l 486 -139 b 271 -340 431 -271 414 -333 l 132 -347 l 160 -111 l 408 -111 b 467 -83 438 -111 460 -100 l 478 -56 l 118 667 l 21 667 l 21 694 l 910 694 m 778 639 l 750 667 l 438 667 l 410 639 l 596 236 l 610 236 "},"ỳ":{"ha":931,"x_min":0,"x_max":0,"o":"m 215 917 l 215 1097 l 396 1097 l 611 792 l 597 774 m 910 667 l 822 667 l 486 -139 b 271 -340 431 -271 414 -333 l 132 -347 l 160 -111 l 408 -111 b 467 -83 438 -111 460 -100 l 478 -56 l 118 667 l 21 667 l 21 694 l 910 694 m 778 639 l 750 667 l 438 667 l 410 639 l 596 236 l 610 236 "},"ȳ":{"ha":931,"x_min":0,"x_max":0,"o":"m 292 972 l 736 972 l 736 806 l 292 806 m 910 667 l 822 667 l 486 -139 b 271 -340 431 -271 414 -333 l 132 -347 l 160 -111 l 408 -111 b 467 -83 438 -111 460 -100 l 478 -56 l 118 667 l 21 667 l 21 694 l 910 694 m 778 639 l 750 667 l 438 667 l 410 639 l 596 236 l 610 236 "},"z":{"ha":819,"x_min":0,"x_max":0,"o":"m 28 14 l 458 667 l 250 667 l 93 356 l 69 361 l 97 694 l 778 694 l 778 681 l 361 28 l 583 28 l 754 353 l 778 347 l 736 0 l 28 0 "},"ź":{"ha":819,"x_min":0,"x_max":0,"o":"m 340 792 l 556 1097 l 736 1097 l 736 917 l 354 774 m 28 14 l 458 667 l 250 667 l 93 356 l 69 361 l 97 694 l 778 694 l 778 681 l 361 28 l 583 28 l 754 353 l 778 347 l 736 0 l 28 0 "},"ž":{"ha":819,"x_min":0,"x_max":0,"o":"m 528 778 l 347 778 l 146 1083 l 160 1097 l 438 932 l 715 1097 l 729 1083 m 28 14 l 458 667 l 250 667 l 93 356 l 69 361 l 97 694 l 778 694 l 778 681 l 361 28 l 583 28 l 754 353 l 778 347 l 736 0 l 28 0 "},"ż":{"ha":819,"x_min":0,"x_max":0,"o":"m 299 1056 l 576 1056 l 576 792 l 299 792 m 28 14 l 458 667 l 250 667 l 93 356 l 69 361 l 97 694 l 778 694 l 778 681 l 361 28 l 583 28 l 754 353 l 778 347 l 736 0 l 28 0 "},"А":{"ha":1194,"x_min":0,"x_max":0,"o":"m 21 28 l 174 28 l 489 958 l 461 986 l 278 986 l 278 1014 l 715 1014 l 1058 28 l 1174 28 l 1174 0 l 21 0 m 642 403 l 493 833 l 479 833 l 333 403 m 729 28 l 757 56 l 651 375 l 324 375 l 215 56 l 243 28 "},"Б":{"ha":1111,"x_min":0,"x_max":0,"o":"m 667 556 b 1069 278 925 556 1069 464 b 667 0 1069 92 925 0 l 56 0 l 56 28 l 167 28 l 194 56 l 194 958 l 167 986 l 56 986 l 56 1014 l 944 1014 l 1000 639 l 976 631 l 750 986 l 500 986 l 472 958 l 472 556 l 667 556 m 556 28 b 764 276 689 28 764 108 b 556 528 764 446 689 528 l 472 528 l 472 56 l 500 28 l 556 28 "},"В":{"ha":1167,"x_min":0,"x_max":0,"o":"m 56 28 l 167 28 l 194 56 l 194 958 l 167 986 l 56 986 l 56 1014 l 611 1014 b 1028 774 871 1014 1028 924 b 694 556 1028 647 915 574 l 694 542 b 1125 275 972 542 1125 440 b 708 0 1125 106 967 0 l 56 0 m 556 549 b 722 767 663 549 722 628 b 556 986 722 907 663 986 l 500 986 l 472 958 l 472 549 m 583 28 b 819 278 735 28 819 118 b 583 521 819 433 735 521 l 472 521 l 472 56 l 500 28 "},"Г":{"ha":1021,"x_min":0,"x_max":0,"o":"m 56 28 l 167 28 l 194 56 l 194 958 l 167 986 l 56 986 l 56 1014 l 958 1014 l 986 583 l 963 576 l 750 986 l 500 986 l 472 958 l 472 56 l 500 28 l 819 28 l 819 0 l 56 0 "},"Ґ":{"ha":1007,"x_min":0,"x_max":0,"o":"m 56 28 l 167 28 l 194 56 l 194 958 l 167 986 l 56 986 l 56 1014 l 758 1014 l 963 1306 l 986 1300 l 944 986 l 500 986 l 472 958 l 472 56 l 500 28 l 819 28 l 819 0 l 56 0 "},"Д":{"ha":1118,"x_min":0,"x_max":0,"o":"m 21 28 l 139 28 b 225 285 194 68 213 119 l 278 958 l 250 986 l 104 986 l 104 1014 l 1063 1014 l 1063 986 l 951 986 l 924 958 l 924 54 l 951 28 l 1063 28 l 993 -347 l 969 -347 l 888 0 l 196 0 l 114 -347 l 90 -347 m 618 28 l 646 54 l 646 958 l 618 986 l 333 986 l 306 958 l 253 282 b 178 28 240 128 222 68 "},"Е":{"ha":1014,"x_min":0,"x_max":0,"o":"m 56 28 l 139 28 l 167 56 l 167 958 l 139 986 l 56 986 l 56 1014 l 903 1014 l 944 625 l 921 619 l 736 986 l 472 986 l 444 958 l 444 535 l 611 535 l 701 764 l 722 764 l 722 278 l 701 278 l 611 507 l 444 507 l 444 56 l 472 28 l 778 28 l 963 408 l 986 403 l 944 0 l 56 0 "},"Ё":{"ha":1014,"x_min":0,"x_max":0,"o":"m 224 1375 l 474 1375 l 474 1111 l 224 1111 m 585 1375 l 835 1375 l 835 1111 l 585 1111 m 56 28 l 139 28 l 167 56 l 167 958 l 139 986 l 56 986 l 56 1014 l 903 1014 l 944 625 l 921 619 l 736 986 l 472 986 l 444 958 l 444 535 l 611 535 l 701 764 l 722 764 l 722 278 l 701 278 l 611 507 l 444 507 l 444 56 l 472 28 l 778 28 l 963 408 l 986 403 l 944 0 l 56 0 "},"Ж":{"ha":1819,"x_min":0,"x_max":0,"o":"m 1799 28 l 1799 0 l 21 0 l 21 28 l 104 28 l 146 56 l 579 682 l 218 986 l 76 986 l 76 1014 l 1743 1014 l 1743 986 l 1601 986 l 1240 682 l 1674 56 l 1715 28 m 771 554 l 771 958 l 743 986 l 306 986 l 292 958 m 1049 958 l 1049 554 l 1528 958 l 1514 986 l 1076 986 m 771 56 l 771 524 l 479 56 l 493 28 l 743 28 m 1340 56 l 1049 524 l 1049 56 l 1076 28 l 1326 28 "},"З":{"ha":1064,"x_min":0,"x_max":0,"o":"m 515 -28 b 56 404 249 -28 94 126 l 86 408 b 474 46 119 175 250 46 b 717 272 629 46 717 126 b 479 529 717 439 649 526 l 390 531 l 390 560 l 479 561 b 675 785 604 563 675 639 b 501 1014 675 932 613 1014 b 142 621 339 1014 211 894 l 111 625 l 153 1014 l 181 1014 b 556 1042 311 1014 382 1042 b 979 788 826 1042 979 950 b 610 556 979 657 846 574 l 610 542 b 1022 276 892 543 1022 447 b 515 -28 1022 81 842 -28 "},"И":{"ha":1319,"x_min":0,"x_max":0,"o":"m 1125 958 l 1125 56 l 1153 28 l 1264 28 l 1264 0 l 56 0 l 56 28 l 167 28 l 194 56 l 194 958 l 167 986 l 56 986 l 56 1014 l 1264 1014 l 1264 986 l 1153 986 m 472 958 l 472 213 l 847 863 l 847 958 l 819 986 l 500 986 m 847 56 l 847 801 l 472 151 l 472 56 l 500 28 l 819 28 "},"Й":{"ha":1319,"x_min":0,"x_max":0,"o":"m 571 1319 b 661 1124 571 1186 600 1124 b 751 1319 722 1124 751 1186 l 953 1319 b 661 1096 953 1168 860 1096 b 369 1319 463 1096 369 1168 l 571 1319 m 1125 958 l 1125 56 l 1153 28 l 1264 28 l 1264 0 l 56 0 l 56 28 l 167 28 l 194 56 l 194 958 l 167 986 l 56 986 l 56 1014 l 1264 1014 l 1264 986 l 1153 986 m 472 958 l 472 213 l 847 863 l 847 958 l 819 986 l 500 986 m 847 56 l 847 801 l 472 151 l 472 56 l 500 28 l 819 28 "},"К":{"ha":1243,"x_min":0,"x_max":0,"o":"m 1222 28 l 1222 0 l 56 0 l 56 28 l 167 28 l 194 56 l 194 958 l 167 986 l 56 986 l 56 1014 l 1167 1014 l 1167 986 l 1025 986 l 664 682 l 1117 28 m 472 958 l 472 554 l 951 958 l 938 986 l 500 986 m 764 56 l 472 524 l 472 56 l 500 28 l 750 28 "},"Л":{"ha":1201,"x_min":0,"x_max":0,"o":"m 1007 958 l 1007 54 l 1035 28 l 1146 28 l 1146 0 l 507 0 l 507 28 l 701 28 l 729 54 l 729 958 l 701 986 l 424 986 l 396 958 l 357 392 b 131 -7 338 106 340 7 l 21 -14 l 49 224 l 222 224 b 328 389 310 224 319 265 l 364 958 l 336 986 l 188 986 l 188 1014 l 1146 1014 l 1146 986 l 1035 986 "},"М":{"ha":1431,"x_min":0,"x_max":0,"o":"m 1236 958 l 1236 56 l 1264 28 l 1375 28 l 1375 0 l 76 0 l 76 28 l 201 28 l 229 56 l 229 958 l 201 986 l 76 986 l 76 1014 l 486 1014 l 701 306 l 715 306 l 956 1014 l 1375 1014 l 1375 986 l 1264 986 m 958 875 l 944 875 l 657 28 l 931 28 l 958 56 m 278 861 l 264 861 l 264 56 l 292 28 l 553 28 "},"Н":{"ha":1319,"x_min":0,"x_max":0,"o":"m 56 28 l 167 28 l 194 56 l 194 958 l 167 986 l 56 986 l 56 1014 l 1264 1014 l 1264 986 l 1153 986 l 1125 958 l 1125 56 l 1153 28 l 1264 28 l 1264 0 l 56 0 m 847 542 l 847 958 l 819 986 l 500 986 l 472 958 l 472 542 m 819 28 l 847 56 l 847 514 l 472 514 l 472 56 l 500 28 "},"О":{"ha":1292,"x_min":0,"x_max":0,"o":"m 646 -28 b 56 507 292 -28 56 186 b 646 1042 56 828 292 1042 b 1236 507 1000 1042 1236 828 b 646 -28 1236 186 1000 -28 m 646 0 b 931 507 817 0 931 203 b 646 1014 931 811 817 1014 b 361 507 475 1014 361 811 b 646 0 361 203 475 0 "},"П":{"ha":1292,"x_min":0,"x_max":0,"o":"m 56 28 l 167 28 l 194 56 l 194 958 l 167 986 l 56 986 l 56 1014 l 1236 1014 l 1236 986 l 1125 986 l 1097 958 l 1097 56 l 1125 28 l 1236 28 l 1236 0 l 56 0 m 792 28 l 819 56 l 819 958 l 792 986 l 500 986 l 472 958 l 472 56 l 500 28 "},"Р":{"ha":1083,"x_min":0,"x_max":0,"o":"m 56 28 l 167 28 l 194 56 l 194 958 l 167 986 l 56 986 l 56 1014 l 653 1014 b 1042 736 894 1014 1042 908 b 653 458 1042 564 894 458 l 472 458 l 472 56 l 500 28 l 778 28 l 778 0 l 56 0 m 542 486 b 736 738 678 486 736 583 b 542 986 736 890 678 986 l 500 986 l 472 958 l 472 486 "},"С":{"ha":1101,"x_min":0,"x_max":0,"o":"m 618 -28 b 56 507 265 -28 56 164 b 569 1042 56 839 246 1042 b 944 1014 689 1042 800 1014 l 972 1014 l 1014 625 l 985 624 b 671 1007 922 879 826 1007 b 361 507 481 1007 361 817 b 669 36 361 196 481 36 b 1015 428 874 36 974 167 l 1046 424 b 618 -28 1004 133 874 -28 "},"Т":{"ha":1097,"x_min":0,"x_max":0,"o":"m 201 28 l 382 28 l 410 56 l 410 958 l 382 986 l 229 986 l 58 579 l 35 583 l 63 1014 l 1035 1014 l 1063 583 l 1039 579 l 868 986 l 715 986 l 688 958 l 688 56 l 715 28 l 896 28 l 896 0 l 201 0 "},"У":{"ha":1113,"x_min":0,"x_max":0,"o":"m 1092 986 l 969 986 l 568 157 b 356 -22 513 42 444 -18 l 215 -28 l 243 210 l 492 210 b 569 232 538 210 558 213 l 574 239 l 132 986 l 21 986 l 21 1014 l 1092 1014 m 919 958 l 892 986 l 481 986 l 453 958 l 696 517 l 710 517 "},"Ў":{"ha":1113,"x_min":0,"x_max":0,"o":"m 571 1319 b 661 1124 571 1186 600 1124 b 751 1319 722 1124 751 1186 l 953 1319 b 661 1096 953 1168 860 1096 b 369 1319 463 1096 369 1168 l 571 1319 m 1092 986 l 969 986 l 568 157 b 356 -22 513 42 444 -18 l 215 -28 l 243 210 l 492 210 b 569 232 538 210 558 213 l 574 239 l 132 986 l 21 986 l 21 1014 l 1092 1014 m 919 958 l 892 986 l 481 986 l 453 958 l 696 517 l 710 517 "},"Ф":{"ha":1403,"x_min":0,"x_max":0,"o":"m 1361 507 b 840 131 1361 290 1175 158 l 840 56 l 868 28 l 1118 28 l 1118 0 l 285 0 l 285 28 l 535 28 l 563 56 l 563 131 b 42 507 228 158 42 290 b 563 883 42 724 228 856 l 563 958 l 535 986 l 285 986 l 285 1014 l 1118 1014 l 1118 986 l 868 986 l 840 958 l 840 883 b 1361 507 1175 856 1361 724 m 333 507 b 563 171 333 329 414 213 l 563 843 b 333 507 414 801 333 685 m 1069 507 b 840 843 1069 685 989 801 l 840 171 b 1069 507 989 213 1069 329 "},"Х":{"ha":1179,"x_min":0,"x_max":0,"o":"m 1158 28 l 1158 0 l 21 0 l 21 28 l 160 28 l 474 435 l 143 986 l 21 986 l 21 1014 l 1133 1014 l 1133 986 l 972 986 l 685 615 l 1036 28 m 479 958 l 669 640 l 915 958 l 901 986 l 493 986 m 700 56 l 488 410 l 217 56 l 231 28 l 686 28 "},"Ч":{"ha":1236,"x_min":0,"x_max":0,"o":"m 1042 958 l 1042 56 l 1069 28 l 1181 28 l 1181 0 l 417 0 l 417 28 l 736 28 l 764 56 l 764 490 b 514 444 699 461 639 444 b 167 736 286 444 167 550 l 167 958 l 139 986 l 28 986 l 28 1014 l 1181 1014 l 1181 986 l 1069 986 m 764 958 l 736 986 l 472 986 l 444 958 l 444 681 b 597 485 444 556 500 485 b 764 524 656 485 715 499 "},"Ц":{"ha":1306,"x_min":0,"x_max":0,"o":"m 1181 -347 l 1157 -347 l 1051 0 l 56 0 l 56 28 l 167 28 l 194 56 l 194 958 l 167 986 l 56 986 l 56 1014 l 1236 1014 l 1236 986 l 1125 986 l 1097 958 l 1097 56 l 1125 28 l 1250 28 m 819 958 l 792 986 l 500 986 l 472 958 l 472 56 l 500 28 l 792 28 l 819 56 "},"Ш":{"ha":1750,"x_min":0,"x_max":0,"o":"m 1556 958 l 1556 56 l 1583 28 l 1694 28 l 1694 0 l 56 0 l 56 28 l 167 28 l 194 56 l 194 958 l 167 986 l 56 986 l 56 1014 l 1694 1014 l 1694 986 l 1583 986 m 708 28 l 736 56 l 736 958 l 708 986 l 500 986 l 472 958 l 472 56 l 500 28 m 1278 958 l 1250 986 l 1042 986 l 1014 958 l 1014 56 l 1042 28 l 1250 28 l 1278 56 "},"Щ":{"ha":1764,"x_min":0,"x_max":0,"o":"m 1639 -347 l 1615 -347 l 1510 0 l 56 0 l 56 28 l 167 28 l 194 56 l 194 958 l 167 986 l 56 986 l 56 1014 l 1694 1014 l 1694 986 l 1583 986 l 1556 958 l 1556 56 l 1583 28 l 1708 28 m 736 958 l 708 986 l 500 986 l 472 958 l 472 56 l 500 28 l 708 28 l 736 56 m 1278 958 l 1250 986 l 1042 986 l 1014 958 l 1014 56 l 1042 28 l 1250 28 l 1278 56 "},"Ь":{"ha":1111,"x_min":0,"x_max":0,"o":"m 722 1014 l 722 986 l 500 986 l 472 958 l 472 583 l 667 583 b 1069 292 925 583 1069 478 b 667 0 1069 106 925 0 l 56 0 l 56 28 l 167 28 l 194 56 l 194 958 l 167 986 l 56 986 l 56 1014 m 472 56 l 500 28 l 556 28 b 764 290 689 28 764 122 b 556 556 764 460 689 556 l 472 556 "},"Ъ":{"ha":1278,"x_min":0,"x_max":0,"o":"m 833 583 b 1236 292 1092 583 1236 478 b 833 0 1236 106 1092 0 l 222 0 l 222 28 l 333 28 l 361 56 l 361 958 l 333 986 l 264 986 l 67 575 l 42 583 l 83 1014 l 889 1014 l 889 986 l 667 986 l 639 958 l 639 583 l 833 583 m 722 28 b 931 290 856 28 931 122 b 722 556 931 460 856 556 l 639 556 l 639 56 l 667 28 l 722 28 "},"Ы":{"ha":1681,"x_min":0,"x_max":0,"o":"m 1486 958 l 1486 56 l 1514 28 l 1625 28 l 1625 0 l 1069 0 l 1069 28 l 1181 28 l 1208 56 l 1208 958 l 1181 986 l 500 986 l 472 958 l 472 583 l 667 583 b 1069 292 925 583 1069 478 b 667 0 1069 106 925 0 l 56 0 l 56 28 l 167 28 l 194 56 l 194 958 l 167 986 l 56 986 l 56 1014 l 1625 1014 l 1625 986 l 1514 986 m 472 556 l 472 56 l 500 28 l 556 28 b 764 290 689 28 764 122 b 556 556 764 460 689 556 "},"Є":{"ha":1101,"x_min":0,"x_max":0,"o":"m 1046 424 b 618 -28 1004 133 874 -28 b 56 507 265 -28 56 164 b 569 1042 56 839 246 1042 b 944 1014 689 1042 800 1014 l 972 1014 l 1014 625 l 985 624 b 671 1007 922 879 826 1007 b 361 535 486 1007 368 828 l 847 535 l 847 507 l 361 507 b 669 36 361 196 481 36 b 1015 428 874 36 974 167 "},"Э":{"ha":1101,"x_min":0,"x_max":0,"o":"m 532 1042 b 1046 507 856 1042 1046 839 b 483 -28 1046 164 836 -28 b 56 424 228 -28 97 133 l 86 428 b 432 36 128 167 228 36 b 740 507 621 36 740 196 l 254 507 l 254 535 l 740 535 b 431 1007 733 828 615 1007 b 117 624 275 1007 179 879 l 88 625 l 129 1014 l 157 1014 b 532 1042 301 1014 413 1042 "},"І":{"ha":667,"x_min":0,"x_max":0,"o":"m 56 28 l 167 28 l 194 56 l 194 958 l 167 986 l 56 986 l 56 1014 l 611 1014 l 611 986 l 500 986 l 472 958 l 472 56 l 500 28 l 611 28 l 611 0 l 56 0 "},"Ї":{"ha":667,"x_min":0,"x_max":0,"o":"m 28 1375 l 278 1375 l 278 1111 l 28 1111 m 389 1375 l 639 1375 l 639 1111 l 389 1111 m 56 28 l 167 28 l 194 56 l 194 958 l 167 986 l 56 986 l 56 1014 l 611 1014 l 611 986 l 500 986 l 472 958 l 472 56 l 500 28 l 611 28 l 611 0 l 56 0 "},"Ю":{"ha":1833,"x_min":0,"x_max":0,"o":"m 1215 1042 b 1778 507 1553 1042 1778 828 b 1215 -28 1778 186 1553 -28 b 653 500 881 -28 656 183 l 472 500 l 472 56 l 500 28 l 694 28 l 694 0 l 56 0 l 56 28 l 167 28 l 194 56 l 194 958 l 167 986 l 56 986 l 56 1014 l 694 1014 l 694 986 l 500 986 l 472 958 l 472 528 l 653 528 b 1215 1042 663 838 885 1042 m 1215 0 b 1472 507 1369 0 1472 203 b 1215 1014 1472 811 1369 1014 b 958 507 1061 1014 958 811 b 1215 0 958 203 1061 0 "},"Я":{"ha":1229,"x_min":0,"x_max":0,"o":"m 21 0 l 21 28 l 132 28 l 410 472 b 160 744 260 488 160 596 b 535 1014 160 906 310 1014 l 1174 1014 l 1174 986 l 1063 986 l 1035 958 l 1035 56 l 1063 28 l 1174 28 l 1174 0 m 757 958 l 729 986 l 646 986 b 465 742 538 986 465 889 b 646 500 465 597 538 500 l 757 500 m 757 56 l 757 472 l 660 472 l 426 28 l 729 28 "},"а":{"ha":938,"x_min":0,"x_max":0,"o":"m 271 -14 b 42 135 131 -14 42 44 b 335 351 42 244 126 314 l 542 389 l 542 528 b 443 694 542 649 501 694 b 347 500 372 694 347 643 l 347 425 l 72 369 l 79 463 b 443 722 93 643 210 722 b 806 458 699 722 806 628 l 806 56 l 833 28 l 917 28 l 917 0 l 556 0 l 556 125 l 542 125 b 271 -14 504 36 408 -14 m 408 56 b 542 317 494 56 542 149 l 542 361 b 319 172 385 335 319 249 b 408 56 319 101 354 56 "},"б":{"ha":889,"x_min":0,"x_max":0,"o":"m 444 722 b 847 347 694 722 847 579 b 444 -28 847 115 694 -28 b 42 431 194 -28 42 171 b 614 1018 42 915 269 1003 l 806 1026 l 821 1124 l 847 1121 l 807 806 l 514 806 b 89 544 225 806 89 722 l 103 544 b 444 722 169 647 313 722 m 444 0 b 569 347 550 0 569 133 b 444 694 569 561 550 694 b 319 347 339 694 319 561 b 444 0 319 133 339 0 "},"в":{"ha":972,"x_min":0,"x_max":0,"o":"m 644 364 b 951 181 840 356 951 289 b 625 0 951 65 833 0 l 28 0 l 28 28 l 125 28 l 153 56 l 153 639 l 125 667 l 28 667 l 28 694 l 597 694 b 896 535 789 694 896 638 b 644 378 896 447 806 390 l 644 364 m 417 375 l 500 375 b 618 521 575 375 618 428 b 500 667 618 614 575 667 l 444 667 l 417 639 m 514 28 b 674 188 617 28 674 85 b 514 347 674 290 617 347 l 417 347 l 417 56 l 444 28 l 514 28 "},"г":{"ha":854,"x_min":0,"x_max":0,"o":"m 28 28 l 139 28 l 167 56 l 167 639 l 139 667 l 28 667 l 28 694 l 806 694 l 833 333 l 811 328 l 597 667 l 458 667 l 431 639 l 431 56 l 458 28 l 764 28 l 764 0 l 28 0 "},"ґ":{"ha":826,"x_min":0,"x_max":0,"o":"m 28 28 l 139 28 l 167 56 l 167 639 l 139 667 l 28 667 l 28 694 l 625 694 l 810 1014 l 833 1010 l 806 667 l 458 667 l 431 639 l 431 56 l 458 28 l 778 28 l 778 0 l 28 0 "},"д":{"ha":931,"x_min":0,"x_max":0,"o":"m 14 28 l 146 28 b 232 285 201 68 221 119 l 257 639 l 229 667 l 83 667 l 83 694 l 903 694 l 903 667 l 792 667 l 764 639 l 764 54 l 792 28 l 903 28 l 833 -264 l 813 -264 l 728 0 l 189 0 l 104 -264 l 83 -264 m 472 28 l 500 54 l 500 639 l 472 667 l 313 667 l 285 639 l 260 282 b 185 28 249 128 229 68 "},"е":{"ha":889,"x_min":0,"x_max":0,"o":"m 461 -14 b 42 347 200 -14 42 129 b 461 722 42 579 199 722 b 833 417 689 722 833 615 l 792 375 l 319 375 l 319 343 b 557 42 319 181 407 42 b 821 322 700 42 803 167 l 847 319 b 461 -14 821 115 710 -14 m 528 403 l 556 431 b 444 694 556 622 511 694 b 321 403 374 694 328 613 "},"ё":{"ha":889,"x_min":0,"x_max":0,"o":"m 156 1056 l 406 1056 l 406 792 l 156 792 m 517 1056 l 767 1056 l 767 792 l 517 792 m 461 -14 b 42 347 200 -14 42 129 b 461 722 42 579 199 722 b 833 417 689 722 833 615 l 792 375 l 319 375 l 319 343 b 557 42 319 181 407 42 b 821 322 700 42 803 167 l 847 319 b 461 -14 821 115 710 -14 m 528 403 l 556 431 b 444 694 556 622 511 694 b 321 403 374 694 328 613 "},"ж":{"ha":1444,"x_min":0,"x_max":0,"o":"m 1424 28 l 1424 0 l 21 0 l 21 28 l 90 28 l 428 479 l 200 667 l 76 667 l 76 694 l 1368 694 l 1368 667 l 1244 667 l 1017 479 l 1354 28 m 590 385 l 590 639 l 563 667 l 289 667 l 275 639 m 854 639 l 854 385 l 1169 639 l 1156 667 l 882 667 m 590 56 l 590 340 l 410 56 l 424 28 l 563 28 m 1035 56 l 854 340 l 854 56 l 882 28 l 1021 28 "},"з":{"ha":807,"x_min":0,"x_max":0,"o":"m 469 375 b 786 196 693 372 786 310 b 400 -28 786 47 643 -28 b 42 264 194 -28 71 76 l 68 269 b 331 32 100 117 193 32 b 508 190 444 32 508 89 b 347 360 508 300 451 358 l 239 361 l 239 386 l 331 388 b 472 539 422 389 472 446 b 342 697 472 640 425 697 b 103 433 225 697 154 619 l 75 440 l 114 694 l 147 694 b 415 722 238 694 292 722 b 749 556 629 722 749 663 b 469 389 749 456 667 411 l 469 375 "},"и":{"ha":1097,"x_min":0,"x_max":0,"o":"m 944 639 l 944 54 l 972 28 l 1069 28 l 1069 0 l 28 0 l 28 28 l 125 28 l 153 56 l 153 639 l 125 667 l 28 667 l 28 694 l 1069 694 l 1069 667 l 972 667 m 417 639 l 417 186 l 681 560 l 681 639 l 653 667 l 444 667 m 681 54 l 681 508 l 417 135 l 417 56 l 444 28 l 653 28 "},"й":{"ha":1097,"x_min":0,"x_max":0,"o":"m 457 1014 b 547 804 457 851 489 804 b 638 1014 606 804 638 851 l 839 1014 b 547 776 839 863 733 776 b 256 1014 361 776 256 863 l 457 1014 m 944 639 l 944 54 l 972 28 l 1069 28 l 1069 0 l 28 0 l 28 28 l 125 28 l 153 56 l 153 639 l 125 667 l 28 667 l 28 694 l 1069 694 l 1069 667 l 972 667 m 417 639 l 417 186 l 681 560 l 681 639 l 653 667 l 444 667 m 681 54 l 681 508 l 417 135 l 417 56 l 444 28 l 653 28 "},"к":{"ha":993,"x_min":0,"x_max":0,"o":"m 972 28 l 972 0 l 28 0 l 28 28 l 111 28 l 139 56 l 139 639 l 111 667 l 28 667 l 28 694 l 917 694 l 917 667 l 793 667 l 585 496 l 903 28 m 403 639 l 403 383 l 721 639 l 707 667 l 431 667 m 583 56 l 403 340 l 403 56 l 431 28 l 569 28 "},"л":{"ha":1014,"x_min":0,"x_max":0,"o":"m 847 639 l 847 54 l 875 28 l 986 28 l 986 0 l 403 0 l 403 28 l 556 28 l 583 54 l 583 639 l 556 667 l 389 667 l 361 639 l 342 336 b 138 -7 324 56 286 1 l 14 -14 l 40 210 l 174 210 b 315 347 269 210 308 243 l 333 639 l 306 667 l 125 667 l 125 694 l 986 694 l 986 667 l 875 667 "},"м":{"ha":1215,"x_min":0,"x_max":0,"o":"m 1063 639 l 1063 56 l 1090 28 l 1188 28 l 1188 0 l 28 0 l 28 28 l 139 28 l 167 56 l 167 639 l 139 667 l 28 667 l 28 694 l 396 694 l 607 300 l 621 300 l 825 694 l 1188 694 l 1188 667 l 1090 667 m 493 28 l 215 542 l 201 542 l 201 56 l 229 28 m 799 542 l 785 542 l 521 28 l 771 28 l 799 56 "},"н":{"ha":1083,"x_min":0,"x_max":0,"o":"m 28 28 l 125 28 l 153 56 l 153 639 l 125 667 l 28 667 l 28 694 l 1056 694 l 1056 667 l 958 667 l 931 639 l 931 54 l 958 28 l 1056 28 l 1056 0 l 28 0 m 667 382 l 667 639 l 639 667 l 444 667 l 417 639 l 417 382 m 639 28 l 667 54 l 667 354 l 417 354 l 417 56 l 444 28 "},"о":{"ha":889,"x_min":0,"x_max":0,"o":"m 444 -14 b 42 354 194 -14 42 122 b 444 722 42 586 194 722 b 847 354 694 722 847 586 b 444 -14 847 122 694 -14 m 444 14 b 569 354 550 14 569 140 b 444 694 569 568 550 694 b 319 354 339 694 319 568 b 444 14 319 140 339 14 "},"п":{"ha":1069,"x_min":0,"x_max":0,"o":"m 28 28 l 125 28 l 153 56 l 153 639 l 125 667 l 28 667 l 28 694 l 1042 694 l 1042 667 l 944 667 l 917 639 l 917 54 l 944 28 l 1042 28 l 1042 0 l 28 0 m 625 28 l 653 54 l 653 639 l 625 667 l 444 667 l 417 639 l 417 56 l 444 28 "},"р":{"ha":1000,"x_min":0,"x_max":0,"o":"m 42 -319 l 125 -319 l 153 -292 l 153 667 l 56 667 l 56 694 b 403 722 161 694 293 688 l 403 611 l 417 611 b 632 722 457 681 536 722 b 958 354 819 722 958 568 b 628 -14 958 140 819 -14 b 431 64 547 -14 472 15 l 417 64 l 417 -292 l 444 -319 l 625 -319 l 625 -347 l 42 -347 m 533 42 b 681 354 640 42 681 174 b 536 660 681 535 642 660 b 417 438 451 660 417 575 l 417 250 b 533 42 417 124 450 42 "},"с":{"ha":828,"x_min":0,"x_max":0,"o":"m 428 -14 b 42 350 179 -14 42 117 b 419 722 42 586 183 722 b 681 694 524 722 557 694 l 708 694 l 739 421 l 708 417 b 490 688 676 585 590 688 b 319 381 383 688 319 576 b 525 44 319 164 393 44 b 744 311 654 44 732 140 l 772 306 b 428 -14 760 100 650 -14 "},"т":{"ha":944,"x_min":0,"x_max":0,"o":"m 132 28 l 313 28 l 340 56 l 340 638 l 313 665 l 229 665 l 58 319 l 35 325 l 63 693 l 882 693 l 910 325 l 886 319 l 715 665 l 632 665 l 604 638 l 604 56 l 632 28 l 813 28 l 813 0 l 132 0 "},"у":{"ha":931,"x_min":0,"x_max":0,"o":"m 910 667 l 822 667 l 486 -139 b 271 -340 431 -271 414 -333 l 132 -347 l 160 -111 l 408 -111 b 467 -83 438 -111 460 -100 l 478 -56 l 118 667 l 21 667 l 21 694 l 910 694 m 778 639 l 750 667 l 438 667 l 410 639 l 596 236 l 610 236 "},"ў":{"ha":931,"x_min":0,"x_max":0,"o":"m 443 1014 b 533 804 443 851 475 804 b 624 1014 592 804 624 851 l 825 1014 b 533 776 825 863 719 776 b 242 1014 347 776 242 863 l 443 1014 m 910 667 l 822 667 l 486 -139 b 271 -340 431 -271 414 -333 l 132 -347 l 160 -111 l 408 -111 b 467 -83 438 -111 460 -100 l 478 -56 l 118 667 l 21 667 l 21 694 l 910 694 m 778 639 l 750 667 l 438 667 l 410 639 l 596 236 l 610 236 "},"ф":{"ha":1306,"x_min":0,"x_max":0,"o":"m 271 -319 l 493 -319 l 521 -292 l 521 -22 b 42 347 213 6 42 135 b 521 717 42 560 213 689 l 521 889 l 493 917 l 271 917 l 271 944 b 785 1014 504 944 613 960 l 785 717 b 1264 347 1093 689 1264 558 b 785 -22 1264 136 1093 6 l 785 -292 l 813 -319 l 1035 -319 l 1035 -347 l 271 -347 m 521 676 b 306 347 382 635 306 521 b 521 18 306 174 382 60 m 785 18 b 1000 347 924 60 1000 174 b 785 676 1000 521 924 635 l 785 18 "},"х":{"ha":993,"x_min":0,"x_max":0,"o":"m 972 28 l 972 0 l 21 0 l 21 28 l 140 28 l 390 294 l 121 667 l 21 667 l 21 694 l 939 694 l 939 667 l 832 667 l 596 426 l 885 28 m 442 639 l 579 449 l 767 639 l 753 667 l 456 667 m 564 56 l 407 271 l 203 56 l 218 28 l 551 28 "},"ч":{"ha":1035,"x_min":0,"x_max":0,"o":"m 882 639 l 882 56 l 910 28 l 1007 28 l 1007 0 l 340 0 l 340 28 l 590 28 l 618 56 l 618 331 b 438 299 576 310 511 299 b 132 500 242 299 132 371 l 132 639 l 104 667 l 7 667 l 7 694 l 1007 694 l 1007 667 l 910 667 m 618 639 l 590 667 l 424 667 l 396 639 l 396 444 b 507 331 396 360 436 331 b 618 357 542 331 588 340 "},"ц":{"ha":1078,"x_min":0,"x_max":0,"o":"m 981 -278 l 960 -278 l 879 0 l 28 0 l 28 28 l 125 28 l 153 56 l 153 639 l 125 667 l 28 667 l 28 694 l 1042 694 l 1042 667 l 944 667 l 917 639 l 917 54 l 944 28 l 1050 28 m 653 639 l 625 667 l 444 667 l 417 639 l 417 56 l 444 28 l 625 28 l 653 54 "},"ш":{"ha":1514,"x_min":0,"x_max":0,"o":"m 1361 639 l 1361 56 l 1389 28 l 1486 28 l 1486 0 l 28 0 l 28 28 l 125 28 l 153 56 l 153 639 l 125 667 l 28 667 l 28 694 l 1486 694 l 1486 667 l 1389 667 m 597 28 l 625 56 l 625 639 l 597 667 l 444 667 l 417 639 l 417 56 l 444 28 m 1097 639 l 1069 667 l 917 667 l 889 639 l 889 56 l 917 28 l 1069 28 l 1097 56 "},"щ":{"ha":1522,"x_min":0,"x_max":0,"o":"m 1425 -278 l 1404 -278 l 1324 0 l 28 0 l 28 28 l 125 28 l 153 56 l 153 639 l 125 667 l 28 667 l 28 694 l 1486 694 l 1486 667 l 1389 667 l 1361 639 l 1361 56 l 1389 28 l 1494 28 m 625 639 l 597 667 l 444 667 l 417 639 l 417 56 l 444 28 l 597 28 l 625 56 m 1097 639 l 1069 667 l 917 667 l 889 639 l 889 56 l 917 28 l 1069 28 l 1097 56 "},"ь":{"ha":967,"x_min":0,"x_max":0,"o":"m 639 694 l 639 667 l 458 667 l 431 639 l 431 417 l 583 417 b 932 222 807 417 932 347 b 583 0 932 81 807 0 l 28 0 l 28 28 l 139 28 l 167 56 l 167 639 l 139 667 l 28 667 l 28 694 m 431 56 l 458 28 l 503 28 b 640 219 590 28 640 97 b 503 389 640 328 590 389 l 431 389 "},"ъ":{"ha":1113,"x_min":0,"x_max":0,"o":"m 729 417 b 1078 222 953 417 1078 347 b 729 0 1078 81 953 0 l 174 0 l 174 28 l 285 28 l 313 56 l 313 639 l 285 667 l 229 667 l 49 319 l 35 319 l 49 694 l 785 694 l 785 667 l 604 667 l 576 639 l 576 417 l 729 417 m 649 28 b 786 219 736 28 786 97 b 649 389 786 328 736 389 l 576 389 l 576 56 l 604 28 l 649 28 "},"ы":{"ha":1508,"x_min":0,"x_max":0,"o":"m 1356 639 l 1356 56 l 1383 28 l 1481 28 l 1481 0 l 967 0 l 967 28 l 1064 28 l 1092 56 l 1092 639 l 1064 667 l 458 667 l 431 639 l 431 417 l 583 417 b 932 222 807 417 932 347 b 583 0 932 81 807 0 l 28 0 l 28 28 l 139 28 l 167 56 l 167 639 l 139 667 l 28 667 l 28 694 l 1481 694 l 1481 667 l 1383 667 m 431 389 l 431 56 l 458 28 l 503 28 b 640 219 590 28 640 97 b 503 389 640 328 590 389 "},"є":{"ha":828,"x_min":0,"x_max":0,"o":"m 772 306 b 428 -28 760 101 668 -28 b 42 343 174 -28 42 115 b 419 722 42 579 183 722 b 681 694 524 722 557 694 l 708 694 l 739 421 l 708 417 b 490 688 676 585 590 688 b 319 376 383 688 319 571 l 615 376 l 615 350 l 319 350 b 525 31 325 169 385 31 b 744 311 657 31 732 138 "},"э":{"ha":828,"x_min":0,"x_max":0,"o":"m 408 722 b 786 343 644 722 786 579 b 400 -28 786 115 654 -28 b 56 306 160 -28 68 101 l 83 311 b 303 31 96 138 171 31 b 508 350 443 31 503 169 l 213 350 l 213 376 l 508 376 b 338 688 508 571 444 688 b 119 417 238 688 151 585 l 89 421 l 119 694 l 147 694 b 408 722 271 694 304 722 "},"і":{"ha":542,"x_min":0,"x_max":0,"o":"m 125 1097 l 403 1097 l 403 833 l 125 833 m 28 28 l 111 28 l 139 56 l 139 667 l 42 667 l 42 694 b 403 722 147 694 293 688 l 403 56 l 431 28 l 514 28 l 514 0 l 28 0 "},"ї":{"ha":542,"x_min":0,"x_max":0,"o":"m 35 1097 l 243 1097 l 243 833 l 35 833 m 299 1097 l 507 1097 l 507 833 l 299 833 m 28 28 l 111 28 l 139 56 l 139 667 l 42 667 l 42 694 b 403 722 147 694 293 688 l 403 56 l 431 28 l 514 28 l 514 0 l 28 0 "},"ю":{"ha":1417,"x_min":0,"x_max":0,"o":"m 972 722 b 1375 347 1222 722 1375 581 b 972 -28 1375 115 1222 -28 b 569 338 726 -28 574 111 l 417 338 l 417 56 l 444 28 l 597 28 l 597 0 l 28 0 l 28 28 l 125 28 l 153 56 l 153 639 l 125 667 l 28 667 l 28 694 l 597 694 l 597 667 l 444 667 l 417 639 l 417 365 l 569 365 b 972 722 578 586 729 722 m 972 0 b 1097 347 1078 0 1097 133 b 972 694 1097 561 1078 694 b 847 347 867 694 847 561 b 972 0 847 133 867 0 "},"я":{"ha":1104,"x_min":0,"x_max":0,"o":"m 21 0 l 21 28 l 118 28 l 357 314 b 181 507 244 332 181 401 b 493 694 181 626 293 694 l 1076 694 l 1076 667 l 979 667 l 951 639 l 951 56 l 979 28 l 1076 28 l 1076 0 m 688 639 l 660 667 l 604 667 b 458 507 511 667 458 610 b 604 342 458 401 511 342 l 688 342 m 688 56 l 688 314 l 604 314 l 407 28 l 660 28 "},".":{"ha":403,"x_min":0,"x_max":0,"o":"m 83 222 l 319 222 l 319 0 l 83 0 "},",":{"ha":403,"x_min":0,"x_max":0,"o":"m 74 -250 b 271 0 201 -206 276 -97 l 83 0 l 83 222 l 319 222 l 319 42 b 83 -278 319 -115 229 -237 "},":":{"ha":403,"x_min":0,"x_max":0,"o":"m 83 694 l 319 694 l 319 472 l 83 472 m 83 222 l 319 222 l 319 0 l 83 0 "},";":{"ha":403,"x_min":0,"x_max":0,"o":"m 83 694 l 319 694 l 319 472 l 83 472 m 74 -250 b 271 0 201 -206 276 -97 l 83 0 l 83 222 l 319 222 l 319 42 b 83 -278 319 -115 229 -237 "},"…":{"ha":1042,"x_min":0,"x_max":0,"o":"m 83 222 l 319 222 l 319 0 l 83 0 m 403 222 l 639 222 l 639 0 l 403 0 m 722 222 l 958 222 l 958 0 l 722 0 "},"!":{"ha":444,"x_min":0,"x_max":0,"o":"m 208 306 b 97 764 208 447 157 594 l 97 1014 l 347 1014 l 347 764 b 236 306 288 594 236 447 l 208 306 m 104 222 l 340 222 l 340 0 l 104 0 "},"¡":{"ha":472,"x_min":0,"x_max":0,"o":"m 340 694 l 340 472 l 104 472 l 104 694 m 236 389 b 347 -69 236 247 288 100 l 347 -319 l 97 -319 l 97 -69 b 208 389 157 100 208 247 "},"?":{"ha":569,"x_min":0,"x_max":0,"o":"m 139 639 l 361 639 b 486 718 439 639 486 663 b 444 792 486 749 471 772 l 83 792 l 28 1014 l 181 1007 b 514 710 388 997 514 883 b 236 431 514 551 408 444 l 236 306 l 208 306 m 104 222 l 340 222 l 340 0 l 104 0 "},"¿":{"ha":569,"x_min":0,"x_max":0,"o":"m 465 472 l 229 472 l 229 694 l 465 694 m 431 56 l 208 56 b 83 -24 131 56 83 32 b 125 -97 83 -54 99 -78 l 486 -97 l 542 -319 l 389 -312 b 56 -15 182 -303 56 -189 b 333 264 56 143 161 250 l 333 389 l 361 389 "},"·":{"ha":403,"x_min":0,"x_max":0,"o":"m 83 458 l 319 458 l 319 236 l 83 236 "},"•":{"ha":639,"x_min":0,"x_max":0,"o":"m 83 579 l 556 579 l 556 135 l 83 135 "},"*":{"ha":611,"x_min":0,"x_max":0,"o":"m 556 796 l 343 811 l 524 699 l 492 654 l 329 792 l 410 594 l 357 576 l 306 783 l 254 576 l 201 594 l 282 792 l 119 654 l 88 699 l 268 811 l 56 796 l 56 851 l 268 835 l 88 947 l 119 993 l 282 854 l 201 1053 l 254 1069 l 306 863 l 357 1069 l 410 1053 l 329 854 l 492 993 l 524 947 l 343 835 l 556 851 "},"#":{"ha":1321,"x_min":0,"x_max":0,"o":"m 165 -336 l 333 90 l 56 90 l 56 118 l 344 118 l 524 576 l 225 576 l 225 604 l 535 604 l 707 1042 l 735 1031 l 567 604 l 951 604 l 1124 1042 l 1151 1031 l 983 604 l 1265 604 l 1265 576 l 972 576 l 793 118 l 1096 118 l 1096 90 l 782 90 l 610 -347 l 582 -336 l 750 90 l 365 90 l 193 -347 m 761 118 l 940 576 l 556 576 l 376 118 "},"/":{"ha":597,"x_min":0,"x_max":0,"o":"m 14 -336 l 556 1042 l 583 1031 l 42 -347 "},"\\":{"ha":597,"x_min":0,"x_max":0,"o":"m 14 1031 l 42 1042 l 583 -336 l 556 -347 "},"(":{"ha":597,"x_min":0,"x_max":0,"o":"m 569 -326 b 56 368 251 -187 56 76 b 569 1063 56 660 251 924 l 583 1035 b 347 368 463 922 347 758 b 583 -299 347 -22 463 -186 l 569 -326 "},")":{"ha":597,"x_min":0,"x_max":0,"o":"m 14 -299 b 250 368 135 -186 250 -22 b 14 1035 250 758 135 922 l 28 1063 b 542 368 346 924 542 660 b 28 -326 542 76 346 -187 "},"{":{"ha":549,"x_min":0,"x_max":0,"o":"m 528 -312 b 107 35 317 -312 107 -254 b 140 292 107 160 140 240 b 56 361 140 328 118 350 l 56 389 b 140 458 118 400 140 422 b 107 715 140 510 107 590 b 528 1063 107 1004 317 1063 l 528 1035 b 393 872 422 1035 389 990 l 399 715 b 250 389 407 492 328 417 l 250 361 b 399 35 328 333 407 258 l 393 -122 b 528 -285 389 -240 422 -285 l 528 -312 "},"}":{"ha":549,"x_min":0,"x_max":0,"o":"m 21 -285 b 156 -122 126 -285 160 -240 l 150 35 b 299 361 142 258 221 333 l 299 389 b 150 715 221 417 142 492 l 156 872 b 21 1035 160 990 126 1035 l 21 1063 b 442 715 232 1063 442 1004 b 408 458 442 590 408 510 b 493 389 408 422 431 400 l 493 361 b 408 292 431 350 408 328 b 442 35 408 240 442 160 b 21 -312 442 -254 232 -312 "},"[":{"ha":583,"x_min":0,"x_max":0,"o":"m 83 1063 l 569 1063 l 569 1035 l 361 1035 l 361 -299 l 569 -299 l 569 -326 l 83 -326 "},"]":{"ha":583,"x_min":0,"x_max":0,"o":"m 14 -326 l 14 -299 l 222 -299 l 222 1035 l 14 1035 l 14 1063 l 500 1063 l 500 -326 "},"-":{"ha":556,"x_min":0,"x_max":0,"o":"m 69 403 l 486 403 l 486 375 l 69 375 "},"–":{"ha":833,"x_min":0,"x_max":0,"o":"m 42 403 l 792 403 l 792 375 l 42 375 "},"—":{"ha":1347,"x_min":0,"x_max":0,"o":"m 42 403 l 1306 403 l 1306 375 l 42 375 "},"_":{"ha":861,"x_min":0,"x_max":0,"o":"m -14 -28 l 736 -28 l 736 -56 l -14 -56 "},"‚":{"ha":403,"x_min":0,"x_max":0,"o":"m 74 -250 b 271 0 201 -206 276 -97 l 83 0 l 83 222 l 319 222 l 319 42 b 83 -278 319 -115 229 -237 "},"„":{"ha":722,"x_min":0,"x_max":0,"o":"m 74 -250 b 271 0 201 -206 276 -97 l 83 0 l 83 222 l 319 222 l 319 42 b 83 -278 319 -115 229 -237 m 393 -250 b 590 0 521 -206 596 -97 l 403 0 l 403 222 l 639 222 l 639 42 b 403 -278 639 -115 549 -237 "},"“":{"ha":722,"x_min":0,"x_max":0,"o":"m 329 1014 b 132 764 201 969 126 861 l 319 764 l 319 542 l 83 542 l 83 722 b 319 1042 83 879 174 1001 m 649 1014 b 451 764 521 969 446 861 l 639 764 l 639 542 l 403 542 l 403 722 b 639 1042 403 879 493 1001 "},"”":{"ha":722,"x_min":0,"x_max":0,"o":"m 74 542 b 271 792 201 586 276 694 l 83 792 l 83 1014 l 319 1014 l 319 833 b 83 514 319 676 229 554 m 393 542 b 590 792 521 586 596 694 l 403 792 l 403 1014 l 639 1014 l 639 833 b 403 514 639 676 549 554 "},"‘":{"ha":403,"x_min":0,"x_max":0,"o":"m 329 1014 b 132 764 201 969 126 861 l 319 764 l 319 542 l 83 542 l 83 722 b 319 1042 83 879 174 1001 "},"’":{"ha":403,"x_min":0,"x_max":0,"o":"m 74 542 b 271 792 201 586 276 694 l 83 792 l 83 1014 l 319 1014 l 319 833 b 83 514 319 676 229 554 "},"«":{"ha":583,"x_min":0,"x_max":0,"o":"m 28 333 l 28 361 l 333 631 l 351 610 l 69 361 l 69 333 l 351 85 l 333 64 m 204 333 l 204 361 l 510 631 l 528 610 l 246 361 l 246 333 l 528 85 l 510 64 "},"»":{"ha":583,"x_min":0,"x_max":0,"o":"m 56 85 l 338 333 l 338 361 l 56 610 l 74 631 l 379 361 l 379 333 l 74 64 m 232 85 l 514 333 l 514 361 l 232 610 l 250 631 l 556 361 l 556 333 l 250 64 "},"‹":{"ha":407,"x_min":0,"x_max":0,"o":"m 28 333 l 28 361 l 333 631 l 351 610 l 69 361 l 69 333 l 351 85 l 333 64 "},"›":{"ha":407,"x_min":0,"x_max":0,"o":"m 56 85 l 338 333 l 338 361 l 56 610 l 74 631 l 379 361 l 379 333 l 74 64 "},"\"":{"ha":667,"x_min":0,"x_max":0,"o":"m 167 639 b 56 868 167 714 115 778 l 56 1014 l 306 1014 l 306 868 b 194 639 246 778 194 714 l 167 639 m 472 639 b 361 868 472 714 421 778 l 361 1014 l 611 1014 l 611 868 b 500 639 551 778 500 714 l 472 639 "},"'":{"ha":361,"x_min":0,"x_max":0,"o":"m 167 639 b 56 868 167 714 115 778 l 56 1014 l 306 1014 l 306 868 b 194 639 246 778 194 714 l 167 639 "},"¢":{"ha":828,"x_min":0,"x_max":0,"o":"m 772 465 b 514 153 761 289 679 179 l 514 -194 l 486 -194 l 486 149 b 428 146 468 147 449 146 b 42 510 179 146 42 276 b 419 882 42 746 183 882 b 486 878 446 882 467 881 l 486 1208 l 514 1208 l 514 874 b 681 854 561 865 603 854 l 708 854 l 739 581 l 708 576 b 514 846 679 731 604 831 l 514 204 l 525 204 b 744 471 654 204 732 300 l 772 465 m 319 540 b 486 208 319 346 379 229 l 486 847 b 319 540 382 844 319 733 "},"¤":{"ha":794,"x_min":0,"x_max":0,"o":"m 694 439 b 617 254 694 363 667 299 l 700 171 l 681 151 l 596 236 b 411 183 547 203 485 183 b 226 236 338 183 275 203 l 142 151 l 122 171 l 206 254 b 128 439 156 299 128 363 b 207 625 128 515 157 581 l 122 710 l 142 729 l 229 642 b 411 694 276 675 339 694 b 593 642 483 694 546 675 l 681 729 l 700 710 l 615 625 b 694 439 665 581 694 515 m 411 211 b 556 439 531 211 556 319 b 411 667 556 558 531 667 b 267 439 292 667 267 558 b 411 211 267 319 292 211 "},"$":{"ha":1040,"x_min":0,"x_max":0,"o":"m 957 278 b 529 -28 957 94 788 -21 l 529 -194 l 501 -194 l 501 -28 b 167 0 369 -28 285 0 l 125 0 l 83 442 l 111 444 b 478 0 164 169 293 0 b 501 1 486 0 493 0 l 501 375 l 500 375 l 311 460 b 83 764 150 532 83 621 b 472 1042 83 936 242 1042 l 501 1042 l 501 1208 l 529 1208 l 529 1039 b 806 1014 619 1033 693 1014 l 847 1014 l 889 643 l 861 639 b 529 1013 797 864 675 1003 l 529 667 l 700 592 b 957 278 882 511 957 419 m 347 864 b 501 679 347 785 392 729 l 501 1013 b 347 864 407 1007 347 947 m 529 6 b 667 171 614 22 667 83 b 529 361 667 254 626 311 l 529 6 "},"€":{"ha":1171,"x_min":0,"x_max":0,"o":"m 1115 424 b 688 -28 1074 133 943 -28 b 126 454 353 -28 147 144 l 0 454 l 7 482 l 125 482 l 125 507 b 126 551 125 522 125 538 l 26 551 l 33 579 l 128 579 b 639 1042 154 868 339 1042 b 1014 1014 758 1042 869 1014 l 1042 1014 l 1083 625 l 1054 624 b 740 1007 992 879 896 1007 b 433 579 565 1007 450 846 l 900 579 l 893 551 l 432 551 b 431 507 431 538 431 522 l 431 482 l 869 482 l 863 454 l 432 454 b 739 36 444 178 561 36 b 1085 428 943 36 1043 167 "},"₽":{"ha":1083,"x_min":0,"x_max":0,"o":"m 472 458 l 472 389 l 771 389 l 771 361 l 472 361 l 472 56 l 500 28 l 778 28 l 778 0 l 56 0 l 56 28 l 167 28 l 194 56 l 194 361 l 63 361 l 63 389 l 194 389 l 194 458 l 63 458 l 63 486 l 194 486 l 194 958 l 167 986 l 56 986 l 56 1014 l 653 1014 b 1042 736 894 1014 1042 908 b 653 458 1042 564 894 458 m 472 486 l 542 486 b 736 738 678 486 736 583 b 542 986 736 890 678 986 l 500 986 l 472 958 "},"£":{"ha":1025,"x_min":0,"x_max":0,"o":"m 942 292 l 900 42 b 692 -28 856 -1 788 -28 b 306 86 436 -28 414 86 b 139 0 243 86 181 38 l 83 83 b 242 467 164 151 242 239 l 242 517 l 83 517 l 83 544 l 242 544 b 561 1042 249 901 306 1042 b 853 1014 681 1042 708 1014 l 881 1014 l 908 708 l 883 704 b 635 1007 846 881 763 1007 b 506 625 528 1007 506 889 b 501 544 506 596 504 569 l 800 544 l 800 517 l 499 517 b 221 132 465 271 317 193 l 233 111 b 488 211 356 183 425 211 b 764 14 621 211 621 57 l 918 297 "},"₸":{"ha":944,"x_min":0,"x_max":0,"o":"m 63 1014 l 882 1014 l 882 986 l 63 986 m 132 28 l 313 28 l 340 56 l 340 832 l 313 860 l 229 860 l 58 508 l 35 513 l 63 888 l 882 888 l 910 513 l 886 508 l 715 860 l 632 860 l 604 832 l 604 56 l 632 28 l 813 28 l 813 0 l 132 0 "},"₴":{"ha":1126,"x_min":0,"x_max":0,"o":"m 1071 583 l 1071 556 l 56 556 l 56 583 l 465 583 b 739 864 642 656 739 750 b 572 1013 739 951 674 1013 b 238 714 419 1013 300 915 l 211 719 l 239 1014 l 281 1014 b 614 1042 415 1014 496 1042 b 1003 764 844 1042 1003 936 b 958 583 1003 708 990 636 m 56 486 l 1071 486 l 1071 458 l 704 458 b 419 171 486 378 419 278 b 622 0 419 67 493 0 b 961 311 793 0 903 58 l 990 307 l 961 0 l 919 0 b 582 -28 800 0 715 -28 b 129 278 310 -28 129 89 b 172 458 129 339 144 413 l 56 458 "},"¥":{"ha":1181,"x_min":0,"x_max":0,"o":"m 1160 1014 l 1160 986 l 1047 986 l 767 472 l 1028 472 l 1028 444 l 751 444 l 729 403 l 729 375 l 1028 375 l 1028 347 l 729 347 l 729 56 l 757 28 l 868 28 l 868 0 l 313 0 l 313 28 l 424 28 l 451 56 l 451 347 l 153 347 l 153 375 l 451 375 l 451 403 l 429 444 l 153 444 l 153 472 l 415 472 l 160 958 l 132 986 l 21 986 l 21 1014 m 997 958 l 969 986 l 493 986 l 465 958 l 718 472 l 732 472 "},"+":{"ha":583,"x_min":0,"x_max":0,"o":"m 278 493 l 83 493 l 83 521 l 278 521 l 278 701 l 306 701 l 306 521 l 500 521 l 500 493 l 306 493 l 306 313 l 278 313 "},"−":{"ha":583,"x_min":0,"x_max":0,"o":"m 83 521 l 500 521 l 500 493 l 83 493 "},"×":{"ha":482,"x_min":0,"x_max":0,"o":"m 83 368 l 222 507 l 85 644 l 104 664 l 242 526 l 378 663 l 397 643 l 261 507 l 399 369 l 379 349 l 242 488 l 103 349 "},"÷":{"ha":583,"x_min":0,"x_max":0,"o":"m 236 736 l 347 736 l 347 625 l 236 625 m 83 521 l 500 521 l 500 493 l 83 493 m 236 375 l 347 375 l 347 264 l 236 264 "},"=":{"ha":583,"x_min":0,"x_max":0,"o":"m 83 611 l 500 611 l 500 583 l 83 583 m 83 417 l 500 417 l 500 389 l 83 389 "},"≠":{"ha":583,"x_min":0,"x_max":0,"o":"m 339 583 l 269 417 l 500 417 l 500 389 l 257 389 l 188 222 l 164 232 l 229 389 l 83 389 l 83 417 l 242 417 l 311 583 l 83 583 l 83 611 l 324 611 l 397 788 l 421 778 l 351 611 l 500 611 l 500 583 "},">":{"ha":583,"x_min":0,"x_max":0,"o":"m 83 404 l 444 500 l 444 514 l 83 611 l 83 640 l 500 528 l 500 486 l 83 375 "},"<":{"ha":583,"x_min":0,"x_max":0,"o":"m 83 486 l 83 528 l 500 640 l 500 611 l 139 514 l 139 500 l 500 404 l 500 375 "},"≥":{"ha":583,"x_min":0,"x_max":0,"o":"m 83 432 l 444 528 l 444 542 l 83 639 l 83 668 l 500 556 l 500 514 l 83 403 m 83 375 l 500 375 l 500 347 l 83 347 "},"≤":{"ha":583,"x_min":0,"x_max":0,"o":"m 83 514 l 83 556 l 500 668 l 500 639 l 139 542 l 139 528 l 500 432 l 500 403 m 83 347 l 83 375 l 500 375 l 500 347 "},"±":{"ha":583,"x_min":0,"x_max":0,"o":"m 278 590 l 83 590 l 83 618 l 278 618 l 278 799 l 306 799 l 306 618 l 500 618 l 500 590 l 306 590 l 306 410 l 278 410 m 83 361 l 500 361 l 500 333 l 83 333 "},"≈":{"ha":721,"x_min":0,"x_max":0,"o":"m 460 524 b 333 563 413 524 376 535 l 263 607 b 164 636 229 628 200 636 l 97 531 l 83 538 b 261 761 106 631 164 761 b 379 725 300 761 335 750 l 442 688 b 557 649 488 660 521 649 l 624 754 l 638 747 b 460 524 615 654 557 524 m 460 274 b 333 313 413 274 376 285 l 263 357 b 164 386 229 378 200 386 l 97 281 l 83 288 b 261 511 106 381 164 511 b 379 475 300 511 335 500 l 442 438 b 557 399 488 410 521 399 l 624 504 l 638 497 b 460 274 615 404 557 274 "},"¬":{"ha":583,"x_min":0,"x_max":0,"o":"m 500 333 l 472 333 l 472 542 l 83 542 l 83 569 l 500 569 "},"~":{"ha":721,"x_min":0,"x_max":0,"o":"m 460 399 b 333 438 413 399 376 410 l 263 482 b 164 511 229 503 200 511 l 97 406 l 83 413 b 261 636 106 506 164 636 b 379 600 300 636 335 625 l 442 563 b 557 524 488 535 521 524 l 624 629 l 638 622 b 460 399 615 529 557 399 "},"^":{"ha":569,"x_min":0,"x_max":0,"o":"m 275 1042 l 294 1042 l 486 625 l 453 625 l 292 982 l 278 982 l 117 625 l 83 625 "},"∅":{"ha":1083,"x_min":0,"x_max":0,"o":"m 257 -253 l 360 10 b 83 439 196 79 83 242 b 542 889 83 686 286 889 b 696 863 596 889 647 879 l 799 1125 l 826 1114 l 724 853 b 1000 439 888 783 1000 624 b 542 -28 1000 175 797 -28 b 388 -1 488 -28 436 -18 l 285 -264 m 686 838 b 542 861 642 853 593 861 b 111 439 299 861 111 674 b 369 35 111 251 215 99 m 542 0 b 972 439 786 0 972 188 b 714 828 972 614 868 764 l 397 24 b 542 0 443 8 490 0 "},"%":{"ha":1268,"x_min":0,"x_max":0,"o":"m 354 -176 l 875 1150 l 867 1154 b 431 1021 749 1038 546 1019 l 431 1008 b 551 753 507 963 551 874 b 297 464 551 574 454 464 b 42 753 139 464 42 574 b 296 1042 42 932 139 1042 b 890 1204 547 1042 735 1047 l 924 1190 l 382 -187 m 297 493 b 394 753 360 493 394 582 b 297 1013 394 926 360 1013 b 200 753 233 1013 200 926 b 297 493 200 582 235 493 m 972 -28 b 717 261 814 -28 717 82 b 972 550 717 440 814 550 b 1226 261 1129 550 1226 440 b 972 -28 1226 82 1129 -28 m 972 1 b 1069 261 1035 1 1069 90 b 972 521 1069 435 1035 521 b 875 261 908 521 875 435 b 972 1 875 90 910 1 "},"‰":{"ha":1847,"x_min":0,"x_max":0,"o":"m 354 -176 l 875 1150 l 867 1154 b 431 1021 749 1038 546 1019 l 431 1008 b 551 753 507 963 551 874 b 297 464 551 574 454 464 b 42 753 139 464 42 574 b 296 1042 42 932 139 1042 b 890 1204 547 1042 735 1047 l 924 1190 l 382 -187 m 297 493 b 394 753 360 493 394 582 b 297 1013 394 926 360 1013 b 200 753 233 1013 200 926 b 297 493 200 582 235 493 m 972 -28 b 717 261 814 -28 717 82 b 972 550 717 440 814 550 b 1226 261 1129 550 1226 440 b 972 -28 1226 82 1129 -28 m 1551 -28 b 1296 261 1393 -28 1296 82 b 1551 550 1296 440 1393 550 b 1806 261 1708 550 1806 440 b 1551 -28 1806 82 1708 -28 m 972 1 b 1069 261 1035 1 1069 90 b 972 521 1069 435 1035 521 b 875 261 908 521 875 435 b 972 1 875 90 910 1 m 1551 1 b 1649 261 1614 1 1649 90 b 1551 521 1649 435 1614 521 b 1454 261 1488 521 1454 435 b 1551 1 1454 90 1489 1 "},"↑":{"ha":753,"x_min":0,"x_max":0,"o":"m 363 790 l 390 790 l 656 511 l 636 493 l 404 736 l 390 736 l 390 99 l 363 99 l 363 736 l 349 736 l 117 493 l 97 511 "},"↗":{"ha":663,"x_min":0,"x_max":0,"o":"m 542 290 l 549 626 l 539 636 l 89 185 l 69 204 l 519 656 l 510 665 l 174 657 l 174 683 l 558 693 l 578 674 l 568 289 "},"→":{"ha":858,"x_min":0,"x_max":0,"o":"m 478 178 l 721 410 l 721 424 l 83 424 l 83 451 l 721 451 l 721 465 l 478 697 l 496 717 l 775 451 l 775 424 l 496 158 "},"↘":{"ha":663,"x_min":0,"x_max":0,"o":"m 578 200 l 558 181 l 174 190 l 174 217 l 510 208 l 519 218 l 69 669 l 89 689 l 539 238 l 549 247 l 542 583 l 568 585 "},"↓":{"ha":753,"x_min":0,"x_max":0,"o":"m 117 396 l 349 153 l 363 153 l 363 790 l 390 790 l 390 153 l 404 153 l 636 396 l 656 378 l 390 99 l 363 99 l 97 378 "},"↙":{"ha":643,"x_min":0,"x_max":0,"o":"m 101 583 l 94 247 l 104 238 l 554 689 l 574 669 l 124 218 l 133 208 l 469 217 l 469 190 l 85 181 l 65 200 l 75 585 "},"←":{"ha":858,"x_min":0,"x_max":0,"o":"m 83 424 l 83 451 l 363 717 l 381 697 l 138 465 l 138 451 l 775 451 l 775 424 l 138 424 l 138 410 l 381 178 l 363 158 "},"↖":{"ha":663,"x_min":0,"x_max":0,"o":"m 85 674 l 104 693 l 489 683 l 489 657 l 153 665 l 143 656 l 593 204 l 574 185 l 124 636 l 114 626 l 121 290 l 94 289 "},"↔":{"ha":1136,"x_min":0,"x_max":0,"o":"m 1053 451 l 1053 424 l 774 158 l 756 178 l 999 410 l 999 424 l 138 424 l 138 410 l 381 178 l 363 158 l 83 424 l 83 451 l 363 717 l 381 697 l 138 465 l 138 451 l 999 451 l 999 465 l 756 697 l 774 717 "},"↕":{"ha":753,"x_min":0,"x_max":0,"o":"m 390 -46 l 363 -46 l 97 233 l 117 251 l 349 8 l 363 8 l 363 869 l 349 869 l 117 626 l 97 644 l 363 924 l 390 924 l 656 644 l 636 626 l 404 869 l 390 869 l 390 8 l 404 8 l 636 251 l 656 233 "},"◊":{"ha":597,"x_min":0,"x_max":0,"o":"m 111 417 l 303 833 l 322 833 l 514 417 l 322 0 l 303 0 m 319 60 l 481 417 l 319 774 l 306 774 l 144 417 l 306 60 "},"@":{"ha":1333,"x_min":0,"x_max":0,"o":"m 699 -285 b 56 338 306 -285 56 -43 b 685 965 56 721 300 965 b 1278 322 1047 965 1278 715 b 1007 -28 1278 78 1196 -28 b 792 125 867 -28 792 31 l 778 125 b 535 -28 728 7 672 -28 b 278 139 361 -28 278 28 b 625 389 278 254 368 319 l 778 431 l 778 528 b 686 694 778 649 744 694 b 596 514 625 694 593 643 l 597 458 l 321 389 l 335 504 b 679 722 353 643 476 722 b 1042 458 911 722 1042 628 l 1042 111 b 1097 28 1042 60 1063 28 b 1250 324 1175 28 1250 110 b 683 938 1250 699 1029 938 b 83 336 317 938 83 704 b 703 -257 83 -26 324 -257 b 1058 -187 833 -257 974 -231 l 1069 -215 b 699 -285 969 -258 829 -285 m 644 42 b 778 331 729 42 778 154 l 778 403 b 556 163 631 354 556 274 b 644 42 556 89 589 42 "},"&":{"ha":1319,"x_min":0,"x_max":0,"o":"m 411 -28 b 56 244 185 -28 56 74 b 358 494 56 393 153 472 b 210 790 254 636 210 703 b 585 1042 210 947 351 1042 b 953 794 814 1042 953 950 b 800 597 953 700 901 635 l 1250 597 l 1250 569 l 1139 569 l 860 275 l 954 146 b 1110 32 1014 65 1061 32 b 1236 139 1161 32 1214 71 l 1264 125 b 976 -28 1231 15 1150 -28 b 693 54 838 -28 754 -4 l 667 79 b 411 -28 594 7 542 -28 m 631 588 b 690 797 668 619 690 692 b 593 1014 690 932 654 1014 b 514 876 544 1014 514 961 b 615 610 514 788 547 703 l 631 588 m 1065 542 l 1038 569 l 675 569 b 647 567 667 568 657 568 l 840 301 m 513 28 b 649 99 560 28 603 56 l 382 461 b 361 318 369 436 361 386 b 513 28 361 147 414 28 "},"¶":{"ha":843,"x_min":0,"x_max":0,"o":"m 426 429 b 83 722 196 429 83 561 b 426 1014 83 882 196 1014 l 760 1014 l 760 986 l 635 986 l 607 958 l 607 -139 l 579 -139 l 579 986 l 454 986 l 454 -139 l 426 -139 "},"§":{"ha":861,"x_min":0,"x_max":0,"o":"m 446 -161 b 139 -133 322 -161 278 -133 l 111 -133 l 83 158 l 107 163 b 388 -131 158 -21 268 -131 b 514 -21 464 -131 514 -85 b 361 113 514 25 460 75 l 243 157 b 83 367 131 200 83 261 b 336 563 83 472 158 531 l 336 576 b 111 819 178 629 111 700 b 364 1042 111 957 196 1042 b 653 1014 468 1042 529 1014 l 681 1014 l 708 764 l 685 760 b 443 1007 635 915 539 1007 b 347 904 390 1007 347 964 b 482 769 347 842 388 801 l 583 735 b 778 532 721 689 778 629 b 506 321 778 408 638 333 l 506 308 b 778 65 679 256 778 168 b 446 -161 778 -82 654 -161 m 446 328 b 542 432 489 335 542 354 b 450 536 542 482 515 513 l 390 558 b 306 451 331 539 306 507 b 400 346 306 403 333 371 l 446 328 "},"©":{"ha":1361,"x_min":0,"x_max":0,"o":"m 681 -257 b 56 365 318 -257 56 -4 b 681 965 56 721 318 965 b 1306 365 1043 965 1306 721 b 681 -257 1306 -4 1043 -257 m 681 -229 b 1278 367 1026 -229 1278 13 b 681 938 1278 706 1026 938 b 83 367 335 938 83 706 b 681 -229 83 13 335 -229 m 685 -14 b 299 350 436 -14 299 117 b 676 722 299 586 440 722 b 938 694 781 722 814 694 l 965 694 l 996 421 l 965 417 b 747 688 933 585 847 688 b 576 381 640 688 576 576 b 782 44 576 164 650 44 b 1001 311 911 44 989 140 l 1029 306 b 685 -14 1017 100 907 -14 "},"®":{"ha":889,"x_min":0,"x_max":0,"o":"m 444 292 b 56 688 228 292 56 456 b 444 1069 56 906 226 1069 b 833 688 661 1069 833 906 b 444 292 833 456 661 292 m 444 319 b 806 688 644 319 806 475 b 444 1042 806 886 644 1042 b 83 688 246 1042 83 886 b 444 319 83 475 246 319 m 231 507 l 275 507 l 286 518 l 286 851 l 275 863 l 231 863 l 231 888 l 481 888 b 631 785 574 888 631 849 b 547 690 631 739 600 704 l 647 507 l 692 507 l 692 482 l 231 482 m 436 707 b 508 785 488 707 508 728 b 436 863 508 842 488 863 l 408 863 l 397 851 l 397 707 m 524 507 l 447 682 l 397 682 l 397 518 l 408 507 "},"™":{"ha":1067,"x_min":0,"x_max":0,"o":"m 956 979 l 956 646 l 967 635 l 1011 635 l 1011 610 l 88 610 l 88 635 l 174 635 l 185 646 l 185 979 l 174 990 l 101 990 l 54 839 l 35 843 l 46 1015 l 435 1015 l 446 843 l 426 839 l 379 990 l 307 990 l 296 979 l 296 646 l 307 635 l 528 635 l 539 646 l 539 979 l 528 990 l 478 990 l 478 1015 l 661 1015 l 744 779 l 750 779 l 832 1015 l 1011 1015 l 1011 990 l 967 990 m 844 960 l 839 960 l 726 635 l 833 635 l 844 646 m 578 635 l 690 635 l 572 954 l 567 954 l 567 646 "},"°":{"ha":444,"x_min":0,"x_max":0,"o":"m 222 764 b 56 932 129 764 56 838 b 222 1097 56 1024 129 1097 b 389 932 315 1097 389 1024 b 222 764 389 838 315 764 m 222 790 b 363 932 301 790 363 850 b 222 1071 363 1008 301 1071 b 82 932 143 1071 82 1008 b 222 790 82 850 143 790 "},"|":{"ha":194,"x_min":0,"x_max":0,"o":"m 83 1208 l 111 1208 l 111 -194 l 83 -194 "},"¦":{"ha":194,"x_min":0,"x_max":0,"o":"m 83 1208 l 111 1208 l 111 653 l 83 653 m 83 361 l 111 361 l 111 -194 l 83 -194 "},"†":{"ha":722,"x_min":0,"x_max":0,"o":"m 347 0 b 299 465 347 156 333 310 l 347 514 l 347 660 l 201 660 l 153 611 l 83 674 l 153 736 l 201 688 l 347 688 l 347 833 l 299 882 l 361 951 l 424 882 l 375 833 l 375 688 l 521 688 l 569 736 l 639 674 l 569 611 l 521 660 l 375 660 l 375 514 l 424 465 b 375 0 389 310 375 156 l 347 0 "},"‡":{"ha":722,"x_min":0,"x_max":0,"o":"m 299 49 l 347 97 l 347 243 l 201 243 l 153 194 l 83 257 l 153 319 l 201 271 l 347 271 l 347 375 b 299 465 347 433 326 449 b 347 556 326 482 347 497 l 347 660 l 201 660 l 153 611 l 83 674 l 153 736 l 201 688 l 347 688 l 347 833 l 299 882 l 361 951 l 424 882 l 375 833 l 375 688 l 521 688 l 569 729 l 639 674 l 569 611 l 521 660 l 375 660 l 375 556 b 424 465 375 497 396 482 b 375 375 396 449 375 433 l 375 271 l 521 271 l 569 319 l 639 257 l 569 194 l 521 243 l 375 243 l 375 97 l 424 49 l 361 -21 "},"№":{"ha":1604,"x_min":0,"x_max":0,"o":"m 1271 444 b 979 736 1085 444 979 550 b 1271 1028 979 922 1085 1028 b 1563 736 1457 1028 1563 922 b 1271 444 1563 550 1457 444 m 56 28 l 181 28 l 208 56 l 208 958 l 181 986 l 56 986 l 56 1014 l 321 1014 l 826 419 l 840 419 l 840 958 l 813 986 l 556 986 l 556 1014 l 1000 1014 l 1000 986 l 903 986 l 875 958 l 875 0 l 806 0 l 257 667 l 243 667 l 243 56 l 271 28 l 542 28 l 542 0 l 56 0 m 1271 472 b 1396 736 1351 472 1396 567 b 1271 1000 1396 906 1351 1000 b 1146 736 1190 1000 1146 906 b 1271 472 1146 567 1190 472 m 1057 347 l 1488 347 l 1488 319 l 1057 319 "},"ʼ":{"ha":385,"x_min":0,"x_max":0,"o":"m 74 542 b 271 792 201 586 276 694 l 83 792 l 83 1014 l 319 1014 l 319 833 b 83 514 319 676 229 554 "},"̈":{"ha":0,"x_min":0,"x_max":0,"o":"m -667 1056 l -417 1056 l -417 792 l -667 792 m -306 1056 l -56 1056 l -56 792 l -306 792 "},"̇":{"ha":0,"x_min":0,"x_max":0,"o":"m -333 1056 l -56 1056 l -56 792 l -333 792 "},"̀":{"ha":0,"x_min":0,"x_max":0,"o":"m -460 917 l -460 1097 l -279 1097 l -64 792 l -78 774 "},"́":{"ha":0,"x_min":0,"x_max":0,"o":"m -453 792 l -237 1097 l -57 1097 l -57 917 l -439 774 "},"̋":{"ha":0,"x_min":0,"x_max":0,"o":"m -701 788 l -590 1097 l -410 1097 l -410 917 l -687 778 m -375 788 l -264 1097 l -83 1097 l -83 917 l -361 778 "},"̂":{"ha":0,"x_min":0,"x_max":0,"o":"m -68 778 l -346 943 l -624 778 l -637 792 l -436 1097 l -256 1097 l -54 792 "},"̌":{"ha":0,"x_min":0,"x_max":0,"o":"m -256 778 l -436 778 l -637 1083 l -624 1097 l -346 932 l -68 1097 l -54 1083 "},"̆":{"ha":0,"x_min":0,"x_max":0,"o":"m -472 1097 b -278 943 -472 982 -432 943 b -83 1097 -124 943 -83 982 l -56 1097 b -278 776 -56 896 -124 776 b -500 1097 -432 776 -500 896 l -472 1097 "},"̊":{"ha":0,"x_min":0,"x_max":0,"o":"m -222 764 b -389 932 -315 764 -389 838 b -222 1097 -389 1024 -315 1097 b -56 932 -129 1097 -56 1024 b -222 764 -56 838 -129 764 m -222 790 b -82 932 -143 790 -82 850 b -222 1071 -82 1008 -143 1071 b -362 932 -301 1071 -362 1008 b -222 790 -362 850 -301 790 "},"̃":{"ha":0,"x_min":0,"x_max":0,"o":"m -233 804 b -360 843 -281 804 -317 815 l -431 888 b -529 917 -464 908 -493 917 l -596 811 l -610 818 b -432 1042 -587 911 -529 1042 b -314 1006 -393 1042 -358 1031 l -251 968 b -136 929 -206 940 -172 929 l -69 1035 l -56 1028 b -233 804 -78 935 -136 804 "},"̄":{"ha":0,"x_min":0,"x_max":0,"o":"m -500 972 l -56 972 l -56 806 l -500 806 "},"̒":{"ha":0,"x_min":0,"x_max":0,"o":"m -292 917 b -61 1139 -292 1060 -211 1113 l -56 1111 b -243 972 -186 1086 -243 1028 l -56 972 l -56 778 l -292 778 "},"̦":{"ha":0,"x_min":0,"x_max":0,"o":"m -292 -375 b -104 -250 -161 -364 -104 -317 l -292 -250 l -292 -83 l -56 -83 l -56 -194 b -286 -403 -56 -337 -136 -390 "},"̧":{"ha":0,"x_min":0,"x_max":0,"o":"m -444 -236 l -253 -236 b -221 -172 -232 -219 -221 -199 b -346 -125 -221 -128 -253 -111 l -369 -97 l -332 0 l -304 0 l -337 -87 l -326 -101 b -82 -204 -183 -83 -82 -119 b -360 -319 -82 -287 -178 -319 l -458 -319 "},"̨":{"ha":0,"x_min":0,"x_max":0,"o":"m -268 -361 b -431 -126 -397 -361 -462 -260 l -222 0 l -194 0 b -250 -132 -231 -37 -250 -60 b -164 -236 -250 -201 -204 -236 b -71 -181 -121 -236 -89 -212 l -57 -194 b -268 -361 -79 -286 -175 -361 "},"¨":{"ha":722,"x_min":0,"x_max":0,"o":"m 56 1097 l 306 1097 l 306 833 l 56 833 m 417 1097 l 667 1097 l 667 833 l 417 833 "},"˙":{"ha":389,"x_min":0,"x_max":0,"o":"m 56 1097 l 333 1097 l 333 833 l 56 833 "},"`":{"ha":479,"x_min":0,"x_max":0,"o":"m 42 917 l 42 1097 l 222 1097 l 438 792 l 424 774 "},"´":{"ha":479,"x_min":0,"x_max":0,"o":"m 42 792 l 257 1097 l 438 1097 l 438 917 l 56 774 "},"˝":{"ha":701,"x_min":0,"x_max":0,"o":"m 42 788 l 153 1097 l 333 1097 l 333 917 l 56 778 m 368 788 l 479 1097 l 660 1097 l 660 917 l 382 778 "},"ˆ":{"ha":694,"x_min":0,"x_max":0,"o":"m 625 778 l 347 943 l 69 778 l 56 792 l 257 1097 l 438 1097 l 639 792 "},"ˇ":{"ha":694,"x_min":0,"x_max":0,"o":"m 438 778 l 257 778 l 56 1083 l 69 1097 l 347 932 l 625 1097 l 639 1083 "},"˘":{"ha":556,"x_min":0,"x_max":0,"o":"m 83 1097 b 278 943 83 982 124 943 b 472 1097 432 943 472 982 l 500 1097 b 278 776 500 896 432 776 b 56 1097 124 776 56 896 l 83 1097 "},"˚":{"ha":444,"x_min":0,"x_max":0,"o":"m 222 764 b 56 932 129 764 56 838 b 222 1097 56 1024 129 1097 b 389 932 315 1097 389 1024 b 222 764 389 838 315 764 m 222 790 b 363 932 301 790 363 850 b 222 1071 363 1008 301 1071 b 82 932 143 1071 82 1008 b 222 790 82 850 143 790 "},"˜":{"ha":665,"x_min":0,"x_max":0,"o":"m 432 804 b 306 843 385 804 349 815 l 235 888 b 136 917 201 908 172 917 l 69 811 l 56 818 b 233 1042 78 911 136 1042 b 351 1006 272 1042 307 1031 l 414 968 b 529 929 460 940 493 929 l 596 1035 l 610 1028 b 432 804 588 935 529 804 "},"¯":{"ha":556,"x_min":0,"x_max":0,"o":"m 56 1042 l 500 1042 l 500 875 l 56 875 "},"¸":{"ha":460,"x_min":0,"x_max":0,"o":"m 56 -236 l 247 -236 b 279 -172 268 -219 279 -199 b 154 -125 279 -128 247 -111 l 131 -97 l 168 0 l 196 0 l 163 -87 l 174 -101 b 418 -204 317 -83 418 -119 b 140 -319 418 -287 322 -319 l 42 -319 "},"˛":{"ha":493,"x_min":0,"x_max":0,"o":"m 226 -361 b 64 -126 97 -361 32 -260 l 272 0 l 300 0 b 244 -132 264 -37 244 -60 b 331 -236 244 -201 290 -236 b 424 -181 374 -236 406 -212 l 438 -194 b 226 -361 415 -286 319 -361 "}}}
